<svg width="16" height="16" viewBox="0 0 16 16" fill="none" xmlns="http://www.w3.org/2000/svg">
<path d="M4.49992 3.66243L2.17713 5.86298C1.97666 6.05289 1.66019 6.04434 1.47028 5.84387C1.28036 5.64341 1.28891 5.32694 1.48938 5.13702L4.65605 2.13702C4.8489 1.95433 5.15094 1.95433 5.34379 2.13702L8.51046 5.13702C8.71092 5.32694 8.71948 5.64341 8.52956 5.84387C8.33965 6.04434 8.02318 6.05289 7.82271 5.86298L5.49992 3.66244L5.49992 9.16667C5.49992 9.44281 5.27606 9.66667 4.99992 9.66667C4.72378 9.66667 4.49992 9.44281 4.49992 9.16667L4.49992 3.66243Z" fill="black"/>
<path d="M11.4999 12.3376L13.8227 10.137C14.0232 9.94711 14.3396 9.95566 14.5296 10.1561C14.7195 10.3566 14.7109 10.6731 14.5105 10.863L11.3438 13.863C11.1509 14.0457 10.8489 14.0457 10.656 13.863L7.48938 10.863C7.28892 10.6731 7.28036 10.3566 7.47028 10.1561C7.66019 9.95566 7.97666 9.94711 8.17713 10.137L10.4999 12.3376L10.4999 6.83333C10.4999 6.55719 10.7238 6.33333 10.9999 6.33333C11.2761 6.33333 11.4999 6.55719 11.4999 6.83333L11.4999 12.3376Z" fill="black"/>
</svg>
