<svg width="16" height="16" viewBox="0 0 16 16" fill="none" xmlns="http://www.w3.org/2000/svg">
<path fill-rule="evenodd" clip-rule="evenodd" d="M5.33333 5.87134V2.33331H4.95832C4.68218 2.33331 4.45832 2.10946 4.45832 1.83331C4.45832 1.55717 4.68218 1.33331 4.95832 1.33331H11.0417C11.3178 1.33331 11.5417 1.55717 11.5417 1.83331C11.5417 2.10946 11.3178 2.33331 11.0417 2.33331H10.6667V5.87134L14.0834 12.0721C14.7261 13.2384 13.8823 14.6666 12.5507 14.6666H3.4493C2.11764 14.6666 1.27392 13.2384 1.91659 12.0721L5.33333 5.87134ZM9.66666 2.33331H6.33333V5.99998C6.33333 6.08436 6.31197 6.16738 6.27124 6.24128L4.75115 8.99998H11.2488L9.72874 6.24128C9.68802 6.16738 9.66666 6.08436 9.66666 5.99998V2.33331ZM2.79243 12.5547L4.20013 9.99998H11.7999L13.2076 12.5547C13.483 13.0545 13.1214 13.6666 12.5507 13.6666H3.4493C2.87859 13.6666 2.517 13.0545 2.79243 12.5547Z" fill="black"/>
</svg>
