<svg width="16" height="16" viewBox="0 0 16 16" fill="none" xmlns="http://www.w3.org/2000/svg">
<path d="M3.33325 4.66663C3.33325 2.37693 5.54557 0.666626 7.99992 0.666626C10.4543 0.666626 12.6666 2.37693 12.6666 4.66663V7.69256C12.6666 8.12031 12.7932 8.53849 13.0305 8.89441L14.4967 11.0937C14.6075 11.2599 14.6666 11.4552 14.6666 11.6549C14.6666 12.2137 14.2136 12.6666 13.6549 12.6666H2.34498C1.78622 12.6666 1.33325 12.2137 1.33325 11.6549C1.33325 11.4552 1.39238 11.2599 1.50317 11.0937L2.96936 8.89441C3.20664 8.53849 3.33325 8.12031 3.33325 7.69256V4.66663Z" fill="#00CF7F"/>
<path d="M7.99997 15C6.94297 15 6.05011 14.2971 5.76327 13.3333H10.2367C9.94983 14.2971 9.05698 15 7.99997 15Z" fill="#00CF7F"/>
</svg>
