<svg width="16" height="16" viewBox="0 0 16 16" fill="none" xmlns="http://www.w3.org/2000/svg">
<path fill-rule="evenodd" clip-rule="evenodd" d="M0 2.5C0 2.22386 0.223858 2 0.5 2H5.49791C6.54202 2 7.46162 2.53341 7.99896 3.34267C8.53627 2.53345 9.45584 2 10.5 2H15.5C15.7761 2 16 2.22386 16 2.5V12.5417C16 12.6749 15.9469 12.8026 15.8524 12.8964C15.7579 12.9903 15.6298 13.0426 15.4966 13.0417L10.3754 13.0071C9.84027 13.0034 9.32603 13.2144 8.94764 13.5928L8.35355 14.1869C8.15829 14.3821 7.84171 14.3821 7.64645 14.1869L7.04535 13.5858C6.67027 13.2107 6.16157 13 5.63113 13H0.5C0.223858 13 0 12.7761 0 12.5V2.5ZM7.49791 4.99833C7.49699 3.89442 6.60183 3 5.49791 3H1V12H5.63113C6.31331 12 6.97153 12.2323 7.5 12.6532L7.49791 4.99833ZM8.5 12.6547V5C8.5 3.89543 9.39543 3 10.5 3H15V12.0383L10.3821 12.0071C9.69597 12.0024 9.03267 12.233 8.5 12.6547Z" fill="white"/>
</svg>
