<svg width="16" height="16" viewBox="0 0 16 16" fill="none" xmlns="http://www.w3.org/2000/svg">
<path fill-rule="evenodd" clip-rule="evenodd" d="M4.99996 1.16667C4.99996 0.522667 5.52263 0 6.16663 0H9.83329C10.4773 0 11 0.522667 11 1.16667V2.66667H14.1666C14.8106 2.66667 15.3333 3.18933 15.3333 3.83333V13.5C15.3333 13.8094 15.2104 14.1062 14.9916 14.325C14.7728 14.5438 14.476 14.6667 14.1666 14.6667H1.83329C1.52387 14.6667 1.22713 14.5438 1.00833 14.325C0.789542 14.1062 0.666626 13.8094 0.666626 13.5V3.83333C0.666626 3.18933 1.18929 2.66667 1.83329 2.66667H4.99996V1.16667ZM1.66663 7.99333V13.5C1.66663 13.592 1.74129 13.6667 1.83329 13.6667H14.1666C14.2108 13.6667 14.2532 13.6491 14.2845 13.6179C14.3157 13.5866 14.3333 13.5442 14.3333 13.5V7.99333C13.8218 8.42884 13.1717 8.66759 12.5 8.66667H3.49996C2.82818 8.66759 2.17811 8.42884 1.66663 7.99333ZM14.3333 5.83333C14.3333 6.31956 14.1401 6.78588 13.7963 7.1297C13.4525 7.47351 12.9862 7.66667 12.5 7.66667H3.49996C3.01373 7.66667 2.54741 7.47351 2.2036 7.1297C1.85978 6.78588 1.66663 6.31956 1.66663 5.83333V3.83333C1.66663 3.78913 1.68419 3.74674 1.71544 3.71548C1.7467 3.68423 1.78909 3.66667 1.83329 3.66667H14.1666C14.2108 3.66667 14.2532 3.68423 14.2845 3.71548C14.3157 3.74674 14.3333 3.78913 14.3333 3.83333V5.83333ZM9.99996 1.16667V2.66667H5.99996V1.16667C5.99996 1.12246 6.01752 1.08007 6.04877 1.04882C6.08003 1.01756 6.12242 1 6.16663 1H9.83329C9.87749 1 9.91989 1.01756 9.95114 1.04882C9.9824 1.08007 9.99996 1.12246 9.99996 1.16667Z" fill="#00CF7F"/>
</svg>
