<svg width="16" height="16" viewBox="0 0 16 16" fill="none" xmlns="http://www.w3.org/2000/svg">
<path d="M2.33337 2.49999C2.33337 2.40795 2.40799 2.33333 2.50004 2.33333H11.5C11.5921 2.33333 11.6667 2.40795 11.6667 2.49999V9.16666C11.6667 9.4428 11.8906 9.66666 12.1667 9.66666C12.4428 9.66666 12.6667 9.4428 12.6667 9.16666V2.49999C12.6667 1.85566 12.1444 1.33333 11.5 1.33333H2.50004C1.85571 1.33333 1.33337 1.85566 1.33337 2.49999V13.5C1.33337 14.1443 1.85571 14.6667 2.50004 14.6667H7.16671C7.44285 14.6667 7.66671 14.4428 7.66671 14.1667C7.66671 13.8905 7.44285 13.6667 7.16671 13.6667H2.50004C2.40799 13.6667 2.33337 13.592 2.33337 13.5V2.49999Z" fill="black"/>
<path d="M4.16671 4.66666C3.89056 4.66666 3.66671 4.89052 3.66671 5.16666C3.66671 5.4428 3.89056 5.66666 4.16671 5.66666H9.83337C10.1095 5.66666 10.3334 5.4428 10.3334 5.16666C10.3334 4.89052 10.1095 4.66666 9.83337 4.66666H4.16671Z" fill="black"/>
<path d="M3.66671 7.83333C3.66671 7.55719 3.89056 7.33333 4.16671 7.33333H7.16671C7.44285 7.33333 7.66671 7.55719 7.66671 7.83333C7.66671 8.10947 7.44285 8.33333 7.16671 8.33333H4.16671C3.89056 8.33333 3.66671 8.10947 3.66671 7.83333Z" fill="black"/>
<path d="M14.5203 10.8535C14.7155 10.6583 14.7155 10.3417 14.5203 10.1464C14.325 9.95118 14.0084 9.95118 13.8132 10.1464L10.5 13.4596L9.18693 12.1464C8.99167 11.9512 8.67508 11.9512 8.47982 12.1464C8.28456 12.3417 8.28456 12.6583 8.47982 12.8535L10.1465 14.5202C10.3417 14.7155 10.6583 14.7155 10.8536 14.5202L14.5203 10.8535Z" fill="black"/>
</svg>
