<svg width="16" height="16" viewBox="0 0 16 16" fill="none" xmlns="http://www.w3.org/2000/svg">
<path fill-rule="evenodd" clip-rule="evenodd" d="M0.666626 7.99996C0.666626 3.94987 3.94987 0.666626 7.99996 0.666626C12.05 0.666626 15.3333 3.94987 15.3333 7.99996C15.3333 12.05 12.05 15.3333 7.99996 15.3333C3.94987 15.3333 0.666626 12.05 0.666626 7.99996ZM11.5202 6.18685C11.7154 5.99158 11.7154 5.675 11.5202 5.47974C11.3249 5.28448 11.0083 5.28448 10.8131 5.47974L6.83329 9.45952L5.18685 7.81307C4.99158 7.61781 4.675 7.61781 4.47974 7.81307C4.28448 8.00833 4.28448 8.32492 4.47974 8.52018L6.47974 10.5202C6.675 10.7154 6.99158 10.7154 7.18685 10.5202L11.5202 6.18685Z" fill="white"/>
</svg>
