<svg width="16" height="16" viewBox="0 0 16 16" fill="none" xmlns="http://www.w3.org/2000/svg">
<path fill-rule="evenodd" clip-rule="evenodd" d="M7.99996 1.66666C4.50216 1.66666 1.66663 4.50219 1.66663 7.99999C1.66663 11.4978 4.50216 14.3333 7.99996 14.3333C11.4978 14.3333 14.3333 11.4978 14.3333 7.99999C14.3333 4.50219 11.4978 1.66666 7.99996 1.66666ZM0.666626 7.99999C0.666626 3.9499 3.94987 0.666656 7.99996 0.666656C12.05 0.666656 15.3333 3.9499 15.3333 7.99999C15.3333 12.0501 12.05 15.3333 7.99996 15.3333C3.94987 15.3333 0.666626 12.0501 0.666626 7.99999Z" fill="black"/>
<path d="M8.49996 10.3376L10.8228 8.13701C11.0232 7.9471 11.3397 7.95565 11.5296 8.15612C11.7195 8.35658 11.711 8.67305 11.5105 8.86297L8.34383 11.863C8.15098 12.0457 7.84894 12.0457 7.65609 11.863L4.48942 8.86297C4.28895 8.67305 4.2804 8.35658 4.47032 8.15612C4.66023 7.95565 4.9767 7.9471 5.17717 8.13701L7.49996 10.3376V4.83332C7.49996 4.55718 7.72382 4.33332 7.99996 4.33332C8.2761 4.33332 8.49996 4.55718 8.49996 4.83332V10.3376Z" fill="black"/>
</svg>
