<svg width="16" height="16" viewBox="0 0 16 16" fill="none" xmlns="http://www.w3.org/2000/svg">
<g opacity="0.5">
<path d="M8.50008 3.83329C8.50008 3.55715 8.27622 3.33329 8.00008 3.33329C7.72394 3.33329 7.50008 3.55715 7.50008 3.83329V7.49996H3.83341C3.55727 7.49996 3.33341 7.72382 3.33341 7.99996C3.33341 8.2761 3.55727 8.49996 3.83341 8.49996H7.50008V12.1666C7.50008 12.4428 7.72394 12.6666 8.00008 12.6666C8.27622 12.6666 8.50008 12.4428 8.50008 12.1666V8.49996H12.1667C12.4429 8.49996 12.6667 8.2761 12.6667 7.99996C12.6667 7.72382 12.4429 7.49996 12.1667 7.49996H8.50008V3.83329Z" fill="black"/>
<path fill-rule="evenodd" clip-rule="evenodd" d="M8.00008 0.666626C3.94999 0.666626 0.666748 3.94987 0.666748 7.99996C0.666748 12.05 3.94999 15.3333 8.00008 15.3333C12.0502 15.3333 15.3334 12.05 15.3334 7.99996C15.3334 3.94987 12.0502 0.666626 8.00008 0.666626ZM1.66675 7.99996C1.66675 4.50216 4.50228 1.66663 8.00008 1.66663C11.4979 1.66663 14.3334 4.50216 14.3334 7.99996C14.3334 11.4978 11.4979 14.3333 8.00008 14.3333C4.50228 14.3333 1.66675 11.4978 1.66675 7.99996Z" fill="black"/>
</g>
</svg>
