<svg width="16" height="16" viewBox="0 0 16 16" fill="none" xmlns="http://www.w3.org/2000/svg">
<path fill-rule="evenodd" clip-rule="evenodd" d="M7.99984 1.66675C4.50203 1.66675 1.6665 4.50228 1.6665 8.00008C1.6665 11.4979 4.50203 14.3334 7.99984 14.3334C11.4976 14.3334 14.3332 11.4979 14.3332 8.00008C14.3332 4.50228 11.4976 1.66675 7.99984 1.66675ZM0.666504 8.00008C0.666504 3.94999 3.94975 0.666748 7.99984 0.666748C12.0499 0.666748 15.3332 3.94999 15.3332 8.00008C15.3332 12.0502 12.0499 15.3334 7.99984 15.3334C3.94975 15.3334 0.666504 12.0502 0.666504 8.00008Z" fill="black"/>
<path d="M8.49984 5.66251L10.8226 7.86306C11.0231 8.05297 11.3396 8.04442 11.5295 7.84395C11.7194 7.64349 11.7108 7.32702 11.5104 7.1371L8.34371 4.13711C8.15086 3.95441 7.84881 3.95441 7.65597 4.13711L4.4893 7.1371C4.28883 7.32702 4.28028 7.64349 4.4702 7.84395C4.66011 8.04442 4.97658 8.05297 5.17704 7.86306L7.49984 5.66252V11.1667C7.49984 11.4429 7.72369 11.6667 7.99984 11.6667C8.27598 11.6667 8.49984 11.4429 8.49984 11.1667V5.66251Z" fill="black"/>
</svg>
