<svg width="16" height="16" viewBox="0 0 16 16" fill="none" xmlns="http://www.w3.org/2000/svg">
<path fill-rule="evenodd" clip-rule="evenodd" d="M7.99984 1.66675C4.50203 1.66675 1.6665 4.50228 1.6665 8.00008C1.6665 11.4979 4.50203 14.3334 7.99984 14.3334C11.4976 14.3334 14.3332 11.4979 14.3332 8.00008C14.3332 4.50228 11.4976 1.66675 7.99984 1.66675ZM0.666504 8.00008C0.666504 3.94999 3.94975 0.666748 7.99984 0.666748C12.0499 0.666748 15.3332 3.94999 15.3332 8.00008C15.3332 12.0502 12.0499 15.3334 7.99984 15.3334C3.94975 15.3334 0.666504 12.0502 0.666504 8.00008Z" fill="#646669"/>
<path d="M8.49984 10.3376L10.8226 8.1371C11.0231 7.94719 11.3396 7.95574 11.5295 8.15621C11.7194 8.35668 11.7108 8.67314 11.5104 8.86306L8.34371 11.8631C8.15086 12.0458 7.84881 12.0458 7.65597 11.8631L4.4893 8.86306C4.28883 8.67314 4.28028 8.35668 4.4702 8.15621C4.66011 7.95574 4.97658 7.94719 5.17704 8.1371L7.49984 10.3376V4.83341C7.49984 4.55727 7.72369 4.33341 7.99984 4.33341C8.27598 4.33341 8.49984 4.55727 8.49984 4.83341V10.3376Z" fill="#646669"/>
</svg>
