<svg width="16" height="16" viewBox="0 0 16 16" fill="none" xmlns="http://www.w3.org/2000/svg">
<g opacity="0.5">
<path fill-rule="evenodd" clip-rule="evenodd" d="M0.666672 7.99999C0.666672 3.9499 3.94992 0.666656 8 0.666656C12.0501 0.666656 15.3333 3.9499 15.3333 7.99999C15.3333 12.0501 12.0501 15.3333 8 15.3333C3.94992 15.3333 0.666672 12.0501 0.666672 7.99999ZM6.02433 5.31717C5.82907 5.12191 5.51249 5.12191 5.31723 5.31717C5.12197 5.51243 5.12197 5.82902 5.31723 6.02428L7.29284 7.99989L5.31723 9.9755C5.12197 10.1708 5.12197 10.4873 5.31723 10.6826C5.51249 10.8779 5.82907 10.8779 6.02433 10.6826L7.99995 8.707L9.97556 10.6826C10.1708 10.8779 10.4874 10.8779 10.6827 10.6826C10.8779 10.4873 10.8779 10.1708 10.6827 9.9755L8.70705 7.99989L10.6827 6.02428C10.8779 5.82902 10.8779 5.51243 10.6827 5.31717C10.4874 5.12191 10.1708 5.12191 9.97556 5.31717L7.99995 7.29279L6.02433 5.31717Z" fill="#A9A9A9"/>
</g>
</svg>
