<svg width="16" height="16" viewBox="0 0 16 16" fill="none" xmlns="http://www.w3.org/2000/svg">
<path fill-rule="evenodd" clip-rule="evenodd" d="M0.666748 7.99996C0.666748 3.94987 3.94999 0.666626 8.00008 0.666626C12.0502 0.666626 15.3334 3.94987 15.3334 7.99996C15.3334 12.05 12.0502 15.3333 8.00008 15.3333C3.94999 15.3333 0.666748 12.05 0.666748 7.99996ZM11.5203 6.18685C11.7156 5.99158 11.7156 5.675 11.5203 5.47974C11.325 5.28448 11.0085 5.28448 10.8132 5.47974L6.83341 9.45952L5.18697 7.81307C4.99171 7.61781 4.67512 7.61781 4.47986 7.81307C4.2846 8.00833 4.2846 8.32492 4.47986 8.52018L6.47986 10.5202C6.67512 10.7154 6.99171 10.7154 7.18697 10.5202L11.5203 6.18685Z" fill="#1781F4"/>
</svg>
