<svg width="16" height="16" viewBox="0 0 16 16" fill="none" xmlns="http://www.w3.org/2000/svg">
<path fill-rule="evenodd" clip-rule="evenodd" d="M2.81451 2.81463C5.67835 -0.0492131 10.3216 -0.0492131 13.1854 2.81463C16.0493 5.67848 16.0493 10.3217 13.1854 13.1855C10.3216 16.0494 5.67835 16.0494 2.81451 13.1855C-0.0493353 10.3217 -0.0493353 5.67848 2.81451 2.81463ZM8.49999 4.70603C8.49999 4.42989 8.27613 4.20603 7.99999 4.20603C7.72385 4.20603 7.49999 4.42989 7.49999 4.70603L7.49999 7.49997H4.70605C4.42991 7.49997 4.20605 7.72383 4.20605 7.99997C4.20605 8.27611 4.42991 8.49997 4.70605 8.49997H7.49999V11.2939C7.49999 11.5701 7.72384 11.7939 7.99999 11.7939C8.27613 11.7939 8.49999 11.5701 8.49999 11.2939V8.49997H11.2939C11.5701 8.49997 11.7939 8.27611 11.7939 7.99997C11.7939 7.72383 11.5701 7.49997 11.2939 7.49997H8.49999V4.70603Z" fill="black"/>
</svg>
