<svg width="16" height="16" viewBox="0 0 16 16" fill="none" xmlns="http://www.w3.org/2000/svg">
<path d="M12.4784 8.49996C12.7546 8.49996 12.9784 8.2761 12.9784 7.99996C12.9784 7.72382 12.7546 7.49996 12.4784 7.49996H3.52174C3.2456 7.49996 3.02174 7.72382 3.02174 7.99996C3.02174 8.2761 3.2456 8.49996 3.52174 8.49996H12.4784Z" fill="black"/>
<path fill-rule="evenodd" clip-rule="evenodd" d="M13.1855 2.81451C10.3217 -0.0493351 5.67848 -0.0493351 2.81463 2.81451C-0.049213 5.67835 -0.049213 10.3216 2.81463 13.1854C5.67848 16.0493 10.3217 16.0493 13.1855 13.1854C16.0494 10.3216 16.0494 5.67835 13.1855 2.81451ZM3.52174 3.52162C5.99506 1.0483 10.0051 1.0483 12.4784 3.52162C14.9517 5.99494 14.9517 10.005 12.4784 12.4783C10.0051 14.9516 5.99506 14.9516 3.52174 12.4783C1.04842 10.005 1.04842 5.99494 3.52174 3.52162Z" fill="black"/>
</svg>
