<svg width="16" height="16" viewBox="0 0 16 16" fill="none" xmlns="http://www.w3.org/2000/svg">
<path fill-rule="evenodd" clip-rule="evenodd" d="M2.81463 2.81456C5.67848 -0.0492894 10.3217 -0.0492894 13.1855 2.81456C16.0494 5.6784 16.0494 10.3216 13.1855 13.1855C10.3217 16.0493 5.67848 16.0493 2.81463 13.1855C-0.0492132 10.3216 -0.0492132 5.6784 2.81463 2.81456ZM8.50011 4.70596C8.50011 4.42981 8.27625 4.20596 8.00011 4.20596C7.72397 4.20596 7.50011 4.42981 7.50011 4.70596L7.50011 7.49989H4.70617C4.43003 7.49989 4.20617 7.72375 4.20617 7.99989C4.20617 8.27604 4.43003 8.49989 4.70617 8.49989H7.50011V11.2938C7.50011 11.57 7.72397 11.7938 8.00011 11.7938C8.27625 11.7938 8.50011 11.57 8.50011 11.2938V8.49989H11.294C11.5702 8.49989 11.794 8.27604 11.794 7.99989C11.794 7.72375 11.5702 7.49989 11.294 7.49989H8.50011V4.70596Z" fill="#1781F4"/>
</svg>
