<svg width="12" height="12" viewBox="0 0 12 12" fill="none" xmlns="http://www.w3.org/2000/svg">
<path d="M9.35876 6.375C9.56586 6.375 9.73376 6.20711 9.73376 6C9.73376 5.79289 9.56586 5.625 9.35876 5.625H2.64124C2.43414 5.625 2.26624 5.79289 2.26624 6C2.26624 6.20711 2.43414 6.375 2.64124 6.375H9.35876Z" fill="white"/>
<path fill-rule="evenodd" clip-rule="evenodd" d="M9.88909 2.11091C7.7412 -0.0369708 4.2588 -0.0369708 2.11091 2.11091C-0.0369708 4.2588 -0.0369708 7.7412 2.11091 9.88909C4.2588 12.037 7.7412 12.037 9.88909 9.88909C12.037 7.7412 12.037 4.2588 9.88909 2.11091ZM2.64124 2.64124C4.49623 0.786252 7.50377 0.786252 9.35876 2.64124C11.2137 4.49623 11.2137 7.50377 9.35876 9.35876C7.50377 11.2137 4.49623 11.2137 2.64124 9.35876C0.786252 7.50377 0.786253 4.49623 2.64124 2.64124Z" fill="white"/>
</svg>
