<svg width="16" height="16" viewBox="0 0 16 16" fill="none" xmlns="http://www.w3.org/2000/svg">
<path d="M8.49996 3.83332C8.49996 3.55718 8.2761 3.33332 7.99996 3.33332C7.72382 3.33332 7.49996 3.55718 7.49996 3.83332V7.49999H3.83329C3.55715 7.49999 3.33329 7.72385 3.33329 7.99999C3.33329 8.27613 3.55715 8.49999 3.83329 8.49999H7.49996V12.1667C7.49996 12.4428 7.72382 12.6667 7.99996 12.6667C8.2761 12.6667 8.49996 12.4428 8.49996 12.1667V8.49999H12.1666C12.4428 8.49999 12.6666 8.27613 12.6666 7.99999C12.6666 7.72385 12.4428 7.49999 12.1666 7.49999H8.49996V3.83332Z" fill="black"/>
<path fill-rule="evenodd" clip-rule="evenodd" d="M7.99996 0.666656C3.94987 0.666656 0.666626 3.9499 0.666626 7.99999C0.666626 12.0501 3.94987 15.3333 7.99996 15.3333C12.05 15.3333 15.3333 12.0501 15.3333 7.99999C15.3333 3.9499 12.05 0.666656 7.99996 0.666656ZM1.66663 7.99999C1.66663 4.50219 4.50216 1.66666 7.99996 1.66666C11.4978 1.66666 14.3333 4.50219 14.3333 7.99999C14.3333 11.4978 11.4978 14.3333 7.99996 14.3333C4.50216 14.3333 1.66663 11.4978 1.66663 7.99999Z" fill="black"/>
</svg>
