<svg width="16" height="16" viewBox="0 0 16 16" fill="none" xmlns="http://www.w3.org/2000/svg">
<path d="M8.33317 4.83332C8.33317 4.55718 8.10931 4.33332 7.83317 4.33332C7.55703 4.33332 7.33317 4.55718 7.33317 4.83332V8.49999C7.33317 8.67942 7.42931 8.84509 7.5851 8.93411L9.91843 10.2674C10.1582 10.4044 10.4636 10.3212 10.6006 10.0814C10.7376 9.84163 10.6543 9.53621 10.4146 9.3992L8.33317 8.20983V4.83332Z" fill="black"/>
<path fill-rule="evenodd" clip-rule="evenodd" d="M7.99984 0.666656C3.94975 0.666656 0.666504 3.9499 0.666504 7.99999C0.666504 12.0501 3.94975 15.3333 7.99984 15.3333C12.0499 15.3333 15.3332 12.0501 15.3332 7.99999C15.3332 3.9499 12.0499 0.666656 7.99984 0.666656ZM1.6665 7.99999C1.6665 4.50219 4.50203 1.66666 7.99984 1.66666C11.4976 1.66666 14.3332 4.50219 14.3332 7.99999C14.3332 11.4978 11.4976 14.3333 7.99984 14.3333C4.50203 14.3333 1.6665 11.4978 1.6665 7.99999Z" fill="black"/>
</svg>
