<svg width="16" height="16" viewBox="0 0 16 16" fill="none" xmlns="http://www.w3.org/2000/svg">
<path d="M10.0202 5.52022C10.2155 5.32496 10.2155 5.00838 10.0202 4.81311C9.82496 4.61785 9.50837 4.61785 9.31311 4.81311L5.83333 8.29289L4.35355 6.81311C4.15829 6.61785 3.84171 6.61785 3.64645 6.81311C3.45118 7.00838 3.45118 7.32496 3.64645 7.52022L5.47978 9.35355C5.67504 9.54881 5.99162 9.54881 6.18689 9.35355L10.0202 5.52022Z" fill="white"/>
<path fill-rule="evenodd" clip-rule="evenodd" d="M0 7C0 3.13401 3.13401 0 7 0C10.866 0 14 3.13401 14 7C14 8.75304 13.3556 10.3556 12.2907 11.5836L15.1869 14.4798C15.3821 14.675 15.3821 14.9916 15.1869 15.1869C14.9916 15.3821 14.675 15.3821 14.4798 15.1869L11.5836 12.2907C10.3556 13.3556 8.75304 14 7 14C3.13401 14 0 10.866 0 7ZM7 1C3.68629 1 1 3.68629 1 7C1 10.3137 3.68629 13 7 13C10.3137 13 13 10.3137 13 7C13 3.68629 10.3137 1 7 1Z" fill="white"/>
</svg>
