<svg width="16" height="17" viewBox="0 0 16 17" fill="none" xmlns="http://www.w3.org/2000/svg">
<path fill-rule="evenodd" clip-rule="evenodd" d="M1.5 5.83317C1.5 4.08427 2.91777 2.6665 4.66667 2.6665H11.3333C13.0822 2.6665 14.5 4.08427 14.5 5.83317V9.83317C14.5 11.5821 13.0822 12.9998 11.3333 12.9998H5C4.89181 12.9998 4.78655 13.0349 4.7 13.0998L1.5 15.4998V5.83317ZM4.66667 3.6665C3.47005 3.6665 2.5 4.63655 2.5 5.83317V13.4998L4.1 12.2998C4.35964 12.1051 4.67544 11.9998 5 11.9998H11.3333C12.53 11.9998 13.5 11.0298 13.5 9.83317V5.83317C13.5 4.63655 12.53 3.6665 11.3333 3.6665H4.66667Z" fill="#646669"/>
</svg>
