<svg width="16" height="16" viewBox="0 0 16 16" fill="none" xmlns="http://www.w3.org/2000/svg">
<path fill-rule="evenodd" clip-rule="evenodd" d="M3.47312 0.833374H9.198C9.55386 0.838051 9.9052 0.913887 10.2313 1.05634C10.5575 1.19878 10.8519 1.40501 11.0971 1.6629C11.3424 1.92078 11.5336 2.2251 11.6596 2.55797C11.7844 2.88781 11.8425 3.23908 11.8308 3.59147V6.58182C11.8308 7.40202 11.6372 8.11059 11.1597 8.61319C10.6776 9.12062 9.98956 9.33115 9.19143 9.33115H3.63091L0.833757 11.2918V3.59147C0.822011 3.23907 0.880195 2.88781 1.00498 2.55797C1.13092 2.2251 1.32215 1.92078 1.56742 1.6629C1.8127 1.40502 2.10706 1.19879 2.43321 1.05634C2.75935 0.913886 3.11069 0.838094 3.46655 0.833417L3.47312 0.833374ZM1.33376 3.58271H1.83376V9.36965L3.31534 8.33115H9.19143C9.82287 8.33115 10.2045 8.16679 10.4347 7.92444C10.6695 7.67727 10.8308 7.26117 10.8308 6.58182V3.57347L10.8311 3.56423C10.8394 3.34181 10.803 3.12 10.7243 2.91183C10.6455 2.70366 10.5259 2.51334 10.3725 2.35207C10.2191 2.1908 10.0351 2.06182 9.83109 1.97274C9.62806 1.88406 9.40943 1.83669 9.18793 1.83337H3.47662C3.25512 1.83669 3.03649 1.88406 2.83346 1.97274C2.6295 2.06182 2.44541 2.1908 2.29202 2.35207C2.13863 2.51334 2.01904 2.70366 1.94028 2.91183C1.86153 3.12 1.82519 3.34181 1.83342 3.56423L1.33376 3.58271Z" fill="#646669"/>
<path fill-rule="evenodd" clip-rule="evenodd" d="M12.5219 5.83337H11.0424V4.83337H12.532C12.8879 4.83805 13.2393 4.9139 13.5655 5.05636C13.8917 5.19883 14.1861 5.40508 14.4314 5.663C14.6767 5.92091 14.8679 6.22527 14.9939 6.55818C15.1187 6.88806 15.1769 7.23937 15.1651 7.59181V15.2931L12.3677 13.3323H6.80629C6.00805 13.3323 5.31989 13.1217 4.83778 12.6142C4.36025 12.1116 4.16661 11.4029 4.16661 10.5826V9.08282H5.16661V10.5826C5.16661 11.2621 5.32791 11.6782 5.56278 11.9255C5.79306 12.1679 6.17474 12.3323 6.80629 12.3323H12.6832L14.1651 13.371V7.5738L14.1655 7.56456C14.1737 7.3421 14.1373 7.12025 14.0586 6.91204C13.9798 6.70383 13.8602 6.51347 13.7068 6.35217C13.5534 6.19086 13.3692 6.06187 13.1652 5.97277C12.9622 5.88407 12.7435 5.83669 12.5219 5.83337Z" fill="#646669"/>
</svg>
