<svg width="24" height="24" viewBox="0 0 24 24" fill="none" xmlns="http://www.w3.org/2000/svg">
<path fill-rule="evenodd" clip-rule="evenodd" d="M5.20981 1.25H13.7971C14.3309 1.25702 14.8579 1.37077 15.3471 1.58444C15.8364 1.79812 16.2779 2.10746 16.6458 2.49428C17.0137 2.8811 17.3006 3.33759 17.4895 3.83689C17.6767 4.33165 17.7639 4.85855 17.7463 5.38715V9.87267C17.7463 11.103 17.4559 12.1658 16.7397 12.9197C16.0166 13.6809 14.9845 13.9967 13.7873 13.9967H5.44648L1.25076 16.9376V5.38714C1.23314 4.85855 1.32041 4.33165 1.5076 3.83689C1.6965 3.33759 1.98335 2.8811 2.35126 2.49428C2.71917 2.10746 3.16072 1.79812 3.64993 1.58444C4.13915 1.37077 4.66615 1.25708 5.19995 1.25006L5.20981 1.25ZM2.00076 5.374H2.75076V14.0544L4.97313 12.4967H13.7873C14.7344 12.4967 15.3068 12.2501 15.6522 11.8866C16.0044 11.5158 16.2463 10.8917 16.2463 9.87267V5.36014L16.2468 5.34629C16.2592 5.01266 16.2047 4.67994 16.0865 4.36768C15.9684 4.05543 15.789 3.76995 15.5589 3.52804C15.3288 3.28613 15.0527 3.09267 14.7468 2.95905C14.4422 2.82604 14.1143 2.75498 13.782 2.75H5.21506C4.88281 2.75498 4.55485 2.82604 4.25032 2.95905C3.94437 3.09267 3.66824 3.28613 3.43815 3.52804C3.20807 3.76995 3.02869 4.05543 2.91055 4.36768C2.79241 4.67994 2.73791 5.01266 2.75025 5.34629L2.00076 5.374Z" fill="white"/>
<path fill-rule="evenodd" clip-rule="evenodd" d="M18.783 8.75H16.5638V7.25H18.7981C19.332 7.25702 19.8591 7.37078 20.3483 7.58448C20.8376 7.79818 21.2792 8.10757 21.6472 8.49443C22.0151 8.8813 22.302 9.33784 22.4909 9.83721C22.6781 10.332 22.7654 10.859 22.7478 11.3876V22.9396L18.5516 19.9983H10.2096C9.0122 19.9983 7.97996 19.6825 7.25679 18.9213C6.5405 18.1673 6.25003 17.1043 6.25003 15.8738V13.6242H7.75003V15.8738C7.75003 16.893 7.99198 17.5173 8.34429 17.8881C8.68971 18.2518 9.26223 18.4983 10.2096 18.4983H19.025L21.2478 20.0564V11.3606L21.2483 11.3468C21.2607 11.0131 21.2061 10.6803 21.088 10.368C20.9698 10.0557 20.7904 9.77015 20.5603 9.52819C20.3302 9.28624 20.054 9.09274 19.748 8.95909C19.4434 8.82605 19.1153 8.75498 18.783 8.75Z" fill="white"/>
</svg>
