<svg width="16" height="17" viewBox="0 0 16 17" fill="none" xmlns="http://www.w3.org/2000/svg">
<path d="M6.83335 3.99984C6.83335 3.72369 7.05721 3.49984 7.33335 3.49984H8.66669C8.94283 3.49984 9.16669 3.72369 9.16669 3.99984C9.16669 4.27598 8.94283 4.49984 8.66669 4.49984H7.33335C7.05721 4.49984 6.83335 4.27598 6.83335 3.99984Z" fill="#646669"/>
<path d="M8.00002 13.4998C8.36821 13.4998 8.66669 13.2014 8.66669 12.8332C8.66669 12.465 8.36821 12.1665 8.00002 12.1665C7.63183 12.1665 7.33335 12.465 7.33335 12.8332C7.33335 13.2014 7.63183 13.4998 8.00002 13.4998Z" fill="#646669"/>
<path fill-rule="evenodd" clip-rule="evenodd" d="M2.66669 2.33317C2.66669 1.68884 3.18902 1.1665 3.83335 1.1665H12.1667C12.811 1.1665 13.3334 1.68884 13.3334 2.33317V14.6665C13.3334 15.3108 12.811 15.8332 12.1667 15.8332H3.83335C3.18902 15.8332 2.66669 15.3108 2.66669 14.6665V2.33317ZM3.83335 2.1665C3.74131 2.1665 3.66669 2.24112 3.66669 2.33317V14.6665C3.66669 14.7586 3.74131 14.8332 3.83335 14.8332H12.1667C12.2587 14.8332 12.3334 14.7586 12.3334 14.6665V2.33317C12.3334 2.24112 12.2587 2.1665 12.1667 2.1665H3.83335Z" fill="#646669"/>
</svg>
