<svg width="16" height="16" viewBox="0 0 16 16" fill="none" xmlns="http://www.w3.org/2000/svg">
<path d="M5.63758 11.3791C5.85744 11.544 6.1689 11.5005 6.33519 11.2823C6.33982 11.2765 6.3446 11.2708 6.34943 11.2651C6.36329 11.249 6.38685 11.2226 6.42004 11.1894C6.48666 11.1228 6.59037 11.0303 6.73055 10.9368C7.00899 10.7512 7.42973 10.5625 8.00008 10.5625C8.57042 10.5625 8.99117 10.7512 9.2696 10.9368C9.40978 11.0303 9.5135 11.1228 9.58012 11.1894C9.6133 11.2226 9.63686 11.249 9.65072 11.2651C9.65556 11.2708 9.66034 11.2765 9.66496 11.2823C9.83126 11.5005 10.1427 11.544 10.3626 11.3791C10.5835 11.2134 10.6283 10.9 10.4626 10.6791L10.445 10.6565C10.4362 10.6455 10.4245 10.6313 10.41 10.6143C10.3809 10.5804 10.34 10.5351 10.2872 10.4823C10.182 10.3771 10.0279 10.2405 9.8243 10.1048C9.41524 9.83206 8.80473 9.56246 8.00008 9.56246C7.19542 9.56246 6.58492 9.83206 6.17585 10.1048C5.97228 10.2405 5.81819 10.3771 5.71293 10.4823C5.63378 10.5615 5.58144 10.6237 5.5552 10.6565C5.38302 10.8774 5.40653 11.2058 5.63758 11.3791Z" fill="#ED5F5E"/>
<path fill-rule="evenodd" clip-rule="evenodd" d="M8.00008 0.666626C3.94999 0.666626 0.666748 3.94987 0.666748 7.99996C0.666748 12.05 3.94999 15.3333 8.00008 15.3333C12.0502 15.3333 15.3334 12.05 15.3334 7.99996C15.3334 3.94987 12.0502 0.666626 8.00008 0.666626ZM1.66675 7.99996C1.66675 4.50216 4.50228 1.66663 8.00008 1.66663C11.4979 1.66663 14.3334 4.50216 14.3334 7.99996C14.3334 11.4978 11.4979 14.3333 8.00008 14.3333C4.50228 14.3333 1.66675 11.4978 1.66675 7.99996Z" fill="#ED5F5E"/>
<path d="M6.00008 7.16663C6.00008 7.62686 5.62698 7.99996 5.16675 7.99996C4.70651 7.99996 4.33341 7.62686 4.33341 7.16663C4.33341 6.70639 4.70651 6.33329 5.16675 6.33329C5.62698 6.33329 6.00008 6.70639 6.00008 7.16663Z" fill="#ED5F5E"/>
<path d="M10.8334 7.99996C11.2937 7.99996 11.6667 7.62686 11.6667 7.16663C11.6667 6.70639 11.2937 6.33329 10.8334 6.33329C10.3732 6.33329 10.0001 6.70639 10.0001 7.16663C10.0001 7.62686 10.3732 7.99996 10.8334 7.99996Z" fill="#ED5F5E"/>
</svg>
