<svg width="24" height="24" viewBox="0 0 24 24" fill="none" xmlns="http://www.w3.org/2000/svg">
<path d="M10.65 14.85V12.495C10.65 12.4702 10.6299 12.45 10.605 12.45H9.45H8.295C8.27015 12.45 8.25 12.4702 8.25 12.495V14.85V17.25V19.605C8.25 19.6299 8.27015 19.65 8.295 19.65H9.45H10.605C10.6299 19.65 10.65 19.6299 10.65 19.605V17.25V14.85Z" fill="#1781F4" stroke="#1781F4" stroke-width="1.5" stroke-linecap="round"/>
<path d="M5.55001 16.75V15.345C5.55001 15.3201 5.52986 15.3 5.50501 15.3H4.35001H3.19501C3.17016 15.3 3.15001 15.3201 3.15001 15.345V16.75V18.2V19.605C3.15001 19.6298 3.17016 19.65 3.19501 19.65H4.35001H5.50501C5.52986 19.65 5.55001 19.6298 5.55001 19.605V18.2V16.75Z" stroke="#646669" stroke-width="1.5" stroke-linecap="round"/>
<path d="M15.75 12.55V9.045C15.75 9.02015 15.7298 9 15.705 9H14.55H13.395C13.3701 9 13.35 9.02015 13.35 9.045V12.55V16.1V19.605C13.35 19.6299 13.3701 19.65 13.395 19.65H14.55H15.705C15.7298 19.65 15.75 19.6299 15.75 19.605V16.1V12.55Z" stroke="#646669" stroke-width="1.5" stroke-linecap="round"/>
<path d="M20.85 10.65V6.19502C20.85 6.17017 20.8298 6.15002 20.805 6.15002H19.65H18.495C18.4701 6.15002 18.45 6.17017 18.45 6.19502V10.65V15.15V19.605C18.45 19.6299 18.4701 19.65 18.495 19.65H19.65H20.805C20.8298 19.65 20.85 19.6299 20.85 19.605V15.15V10.65Z" fill="#1781F4" stroke="#1781F4" stroke-width="1.5" stroke-linecap="round"/>
</svg>
