<svg width="16" height="16" viewBox="0 0 16 16" fill="none" xmlns="http://www.w3.org/2000/svg">
<path fill-rule="evenodd" clip-rule="evenodd" d="M1.33325 6.50004C1.33325 5.85571 1.85559 5.33337 2.49992 5.33337H4.16659C4.44273 5.33337 4.66659 5.55723 4.66659 5.83337C4.66659 6.10952 4.44273 6.33337 4.16659 6.33337H2.49992C2.40787 6.33337 2.33325 6.40799 2.33325 6.50004V13.5C2.33325 13.5921 2.40787 13.6667 2.49992 13.6667H9.49992C9.59197 13.6667 9.66659 13.5921 9.66659 13.5V11.8334C9.66659 11.5572 9.89044 11.3334 10.1666 11.3334C10.4427 11.3334 10.6666 11.5572 10.6666 11.8334V13.5C10.6666 14.1444 10.1443 14.6667 9.49992 14.6667H2.49992C1.85559 14.6667 1.33325 14.1444 1.33325 13.5V6.50004Z" fill="#646669"/>
<path fill-rule="evenodd" clip-rule="evenodd" d="M5.33325 2.50004C5.33325 1.85571 5.85559 1.33337 6.49992 1.33337H13.4999C14.1443 1.33337 14.6666 1.85571 14.6666 2.50004V9.50004C14.6666 10.1444 14.1443 10.6667 13.4999 10.6667H6.49992C5.85559 10.6667 5.33325 10.1444 5.33325 9.50004V2.50004ZM6.49992 2.33337C6.40787 2.33337 6.33325 2.40799 6.33325 2.50004V9.50004C6.33325 9.59209 6.40787 9.66671 6.49992 9.66671H13.4999C13.592 9.66671 13.6666 9.59209 13.6666 9.50004V2.50004C13.6666 2.40799 13.592 2.33337 13.4999 2.33337H6.49992Z" fill="#646669"/>
</svg>
