<svg width="16" height="16" viewBox="0 0 16 16" fill="none" xmlns="http://www.w3.org/2000/svg">
<path d="M13.1998 15.0667L10.3998 12.3C10.0109 12.4223 9.61939 12.514 9.22517 12.5754C8.8305 12.6363 8.42206 12.6667 7.99984 12.6667C6.32206 12.6667 4.82761 12.2029 3.5165 11.2754C2.20539 10.3474 1.25539 9.14448 0.666504 7.6667C0.899837 7.07781 1.19428 6.53048 1.54984 6.0247C1.90539 5.51937 2.31095 5.0667 2.7665 4.6667L0.933171 2.80003L1.8665 1.8667L14.1332 14.1334L13.1998 15.0667ZM7.99984 10.6667C8.12206 10.6667 8.23584 10.6611 8.34117 10.65C8.44695 10.6389 8.56095 10.6167 8.68317 10.5834L5.08317 6.98337C5.04984 7.10559 5.02761 7.21959 5.0165 7.32537C5.00539 7.4307 4.99984 7.54448 4.99984 7.6667C4.99984 8.50003 5.29139 9.20848 5.8745 9.79203C6.45806 10.3751 7.1665 10.6667 7.99984 10.6667ZM12.8665 10.9667L10.7498 8.8667C10.8276 8.67781 10.8887 8.48625 10.9332 8.29203C10.9776 8.09737 10.9998 7.88892 10.9998 7.6667C10.9998 6.83337 10.7083 6.12492 10.1252 5.54137C9.54161 4.95825 8.83317 4.6667 7.99984 4.6667C7.77761 4.6667 7.56917 4.68892 7.3745 4.73337C7.18028 4.77781 6.98873 4.84448 6.79984 4.93337L5.09984 3.23337C5.55539 3.04448 6.02206 2.9027 6.49984 2.80803C6.97761 2.71381 7.47761 2.6667 7.99984 2.6667C9.67761 2.6667 11.1721 3.13048 12.4832 4.05803C13.7943 4.98603 14.7443 6.18892 15.3332 7.6667C15.0776 8.32225 14.7416 8.9307 14.3252 9.49203C13.9083 10.0529 13.4221 10.5445 12.8665 10.9667ZM9.78317 7.90003L7.78317 5.90003C8.09428 5.84448 8.3805 5.86937 8.64184 5.9747C8.90273 6.08048 9.12761 6.23337 9.3165 6.43337C9.50539 6.63337 9.64161 6.86403 9.72517 7.12537C9.80828 7.38625 9.82761 7.64448 9.78317 7.90003Z" fill="#00CF7F"/>
</svg>
