<svg width="16" height="16" viewBox="0 0 16 16" fill="none" xmlns="http://www.w3.org/2000/svg">
<path d="M13.2003 15.0667L10.4003 12.3C10.0114 12.4223 9.61988 12.514 9.22566 12.5754C8.83099 12.6363 8.42255 12.6667 8.00033 12.6667C6.32255 12.6667 4.8281 12.2029 3.51699 11.2754C2.20588 10.3474 1.25588 9.14448 0.666992 7.6667C0.900326 7.07781 1.19477 6.53048 1.55033 6.0247C1.90588 5.51937 2.31144 5.0667 2.76699 4.6667L0.933659 2.80003L1.86699 1.8667L14.1337 14.1334L13.2003 15.0667ZM8.00033 10.6667C8.12255 10.6667 8.23633 10.6611 8.34166 10.65C8.44744 10.6389 8.56144 10.6167 8.68366 10.5834L5.08366 6.98337C5.05033 7.10559 5.0281 7.21959 5.01699 7.32537C5.00588 7.4307 5.00033 7.54448 5.00033 7.6667C5.00033 8.50003 5.29188 9.20848 5.87499 9.79203C6.45855 10.3751 7.16699 10.6667 8.00033 10.6667ZM12.867 10.9667L10.7503 8.8667C10.8281 8.67781 10.8892 8.48625 10.9337 8.29203C10.9781 8.09737 11.0003 7.88892 11.0003 7.6667C11.0003 6.83337 10.7088 6.12492 10.1257 5.54137C9.5421 4.95825 8.83366 4.6667 8.00033 4.6667C7.7781 4.6667 7.56966 4.68892 7.37499 4.73337C7.18077 4.77781 6.98921 4.84448 6.80032 4.93337L5.10033 3.23337C5.55588 3.04448 6.02255 2.9027 6.50033 2.80803C6.9781 2.71381 7.4781 2.6667 8.00033 2.6667C9.6781 2.6667 11.1725 3.13048 12.4837 4.05803C13.7948 4.98603 14.7448 6.18892 15.3337 7.6667C15.0781 8.32225 14.7421 8.9307 14.3257 9.49203C13.9088 10.0529 13.4225 10.5445 12.867 10.9667ZM9.78366 7.90003L7.78366 5.90003C8.09477 5.84448 8.38099 5.86937 8.64233 5.9747C8.90321 6.08048 9.1281 6.23337 9.31699 6.43337C9.50588 6.63337 9.6421 6.86403 9.72566 7.12537C9.80877 7.38625 9.8281 7.64448 9.78366 7.90003Z" fill="#A9A9A9"/>
</svg>
