<svg width="16" height="16" viewBox="0 0 16 16" fill="none" xmlns="http://www.w3.org/2000/svg">
<path d="M10.3333 8.00008C10.3333 9.28875 9.28858 10.3334 7.99992 10.3334C6.71125 10.3334 5.66659 9.28875 5.66659 8.00008C5.66659 6.71142 6.71125 5.66675 7.99992 5.66675C9.28858 5.66675 10.3333 6.71142 10.3333 8.00008Z" fill="black"/>
<path fill-rule="evenodd" clip-rule="evenodd" d="M8.00001 2.3335C5.71207 2.3335 3.917 3.35628 2.6306 4.49391C1.34686 5.6292 0.542937 6.90102 0.21973 7.46766C0.0299472 7.80039 0.0299466 8.19994 0.219729 8.53266C0.542937 9.0993 1.34685 10.3711 2.6306 11.5064C3.917 12.644 5.71207 13.6668 8.00001 13.6668C10.2879 13.6668 12.083 12.644 13.3694 11.5064C14.6531 10.3711 15.4571 9.09925 15.7803 8.53261C15.97 8.19988 15.97 7.80033 15.7803 7.46762C15.457 6.90098 14.6531 5.62917 13.3694 4.49389C12.083 3.35626 10.2879 2.3335 8.00001 2.3335ZM1.08836 7.96312C1.38268 7.44713 2.12273 6.278 3.29307 5.243C4.46076 4.21035 6.02991 3.3335 8.00001 3.3335C9.9701 3.3335 11.5392 4.21034 12.7069 5.24298C13.8773 6.27797 14.6173 7.44708 14.9116 7.96307C14.9204 7.9784 14.9226 7.99078 14.9226 8.00011C14.9226 8.00944 14.9204 8.02182 14.9116 8.03715C14.6173 8.55315 13.8773 9.72229 12.7069 10.7573C11.5392 11.79 9.9701 12.6668 8.00001 12.6668C6.02991 12.6668 4.46076 11.79 3.29307 10.7573C2.12273 9.72233 1.38268 8.5532 1.08836 8.0372C1.07962 8.02187 1.07739 8.00949 1.07739 8.00016C1.07739 7.99083 1.07962 7.97845 1.08836 7.96312Z" fill="black"/>
</svg>
