<svg width="16" height="16" viewBox="0 0 16 16" fill="none" xmlns="http://www.w3.org/2000/svg">
<path d="M8 10.6665C8.83334 10.6665 9.54178 10.3749 10.1253 9.79184C10.7084 9.20828 11 8.49984 11 7.6665C11 6.83317 10.7084 6.12473 10.1253 5.54117C9.54178 4.95806 8.83334 4.6665 8 4.6665C7.16667 4.6665 6.45823 4.95806 5.87467 5.54117C5.29156 6.12473 5 6.83317 5 7.6665C5 8.49984 5.29156 9.20828 5.87467 9.79184C6.45823 10.3749 7.16667 10.6665 8 10.6665ZM8 9.4665C7.5 9.4665 7.07512 9.29139 6.72534 8.94117C6.37512 8.59139 6.20001 8.1665 6.20001 7.6665C6.20001 7.1665 6.37512 6.74139 6.72534 6.39117C7.07512 6.04139 7.5 5.8665 8 5.8665C8.5 5.8665 8.92512 6.04139 9.27534 6.39117C9.62512 6.74139 9.8 7.1665 9.8 7.6665C9.8 8.1665 9.62512 8.59139 9.27534 8.94117C8.92512 9.29139 8.5 9.4665 8 9.4665ZM8 12.6665C6.37778 12.6665 4.9 12.2136 3.56667 11.3078C2.23334 10.4025 1.26667 9.18873 0.666672 7.6665C1.26667 6.14428 2.23334 4.93028 3.56667 4.0245C4.9 3.11917 6.37778 2.6665 8 2.6665C9.62223 2.6665 11.1 3.11917 12.4333 4.0245C13.7667 4.93028 14.7333 6.14428 15.3333 7.6665C14.7333 9.18873 13.7667 10.4025 12.4333 11.3078C11.1 12.2136 9.62223 12.6665 8 12.6665Z" fill="#A663E9"/>
</svg>
