<svg width="16" height="16" viewBox="0 0 16 16" fill="none" xmlns="http://www.w3.org/2000/svg">
<path d="M8.00033 10.6666C8.83366 10.6666 9.5421 10.3751 10.1257 9.79196C10.7088 9.2084 11.0003 8.49996 11.0003 7.66663C11.0003 6.83329 10.7088 6.12485 10.1257 5.54129C9.5421 4.95818 8.83366 4.66663 8.00033 4.66663C7.16699 4.66663 6.45855 4.95818 5.87499 5.54129C5.29188 6.12485 5.00033 6.83329 5.00033 7.66663C5.00033 8.49996 5.29188 9.2084 5.87499 9.79196C6.45855 10.3751 7.16699 10.6666 8.00033 10.6666ZM8.00033 9.46663C7.50033 9.46663 7.07544 9.29151 6.72566 8.94129C6.37544 8.59152 6.20033 8.16663 6.20033 7.66663C6.20033 7.16663 6.37544 6.74152 6.72566 6.39129C7.07544 6.04151 7.50033 5.86663 8.00033 5.86663C8.50033 5.86663 8.92544 6.04151 9.27566 6.39129C9.62544 6.74152 9.80032 7.16663 9.80032 7.66663C9.80032 8.16663 9.62544 8.59152 9.27566 8.94129C8.92544 9.29151 8.50033 9.46663 8.00033 9.46663ZM8.00033 12.6666C6.3781 12.6666 4.90033 12.2137 3.56699 11.308C2.23366 10.4026 1.26699 9.18885 0.666992 7.66663C1.26699 6.1444 2.23366 4.9304 3.56699 4.02463C4.90033 3.11929 6.3781 2.66663 8.00033 2.66663C9.62255 2.66663 11.1003 3.11929 12.4337 4.02463C13.767 4.9304 14.7337 6.1444 15.3337 7.66663C14.7337 9.18885 13.767 10.4026 12.4337 11.308C11.1003 12.2137 9.62255 12.6666 8.00033 12.6666Z" fill="#646669"/>
</svg>
