<svg width="16" height="16" viewBox="0 0 16 16" fill="none" xmlns="http://www.w3.org/2000/svg">
<path fill-rule="evenodd" clip-rule="evenodd" d="M9.97123 2.81649L9.96859 2.81907L3.60977 9.03751C3.42372 9.21945 3.07141 9.76965 2.98993 10.4868C2.91176 11.1748 3.08196 12.0194 3.92792 12.8467C4.77121 13.6714 5.59496 13.8049 6.25153 13.7102C6.94246 13.6105 7.48539 13.2507 7.68633 13.0541L11.6631 9.16519C11.8509 8.98151 12.1591 8.97803 12.3512 9.1576C12.5433 9.33718 12.5468 9.63166 12.359 9.81534L8.38206 13.7044C8.05275 14.0265 7.32307 14.4963 6.39672 14.63C5.43601 14.7686 4.29782 14.5391 3.23219 13.497C2.16923 12.4575 1.91523 11.3317 2.02265 10.3863C2.12676 9.46999 2.56983 8.72382 2.91404 8.38721L9.27683 2.1649C9.27683 2.1649 9.2771 2.16464 9.62496 2.48979C9.2771 2.16464 9.27745 2.16429 9.27745 2.16429L9.27873 2.16305L9.28096 2.16089L9.28724 2.1549C9.29221 2.15019 9.29878 2.14405 9.30688 2.13664C9.32307 2.12183 9.34548 2.10186 9.37371 2.07793C9.43004 2.03019 9.5103 1.96607 9.61138 1.89547C9.81154 1.75565 10.1039 1.58299 10.4622 1.46619C10.8227 1.34868 11.2599 1.28475 11.7358 1.37782C12.2151 1.47158 12.6973 1.71763 13.1544 2.16464C13.6116 2.6118 13.8605 3.08066 13.955 3.54296C14.0489 4.00177 13.9846 4.42368 13.8656 4.77291C13.7471 5.12036 13.5717 5.40463 13.429 5.6C13.3571 5.69855 13.2916 5.77686 13.2429 5.83187C13.2185 5.85943 13.1981 5.88131 13.183 5.89713C13.1754 5.90504 13.1691 5.91145 13.1643 5.91631L13.1582 5.92244L13.156 5.92463L13.1551 5.9255C13.1465 5.93394 12.5738 5.38362 13.1544 5.92623L7.32155 11.6303L7.32035 11.6314L7.31875 11.633L7.31434 11.6372L7.30083 11.6499C7.28978 11.6602 7.27463 11.674 7.25572 11.6906C7.21799 11.7238 7.16467 11.7686 7.09843 11.819C6.96801 11.9182 6.77746 12.0467 6.54911 12.1482C6.32281 12.2488 6.03293 12.3346 5.71411 12.3163C5.38118 12.2971 5.0525 12.1659 4.76993 11.8895C4.17291 11.3057 4.30256 10.6173 4.50752 10.1764C4.61046 9.95488 4.74109 9.76951 4.8424 9.64213C4.89379 9.57751 4.93952 9.52547 4.97337 9.48862C4.99034 9.47015 5.00446 9.45535 5.01496 9.44455L5.02795 9.43135L5.03228 9.42705L5.03386 9.42548L5.03451 9.42484C5.82213 8.65321 9.20265 5.34872 10.8679 3.72028C11.0557 3.5366 11.3637 3.53327 11.5558 3.71285C11.7479 3.89243 11.7514 4.1869 11.5636 4.37058L5.73204 10.0734L5.72745 10.078C5.72281 10.0828 5.71491 10.0911 5.70444 10.1025C5.6834 10.1254 5.65249 10.1604 5.61689 10.2052C5.54421 10.2966 5.45942 10.4191 5.39666 10.5541C5.27021 10.8262 5.2673 11.0452 5.46566 11.2392C5.58078 11.3518 5.68293 11.3826 5.77255 11.3877C5.87628 11.3937 6.00065 11.3661 6.13891 11.3047C6.27511 11.2441 6.3994 11.162 6.49268 11.091C6.53828 11.0563 6.57403 11.0262 6.59741 11.0057C6.60904 10.9954 6.61746 10.9877 6.62233 10.9832L6.62663 10.9792L12.4571 5.27744L12.4576 5.27695L12.465 5.26932C12.4724 5.26159 12.4846 5.24853 12.5006 5.23052C12.5326 5.19437 12.579 5.139 12.6313 5.0674C12.7372 4.92247 12.8601 4.7206 12.9405 4.48468C13.0203 4.25055 13.0554 3.99186 13.0001 3.72147C12.9456 3.45456 12.7967 3.1456 12.4586 2.81494C12.1203 2.48412 11.8071 2.34127 11.5408 2.28918C11.271 2.23641 11.0122 2.26971 10.7762 2.34665C10.538 2.42431 10.3332 2.54333 10.1854 2.64658C10.1125 2.69752 10.056 2.74278 10.0191 2.77403C10.0008 2.7896 9.98743 2.80154 9.97955 2.80875L9.9719 2.81584L9.97123 2.81649Z" fill="black"/>
</svg>
