<svg width="16" height="17" viewBox="0 0 16 17" fill="none" xmlns="http://www.w3.org/2000/svg">
<path fill-rule="evenodd" clip-rule="evenodd" d="M2.49984 3C2.49984 3.5628 2.68581 4.08217 2.99965 4.5H1.83317C1.18884 4.5 0.666504 5.02233 0.666504 5.66667V7.33333C0.666504 7.79873 0.939013 8.20048 1.33317 8.38773V14C1.33317 14.6443 1.8555 15.1667 2.49984 15.1667H13.4998C14.1442 15.1667 14.6665 14.6443 14.6665 14V8.38773C15.0607 8.20048 15.3332 7.79873 15.3332 7.33333V5.66667C15.3332 5.02233 14.8108 4.5 14.1665 4.5H13C13.3139 4.08217 13.4998 3.5628 13.4998 3C13.4998 1.61929 12.3805 0.5 10.9998 0.5C10.0295 0.5 8.70927 1.10073 7.99984 2.5734C7.2904 1.10073 5.97015 0.5 4.99984 0.5C3.61912 0.5 2.49984 1.61929 2.49984 3ZM7.4799 4.5C7.28857 2.1714 5.76608 1.5 4.99984 1.5C4.17141 1.5 3.49984 2.17157 3.49984 3C3.49984 3.82843 4.17141 4.5 4.99984 4.5H7.4799ZM13.6665 8.5V14C13.6665 14.092 13.5919 14.1667 13.4998 14.1667H8.49984V8.5H13.6665ZM7.49984 14.1667V8.5H2.33317V14C2.33317 14.092 2.40779 14.1667 2.49984 14.1667H7.49984ZM14.1665 7.5C14.2586 7.5 14.3332 7.42538 14.3332 7.33333V5.66667C14.3332 5.57462 14.2586 5.5 14.1665 5.5H8.49984V7.5H14.1665ZM1.83317 7.5H7.49984V5.5H1.83317C1.74112 5.5 1.6665 5.57462 1.6665 5.66667V7.33333C1.6665 7.42538 1.74112 7.5 1.83317 7.5ZM12.4998 3C12.4998 3.82843 11.8283 4.5 10.9998 4.5H8.51977C8.7111 2.1714 10.2336 1.5 10.9998 1.5C11.8283 1.5 12.4998 2.17157 12.4998 3Z" fill="black"/>
</svg>
