<svg width="16" height="17" viewBox="0 0 16 17" fill="none" xmlns="http://www.w3.org/2000/svg">
<path fill-rule="evenodd" clip-rule="evenodd" d="M5.83317 13.3333C5.83317 14.53 6.80322 15.5 7.99984 15.5C9.19645 15.5 10.1665 14.53 10.1665 13.3333C10.1665 12.3088 9.4554 11.4504 8.49984 11.2246V8.83333H10.1665C11.5472 8.83333 12.6665 7.71405 12.6665 6.33333V5.77536C13.6221 5.54964 14.3332 4.69119 14.3332 3.66667C14.3332 2.47005 13.3631 1.5 12.1665 1.5C10.9699 1.5 9.99984 2.47005 9.99984 3.66667C9.99984 4.69119 10.7109 5.54964 11.6665 5.77536V6.33333C11.6665 7.16176 10.9949 7.83333 10.1665 7.83333H5.83317C5.00474 7.83333 4.33317 7.16176 4.33317 6.33333V5.77536C5.28874 5.54964 5.99984 4.69119 5.99984 3.66667C5.99984 2.47005 5.02979 1.5 3.83317 1.5C2.63655 1.5 1.6665 2.47005 1.6665 3.66667C1.6665 4.69119 2.3776 5.54964 3.33317 5.77536V6.33333C3.33317 7.71405 4.45246 8.83333 5.83317 8.83333H7.49984V11.2246C6.54427 11.4504 5.83317 12.3088 5.83317 13.3333ZM7.99984 14.5C7.3555 14.5 6.83317 13.9777 6.83317 13.3333C6.83317 12.689 7.3555 12.1667 7.99984 12.1667C8.64417 12.1667 9.1665 12.689 9.1665 13.3333C9.1665 13.9777 8.64417 14.5 7.99984 14.5ZM3.83317 4.83333C3.18884 4.83333 2.6665 4.311 2.6665 3.66667C2.6665 3.02233 3.18884 2.5 3.83317 2.5C4.4775 2.5 4.99984 3.02233 4.99984 3.66667C4.99984 4.311 4.4775 4.83333 3.83317 4.83333ZM10.9998 3.66667C10.9998 4.311 11.5222 4.83333 12.1665 4.83333C12.8108 4.83333 13.3332 4.311 13.3332 3.66667C13.3332 3.02233 12.8108 2.5 12.1665 2.5C11.5222 2.5 10.9998 3.02233 10.9998 3.66667Z" fill="#191F28"/>
</svg>
