<svg width="16" height="16" viewBox="0 0 16 16" fill="none" xmlns="http://www.w3.org/2000/svg">
<path fill-rule="evenodd" clip-rule="evenodd" d="M7.99999 0.666687C3.9499 0.666687 0.666656 3.94993 0.666656 8.00002C0.666656 12.0501 3.9499 15.3334 7.99999 15.3334C12.0501 15.3334 15.3333 12.0501 15.3333 8.00002C15.3333 3.94993 12.0501 0.666687 7.99999 0.666687ZM1.67528 7.66669H4.83882C4.90567 5.64213 5.57158 4.00646 6.23414 2.86411C6.49413 2.41585 6.75446 2.04201 6.97969 1.74844C4.07392 2.21905 1.83083 4.66675 1.67528 7.66669ZM4.85537 8.66669H1.70133C1.9991 11.5131 4.18231 13.7985 6.97968 14.2516C6.75445 13.958 6.49413 13.5842 6.23414 13.1359C5.60833 12.057 4.97955 10.5379 4.85537 8.66669ZM5.85784 8.66669H10.1421C10.0201 10.3195 9.46192 11.6668 8.90081 12.6342C8.5836 13.1811 8.267 13.6039 8.03165 13.8879L7.99999 13.9259L7.96833 13.8879C7.73298 13.6039 7.41638 13.1811 7.09917 12.6342C6.53806 11.6668 5.97985 10.3195 5.85784 8.66669ZM10.1605 7.66669H5.83943C5.90572 5.86114 6.5008 4.39751 7.09917 3.36583C7.41638 2.81892 7.73298 2.39619 7.96833 2.11214L7.99999 2.07418L8.03165 2.11214C8.267 2.39619 8.5836 2.81892 8.90081 3.36583C9.49918 4.39751 10.0943 5.86114 10.1605 7.66669ZM11.1446 8.66669C11.0204 10.5379 10.3916 12.057 9.76584 13.1359C9.50585 13.5842 9.24553 13.958 9.0203 14.2516C11.8177 13.7985 14.0009 11.5131 14.2987 8.66669H11.1446ZM14.3247 7.66669H11.1612C11.0943 5.64213 10.4284 4.00646 9.76584 2.86411C9.50585 2.41585 9.24552 2.04201 9.02029 1.74844C11.9261 2.21905 14.1691 4.66675 14.3247 7.66669Z" fill="black"/>
</svg>
