<svg width="16" height="17" viewBox="0 0 16 17" fill="none" xmlns="http://www.w3.org/2000/svg">
<path d="M2.66699 14.5V8.25L1.46699 9.16667L0.666992 8.1L8.00033 2.5L15.3337 8.1L14.5337 9.15L13.3337 8.25V14.5H2.66699ZM4.00033 13.1667H12.0003V7.23333L8.00033 4.18333L4.00033 7.23333V13.1667ZM4.00033 13.1667H12.0003H8.00033H4.00033ZM5.33366 10.5C5.14477 10.5 4.98633 10.436 4.85833 10.308C4.73077 10.1804 4.66699 10.0222 4.66699 9.83333C4.66699 9.64444 4.73077 9.486 4.85833 9.358C4.98633 9.23044 5.14477 9.16667 5.33366 9.16667C5.52255 9.16667 5.68099 9.23044 5.80899 9.358C5.93655 9.486 6.00033 9.64444 6.00033 9.83333C6.00033 10.0222 5.93655 10.1804 5.80899 10.308C5.68099 10.436 5.52255 10.5 5.33366 10.5ZM8.00033 10.5C7.81144 10.5 7.65321 10.436 7.52566 10.308C7.39766 10.1804 7.33366 10.0222 7.33366 9.83333C7.33366 9.64444 7.39766 9.486 7.52566 9.358C7.65321 9.23044 7.81144 9.16667 8.00033 9.16667C8.18921 9.16667 8.34766 9.23044 8.47566 9.358C8.60321 9.486 8.66699 9.64444 8.66699 9.83333C8.66699 10.0222 8.60321 10.1804 8.47566 10.308C8.34766 10.436 8.18921 10.5 8.00033 10.5ZM10.667 10.5C10.4781 10.5 10.3199 10.436 10.1923 10.308C10.0643 10.1804 10.0003 10.0222 10.0003 9.83333C10.0003 9.64444 10.0643 9.486 10.1923 9.358C10.3199 9.23044 10.4781 9.16667 10.667 9.16667C10.8559 9.16667 11.0141 9.23044 11.1417 9.358C11.2697 9.486 11.3337 9.64444 11.3337 9.83333C11.3337 10.0222 11.2697 10.1804 11.1417 10.308C11.0141 10.436 10.8559 10.5 10.667 10.5Z" fill="#191F28"/>
</svg>
