<svg width="16" height="17" viewBox="0 0 16 17" fill="none" xmlns="http://www.w3.org/2000/svg">
<path d="M8.00016 11.8335C8.18905 11.8335 8.3475 11.7695 8.4755 11.6415C8.60305 11.5139 8.66683 11.3557 8.66683 11.1668V8.4835C8.66683 8.29461 8.60305 8.13905 8.4755 8.01683C8.3475 7.89461 8.18905 7.8335 8.00016 7.8335C7.81127 7.8335 7.65305 7.89727 7.5255 8.02483C7.3975 8.15283 7.3335 8.31127 7.3335 8.50016V11.1835C7.3335 11.3724 7.3975 11.5279 7.5255 11.6502C7.65305 11.7724 7.81127 11.8335 8.00016 11.8335ZM8.00016 6.50016C8.18905 6.50016 8.3475 6.43616 8.4755 6.30816C8.60305 6.18061 8.66683 6.02239 8.66683 5.8335C8.66683 5.64461 8.60305 5.48616 8.4755 5.35816C8.3475 5.23061 8.18905 5.16683 8.00016 5.16683C7.81127 5.16683 7.65305 5.23061 7.5255 5.35816C7.3975 5.48616 7.3335 5.64461 7.3335 5.8335C7.3335 6.02239 7.3975 6.18061 7.5255 6.30816C7.65305 6.43616 7.81127 6.50016 8.00016 6.50016ZM8.00016 15.1668C7.07794 15.1668 6.21127 14.9917 5.40016 14.6415C4.58905 14.2917 3.8835 13.8168 3.2835 13.2168C2.6835 12.6168 2.20861 11.9113 1.85883 11.1002C1.50861 10.2891 1.3335 9.42239 1.3335 8.50016C1.3335 7.57794 1.50861 6.71127 1.85883 5.90016C2.20861 5.08905 2.6835 4.3835 3.2835 3.7835C3.8835 3.1835 4.58905 2.70838 5.40016 2.35816C6.21127 2.00838 7.07794 1.8335 8.00016 1.8335C8.92239 1.8335 9.78905 2.00838 10.6002 2.35816C11.4113 2.70838 12.1168 3.1835 12.7168 3.7835C13.3168 4.3835 13.7917 5.08905 14.1415 5.90016C14.4917 6.71127 14.6668 7.57794 14.6668 8.50016C14.6668 9.42239 14.4917 10.2891 14.1415 11.1002C13.7917 11.9113 13.3168 12.6168 12.7168 13.2168C12.1168 13.8168 11.4113 14.2917 10.6002 14.6415C9.78905 14.9917 8.92239 15.1668 8.00016 15.1668Z" fill="#1781F4"/>
</svg>
