<svg width="24" height="24" viewBox="0 0 24 24" fill="none" xmlns="http://www.w3.org/2000/svg">
<path d="M9.8 8.0801C10.3302 8.0801 10.76 7.65029 10.76 7.1201C10.76 6.5899 10.3302 6.1601 9.8 6.1601C9.2698 6.1601 8.84 6.5899 8.84 7.1201C8.84 7.65029 9.2698 8.0801 9.8 8.0801Z" fill="#646669"/>
<path d="M14.6 8.0801C15.1302 8.0801 15.56 7.65029 15.56 7.1201C15.56 6.5899 15.1302 6.1601 14.6 6.1601C14.0698 6.1601 13.64 6.5899 13.64 7.1201C13.64 7.65029 14.0698 8.0801 14.6 8.0801Z" fill="#646669"/>
<path d="M9.8 11.9201H11.24V13.8401C1.36101 13.8401 18.4722 13.8401 13.16 13.8401V11.9201H14.6C15.873 11.9201 17.0939 11.4144 17.9941 10.5142C18.8943 9.61401 19.4 8.39311 19.4 7.12007C19.4 5.84703 18.8943 4.62613 17.9941 3.72596C17.0939 2.82578 15.873 2.32007 14.6 2.32007H9.8C8.52696 2.32007 7.30606 2.82578 6.40589 3.72596C5.50571 4.62613 5 5.84703 5 7.12007C5 8.39311 5.50571 9.61401 6.40589 10.5142C7.30606 11.4144 8.52696 11.9201 9.8 11.9201ZM9.8 4.24007H14.6C15.3638 4.24007 16.0964 4.5435 16.6365 5.0836C17.1766 5.62371 17.48 6.35624 17.48 7.12007C17.48 7.88389 17.1766 8.61643 16.6365 9.15654C16.0964 9.69664 15.3638 10.0001 14.6 10.0001H9.8C9.03618 10.0001 8.30364 9.69664 7.76353 9.15654C7.22343 8.61643 6.92 7.88389 6.92 7.12007C6.92 6.35624 7.22343 5.62371 7.76353 5.0836C8.30364 4.5435 9.03618 4.24007 9.8 4.24007Z" fill="#646669"/>
<path d="M10.3844 20.4474L12.2002 18.6579L13.9897 20.4474L14.5949 19.8421L12.7791 18.0263L14.6476 16.1579L14.0423 15.5526L12.2002 17.3947L10.3581 15.5526L9.75283 16.1579L11.5949 18L9.75283 19.8421L10.3844 20.4474ZM12.2002 23C10.8318 23 9.65634 22.5132 8.67388 21.5395C7.69142 20.5658 7.2002 19.3947 7.2002 18.0263C7.2002 16.6404 7.69142 15.4561 8.67388 14.4737C9.65634 13.4912 10.8318 13 12.2002 13C13.5686 13 14.7441 13.4912 15.7265 14.4737C16.709 15.4561 17.2002 16.6404 17.2002 18.0263C17.2002 19.3947 16.709 20.5658 15.7265 21.5395C14.7441 22.5132 13.5686 23 12.2002 23Z" fill="#646669"/>
</svg>
