<svg width="16" height="16" viewBox="0 0 16 16" fill="none" xmlns="http://www.w3.org/2000/svg">
<path d="M7.99992 14.6666C7.0777 14.6666 6.21103 14.4915 5.39992 14.1413C4.58881 13.7915 3.88325 13.3166 3.28325 12.7166C2.68325 12.1166 2.20836 11.411 1.85859 10.5999C1.50836 9.78881 1.33325 8.92214 1.33325 7.99992C1.33325 7.0777 1.50836 6.21103 1.85859 5.39992C2.20836 4.58881 2.68325 3.88325 3.28325 3.28325C3.88325 2.68325 4.58881 2.20814 5.39992 1.85792C6.21103 1.50814 7.0777 1.33325 7.99992 1.33325C8.92214 1.33325 9.78881 1.50814 10.5999 1.85792C11.411 2.20814 12.1166 2.68325 12.7166 3.28325C13.3166 3.88325 13.7915 4.58881 14.1413 5.39992C14.4915 6.21103 14.6666 7.0777 14.6666 7.99992C14.6666 8.92214 14.4915 9.78881 14.1413 10.5999C13.7915 11.411 13.3166 12.1166 12.7166 12.7166C12.1166 13.3166 11.411 13.7915 10.5999 14.1413C9.78881 14.4915 8.92214 14.6666 7.99992 14.6666ZM8.99992 7.26659L9.33325 7.06659C9.35547 7.32214 9.46103 7.54147 9.64992 7.72459C9.83881 7.90814 10.0666 7.99992 10.3333 7.99992C10.611 7.99992 10.847 7.90259 11.0413 7.70792C11.2359 7.5137 11.3333 7.2777 11.3333 6.99992C11.3333 6.82214 11.2944 6.66103 11.2166 6.51659C11.1388 6.37214 11.0333 6.25547 10.8999 6.16659L11.3333 5.91659L10.9999 5.33325L8.66659 6.66659L8.99992 7.26659ZM6.99992 7.26659L7.33325 6.66659L4.99992 5.33325L4.66659 5.91659L5.09992 6.16659C4.96659 6.25547 4.86103 6.37214 4.78325 6.51659C4.70547 6.66103 4.66659 6.82214 4.66659 6.99992C4.66659 7.2777 4.76392 7.5137 4.95859 7.70792C5.15281 7.90259 5.38881 7.99992 5.66659 7.99992C5.93325 7.99992 6.16103 7.90814 6.34992 7.72459C6.53881 7.54147 6.64436 7.32214 6.66659 7.06659L6.99992 7.26659ZM7.99992 8.66659C7.21103 8.66659 6.51659 8.91925 5.91659 9.42459C5.31659 9.93036 4.89436 10.5666 4.64992 11.3333H11.3499C11.1055 10.5666 10.6833 9.93036 10.0833 9.42459C9.48325 8.91925 8.78881 8.66659 7.99992 8.66659Z" fill="white"/>
</svg>
