<svg width="16" height="16" viewBox="0 0 16 16" fill="none" xmlns="http://www.w3.org/2000/svg">
<path d="M7.99967 14.6667C7.07745 14.6667 6.21079 14.4916 5.39967 14.1414C4.58856 13.7916 3.88301 13.3167 3.28301 12.7167C2.68301 12.1167 2.20812 11.4112 1.85834 10.6C1.50812 9.78893 1.33301 8.92226 1.33301 8.00004C1.33301 7.07782 1.50812 6.21115 1.85834 5.40004C2.20812 4.58893 2.68301 3.88337 3.28301 3.28337C3.88301 2.68337 4.58856 2.20826 5.39967 1.85804C6.21079 1.50826 7.07745 1.33337 7.99967 1.33337C8.9219 1.33337 9.78856 1.50826 10.5997 1.85804C11.4108 2.20826 12.1163 2.68337 12.7163 3.28337C13.3163 3.88337 13.7912 4.58893 14.141 5.40004C14.4912 6.21115 14.6663 7.07782 14.6663 8.00004C14.6663 8.92226 14.4912 9.78893 14.141 10.6C13.7912 11.4112 13.3163 12.1167 12.7163 12.7167C12.1163 13.3167 11.4108 13.7916 10.5997 14.1414C9.78856 14.4916 8.9219 14.6667 7.99967 14.6667Z" fill="#9FD7FF"/>
</svg>
