<svg width="20" height="20" viewBox="0 0 20 20" fill="none" xmlns="http://www.w3.org/2000/svg">
<path d="M3.33337 15.8337V14.167H5.00004V8.33366C5.00004 7.18088 5.34726 6.15644 6.04171 5.26033C6.73615 4.36477 7.63893 3.7781 8.75004 3.50033V2.91699C8.75004 2.56977 8.87171 2.27477 9.11504 2.03199C9.35782 1.78866 9.65282 1.66699 10 1.66699C10.3473 1.66699 10.6423 1.78866 10.885 2.03199C11.1284 2.27477 11.25 2.56977 11.25 2.91699V3.50033C12.3612 3.7781 13.2639 4.36477 13.9584 5.26033C14.6528 6.15644 15 7.18088 15 8.33366V14.167H16.6667V15.8337H3.33337ZM10 18.3337C9.54171 18.3337 9.14949 18.1706 8.82337 17.8445C8.49671 17.5178 8.33337 17.1253 8.33337 16.667H11.6667C11.6667 17.1253 11.5037 17.5178 11.1775 17.8445C10.8509 18.1706 10.4584 18.3337 10 18.3337ZM6.66671 14.167H13.3334V8.33366C13.3334 7.41699 13.007 6.63227 12.3542 5.97949C11.7014 5.32671 10.9167 5.00033 10 5.00033C9.08337 5.00033 8.29865 5.32671 7.64587 5.97949C6.9931 6.63227 6.66671 7.41699 6.66671 8.33366V14.167Z" fill="#fff"/>
</svg>
