<svg width="16" height="16" viewBox="0 0 16 16" fill="none" xmlns="http://www.w3.org/2000/svg">
<path d="M10.3333 7.33325C10.6221 7.33325 10.861 7.23881 11.0499 7.04992C11.2388 6.86103 11.3333 6.62214 11.3333 6.33325C11.3333 6.04436 11.2388 5.80547 11.0499 5.61659C10.861 5.4277 10.6221 5.33325 10.3333 5.33325C10.0444 5.33325 9.80547 5.4277 9.61659 5.61659C9.4277 5.80547 9.33325 6.04436 9.33325 6.33325C9.33325 6.62214 9.4277 6.86103 9.61659 7.04992C9.80547 7.23881 10.0444 7.33325 10.3333 7.33325ZM5.66659 7.33325C5.95547 7.33325 6.19436 7.23881 6.38325 7.04992C6.57214 6.86103 6.66659 6.62214 6.66659 6.33325C6.66659 6.04436 6.57214 5.80547 6.38325 5.61659C6.19436 5.4277 5.95547 5.33325 5.66659 5.33325C5.3777 5.33325 5.13881 5.4277 4.94992 5.61659C4.76103 5.80547 4.66659 6.04436 4.66659 6.33325C4.66659 6.62214 4.76103 6.86103 4.94992 7.04992C5.13881 7.23881 5.3777 7.33325 5.66659 7.33325ZM7.99992 11.6666C8.78881 11.6666 9.48592 11.4499 10.0913 11.0166C10.697 10.5833 11.1333 10.0221 11.3999 9.33325H4.59992C4.86659 10.0221 5.30281 10.5833 5.90859 11.0166C6.51392 11.4499 7.21103 11.6666 7.99992 11.6666ZM7.99992 14.6666C7.0777 14.6666 6.21103 14.4915 5.39992 14.1413C4.58881 13.7915 3.88325 13.3166 3.28325 12.7166C2.68325 12.1166 2.20836 11.411 1.85859 10.5999C1.50836 9.78881 1.33325 8.92214 1.33325 7.99992C1.33325 7.0777 1.50836 6.21103 1.85859 5.39992C2.20836 4.58881 2.68325 3.88325 3.28325 3.28325C3.88325 2.68325 4.58881 2.20814 5.39992 1.85792C6.21103 1.50814 7.0777 1.33325 7.99992 1.33325C8.92214 1.33325 9.78881 1.50814 10.5999 1.85792C11.411 2.20814 12.1166 2.68325 12.7166 3.28325C13.3166 3.88325 13.7915 4.58881 14.1413 5.39992C14.4915 6.21103 14.6666 7.0777 14.6666 7.99992C14.6666 8.92214 14.4915 9.78881 14.1413 10.5999C13.7915 11.411 13.3166 12.1166 12.7166 12.7166C12.1166 13.3166 11.411 13.7915 10.5999 14.1413C9.78881 14.4915 8.92214 14.6666 7.99992 14.6666Z" fill="black"/>
</svg>
