<svg width="24" height="24" viewBox="0 0 24 24" fill="none" xmlns="http://www.w3.org/2000/svg">
<path d="M3 19V17H6.6L8.575 6.425C8.70833 5.99167 8.954 5.64567 9.312 5.387C9.67067 5.129 10.0667 5 10.5 5H13.5C13.9333 5 14.3293 5.129 14.688 5.387C15.046 5.64567 15.2917 5.99167 15.425 6.425L17.4 17H21V19H3ZM8.7 17H15.3L13.5 7H10.5L8.7 17Z" fill="#fff"/>
<path d="M7.4802 12.0435L8.34166 13.8654L15.8568 9.71086L15.0104 7.92097L7.4802 12.0435Z" fill="#fff"/>
<path d="M7.4802 16.0435L8.34166 17.8654L15.8568 13.7109L15.0104 11.921L7.4802 16.0435Z" fill="#fff"/>
</svg>
