<svg width="65" height="64" viewBox="0 0 65 64" fill="none" xmlns="http://www.w3.org/2000/svg">
<path fill-rule="evenodd" clip-rule="evenodd" d="M32.4997 10.6668C20.7176 10.6668 11.1663 20.2181 11.1663 32.0002C11.1663 43.7822 20.7176 53.3335 32.4997 53.3335C42.649 53.3335 51.1487 46.2434 53.3044 36.7434C53.6303 35.3072 55.0588 34.407 56.4951 34.7329C57.9313 35.0588 58.8314 36.4873 58.5055 37.9236C55.8107 49.7995 45.1939 58.6668 32.4997 58.6668C17.7721 58.6668 5.83301 46.7278 5.83301 32.0002C5.83301 17.2726 17.7721 5.3335 32.4997 5.3335C44.8557 5.3335 55.2427 13.7347 58.2728 25.132C58.6513 26.5554 57.8042 28.0159 56.3809 28.3943C54.9576 28.7728 53.497 27.9257 53.1186 26.5024C50.694 17.3829 42.3778 10.6668 32.4997 10.6668Z" fill="#1781F4"/>
</svg>
