<svg width="16" height="16" viewBox="0 0 16 16" fill="none" xmlns="http://www.w3.org/2000/svg">
<path d="M2.66668 12.6667V11.3334H4.00002V6.66671C4.00002 6.30004 4.04735 5.93893 4.14202 5.58337C4.23624 5.22782 4.37779 4.88893 4.56668 4.56671L5.56668 5.56671C5.48891 5.74449 5.43068 5.92493 5.39202 6.10804C5.35291 6.2916 5.33335 6.47782 5.33335 6.66671V11.3334H9.46668L0.93335 2.80004L1.86668 1.86671L14.1334 14.1334L13.2 15.0667L10.7667 12.6667H2.66668ZM12 10.1L10.6667 8.76671V6.66671C10.6667 5.93337 10.4056 5.3056 9.88335 4.78337C9.36113 4.26115 8.73335 4.00004 8.00002 4.00004C7.70002 4.00004 7.41957 4.04737 7.15868 4.14204C6.89735 4.23626 6.65557 4.36671 6.43335 4.53337L5.46668 3.56671C5.68891 3.40004 5.92779 3.24715 6.18335 3.10804C6.43891 2.96937 6.71113 2.86671 7.00002 2.80004V2.33337C7.00002 2.0556 7.09735 1.8196 7.29202 1.62537C7.48624 1.43071 7.72224 1.33337 8.00002 1.33337C8.27779 1.33337 8.51379 1.43071 8.70802 1.62537C8.90268 1.8196 9.00002 2.0556 9.00002 2.33337V2.80004C9.86668 3.02226 10.5834 3.48604 11.15 4.19137C11.7167 4.89715 12 5.72226 12 6.66671V10.1ZM8.00002 14.6667C7.63335 14.6667 7.31957 14.5363 7.05868 14.2754C6.79735 14.014 6.66668 13.7 6.66668 13.3334H9.33335C9.33335 13.7 9.20291 14.014 8.94202 14.2754C8.68068 14.5363 8.36668 14.6667 8.00002 14.6667Z" fill="black"/>
</svg>
