<svg width="17" height="16" viewBox="0 0 17 16" fill="none" xmlns="http://www.w3.org/2000/svg">
<path d="M3.16683 13.3333C2.80016 13.3333 2.48639 13.2029 2.2255 12.942C1.96416 12.6807 1.8335 12.3667 1.8335 12V4.00001C1.8335 3.63334 1.96416 3.31956 2.2255 3.05867C2.48639 2.79734 2.80016 2.66667 3.16683 2.66667H13.8335C14.2002 2.66667 14.5142 2.79734 14.7755 3.05867C15.0364 3.31956 15.1668 3.63334 15.1668 4.00001V12C15.1668 12.3667 15.0364 12.6807 14.7755 12.942C14.5142 13.2029 14.2002 13.3333 13.8335 13.3333H3.16683ZM8.50016 8.66667L3.16683 5.33334V12H13.8335V5.33334L8.50016 8.66667ZM8.50016 7.33334L13.8335 4.00001H3.16683L8.50016 7.33334ZM3.16683 5.33334V4.00001V12V5.33334Z" fill="black"/>
</svg>
