<svg width="65" height="64" viewBox="0 0 65 64" fill="none" xmlns="http://www.w3.org/2000/svg">
<path d="M32.4997 58.6668C28.7219 58.6668 25.2108 57.9891 21.9663 56.6335C18.7219 55.2779 15.8997 53.4002 13.4997 51.0002C11.0997 48.6002 9.2219 45.7779 7.86634 42.5335C6.51079 39.2891 5.83301 35.7779 5.83301 32.0002C5.83301 28.2668 6.51079 24.7779 7.86634 21.5335C9.2219 18.2891 11.0997 15.4668 13.4997 13.0668C15.8997 10.6668 18.7219 8.77794 21.9663 7.40016C25.2108 6.02239 28.7219 5.3335 32.4997 5.3335C36.233 5.3335 39.7219 6.02239 42.9663 7.40016C46.2108 8.77794 49.033 10.6668 51.433 13.0668C53.833 15.4668 55.7219 18.2891 57.0997 21.5335C58.4775 24.7779 59.1663 28.2668 59.1663 32.0002C59.1663 35.7779 58.4775 39.2891 57.0997 42.5335C55.7219 45.7779 53.833 48.6002 51.433 51.0002C49.033 53.4002 46.2108 55.2779 42.9663 56.6335C39.7219 57.9891 36.233 58.6668 32.4997 58.6668ZM28.5663 44.1335L47.433 25.2668L44.3663 22.2668L28.5663 38.0668L20.5663 30.0668L17.5663 33.0668L28.5663 44.1335Z" fill="#00CF7F"/>
</svg>
