<svg width="24" height="24" viewBox="0 0 24 24" fill="none" xmlns="http://www.w3.org/2000/svg">
<path d="M17.85 19.9501L13.425 15.5251L15.525 13.4251L19.95 17.8501C20.2333 18.1334 20.375 18.4834 20.375 18.9001C20.375 19.3168 20.2333 19.6668 19.95 19.9501C19.6667 20.2334 19.3167 20.3751 18.9 20.3751C18.4833 20.3751 18.1333 20.2334 17.85 19.9501ZM4.04999 19.9501C3.76665 19.6668 3.62499 19.3168 3.62499 18.9001C3.62499 18.4834 3.76665 18.1334 4.04999 17.8501L9.89999 12.0001L8.19999 10.3001C7.98332 10.5168 7.74165 10.6168 7.47499 10.6001C7.20832 10.5834 6.98332 10.4834 6.79999 10.3001L6.22499 9.7251V11.7751L6.04999 11.9501C5.89999 12.1001 5.72499 12.1751 5.52499 12.1751C5.32499 12.1751 5.14999 12.1001 4.99999 11.9501L3.02499 9.9751C2.87499 9.8251 2.79999 9.6501 2.79999 9.4501C2.79999 9.2501 2.87499 9.0751 3.02499 8.9251L3.19999 8.7501H5.24999L4.69999 8.2001C4.49999 8.0001 4.39999 7.76676 4.39999 7.5001C4.39999 7.23343 4.49999 7.0001 4.69999 6.8001L7.54999 3.9501C7.88332 3.61676 8.24165 3.3751 8.62499 3.2251C9.00832 3.0751 9.39999 3.0001 9.79999 3.0001C10.2 3.0001 10.5917 3.0751 10.975 3.2251C11.3583 3.3751 11.7167 3.61676 12.05 3.9501L9.74999 6.2501L10.3 6.8001C10.4833 6.98343 10.5833 7.20843 10.6 7.4751C10.6167 7.74176 10.5167 7.98343 10.3 8.2001L12 9.9001L14.25 7.6501C14.1833 7.46676 14.1293 7.2751 14.088 7.0751C14.046 6.8751 14.025 6.6751 14.025 6.4751C14.025 5.49176 14.3627 4.66243 15.038 3.9871C15.7127 3.31243 16.5417 2.9751 17.525 2.9751C17.775 2.9751 18.0127 3.0001 18.238 3.0501C18.4627 3.1001 18.6917 3.1751 18.925 3.2751L16.45 5.7501L18.25 7.5501L20.725 5.0751C20.8417 5.30843 20.921 5.53743 20.963 5.7621C21.0043 5.98743 21.025 6.2251 21.025 6.4751C21.025 7.45843 20.6877 8.28743 20.013 8.9621C19.3377 9.63743 18.5083 9.9751 17.525 9.9751C17.325 9.9751 17.125 9.95843 16.925 9.9251C16.725 9.89176 16.5333 9.83343 16.35 9.7501L6.14999 19.9501C5.86665 20.2334 5.51665 20.3751 5.09999 20.3751C4.68332 20.3751 4.33332 20.2334 4.04999 19.9501Z" fill="#1781F4"/>
</svg>
