<svg width="24" height="24" viewBox="0 0 24 24" fill="none" xmlns="http://www.w3.org/2000/svg">
<path d="M9.8 8.08034C10.3302 8.08034 10.76 7.65053 10.76 7.12034C10.76 6.59015 10.3302 6.16034 9.8 6.16034C9.2698 6.16034 8.84 6.59015 8.84 7.12034C8.84 7.65053 9.2698 8.08034 9.8 8.08034Z" fill="#fff"/>
<path d="M14.6 8.08034C15.1302 8.08034 15.56 7.65053 15.56 7.12034C15.56 6.59015 15.1302 6.16034 14.6 6.16034C14.0698 6.16034 13.64 6.59015 13.64 7.12034C13.64 7.65053 14.0698 8.08034 14.6 8.08034Z" fill="#fff"/>
<path d="M9.8 11.9203H11.24V13.8403C1.36101 13.8403 18.4722 13.8403 13.16 13.8403V11.9203H14.6C15.873 11.9203 17.0939 11.4146 17.9941 10.5144C18.8943 9.61425 19.4 8.39335 19.4 7.12031C19.4 5.84727 18.8943 4.62637 17.9941 3.7262C17.0939 2.82603 15.873 2.32031 14.6 2.32031H9.8C8.52696 2.32031 7.30606 2.82603 6.40589 3.7262C5.50571 4.62637 5 5.84727 5 7.12031C5 8.39335 5.50571 9.61425 6.40589 10.5144C7.30606 11.4146 8.52696 11.9203 9.8 11.9203ZM9.8 4.24031H14.6C15.3638 4.24031 16.0964 4.54374 16.6365 5.08384C17.1766 5.62395 17.48 6.35649 17.48 7.12031C17.48 7.88414 17.1766 8.61668 16.6365 9.15678C16.0964 9.69689 15.3638 10.0003 14.6 10.0003H9.8C9.03618 10.0003 8.30364 9.69689 7.76353 9.15678C7.22343 8.61668 6.92 7.88414 6.92 7.12031C6.92 6.35649 7.22343 5.62395 7.76353 5.08384C8.30364 4.54374 9.03618 4.24031 9.8 4.24031Z" fill="#fff"/>
<path d="M12.2 23.0003C11.4917 23.0003 10.8333 22.8732 10.225 22.6191C9.61666 22.3649 9.0875 22.0128 8.6375 21.5628C8.1875 21.1128 7.83541 20.5836 7.58125 19.9753C7.32708 19.367 7.2 18.7086 7.2 18.0003C7.2 17.3003 7.32708 16.6461 7.58125 16.0378C7.83541 15.4295 8.1875 14.9003 8.6375 14.4503C9.0875 14.0003 9.61666 13.6461 10.225 13.3878C10.8333 13.1295 11.4917 13.0003 12.2 13.0003C12.9 13.0003 13.5542 13.1295 14.1625 13.3878C14.7708 13.6461 15.3 14.0003 15.75 14.4503C16.2 14.9003 16.5542 15.4295 16.8125 16.0378C17.0708 16.6461 17.2 17.3003 17.2 18.0003C17.2 18.7086 17.0708 19.367 16.8125 19.9753C16.5542 20.5836 16.2 21.1128 15.75 21.5628C15.3 22.0128 14.7708 22.3649 14.1625 22.6191C13.5542 22.8732 12.9 23.0003 12.2 23.0003ZM10.325 19.8753H14.075V16.1253H10.325V19.8753Z" fill="#fff"/>
</svg>
