<svg width="25" height="24" viewBox="0 0 25 24" fill="none" xmlns="http://www.w3.org/2000/svg">
<path d="M18.375 20.375C18.0417 20.375 17.725 20.3127 17.425 20.188C17.125 20.0627 16.85 19.875 16.6 19.625L11.6 14.6C11.2667 14.7333 10.9293 14.8333 10.588 14.9C10.246 14.9667 9.88333 15 9.5 15C7.83333 15 6.41667 14.4167 5.25 13.25C4.08333 12.0833 3.5 10.6667 3.5 9C3.5 8.4 3.58333 7.829 3.75 7.287C3.91667 6.74567 4.15 6.23333 4.45 5.75L8.1 9.4L9.9 7.6L6.25 3.95C6.73333 3.65 7.24567 3.41667 7.787 3.25C8.329 3.08333 8.9 3 9.5 3C11.1667 3 12.5833 3.58333 13.75 4.75C14.9167 5.91667 15.5 7.33333 15.5 9C15.5 9.38333 15.4667 9.74567 15.4 10.087C15.3333 10.429 15.2333 10.7667 15.1 11.1L20.15 16.1C20.4 16.35 20.5877 16.625 20.713 16.925C20.8377 17.225 20.9 17.5417 20.9 17.875C20.9 18.2083 20.8333 18.529 20.7 18.837C20.5667 19.1457 20.3833 19.4167 20.15 19.65C19.9 19.9 19.625 20.0833 19.325 20.2C19.025 20.3167 18.7083 20.375 18.375 20.375Z" fill="white"/>
</svg>
