<svg width="16" height="16" viewBox="0 0 16 16" fill="none" xmlns="http://www.w3.org/2000/svg">
<path d="M7.99984 7.98334C7.2665 7.98334 6.6665 7.75 6.19984 7.28334C5.73317 6.81667 5.49984 6.21667 5.49984 5.48334C5.49984 4.75 5.73317 4.15 6.19984 3.68334C6.6665 3.21667 7.2665 2.98334 7.99984 2.98334C8.73317 2.98334 9.33317 3.21667 9.79984 3.68334C10.2665 4.15 10.4998 4.75 10.4998 5.48334C10.4998 6.21667 10.2665 6.81667 9.79984 7.28334C9.33317 7.75 8.73317 7.98334 7.99984 7.98334ZM2.6665 13.3333V11.7667C2.6665 11.3444 2.77206 10.9833 2.98317 10.6833C3.19428 10.3833 3.4665 10.1556 3.79984 10C4.54428 9.66667 5.25817 9.41667 5.9415 9.25C6.62484 9.08334 7.31095 9 7.99984 9C8.68873 9 9.37206 9.08611 10.0498 9.25834C10.7276 9.43056 11.4387 9.67778 12.1832 10C12.5276 10.1556 12.8054 10.3833 13.0165 10.6833C13.2276 10.9833 13.3332 11.3444 13.3332 11.7667V13.3333H2.6665Z" fill="black"/>
</svg>
