<svg width="24" height="24" viewBox="0 0 24 24" fill="none" xmlns="http://www.w3.org/2000/svg">
<path d="M11.2729 22H16.4583C17.3292 22 18.0747 21.6899 18.6948 21.0698C19.3149 20.4497 19.625 19.7042 19.625 18.8333V7.86875C19.625 7.31458 19.4337 6.84618 19.051 6.46354C18.6684 6.0809 18.2 5.88958 17.6458 5.88958C17.5799 5.88958 17.5139 5.88958 17.4479 5.88958C17.3819 5.88958 17.316 5.90278 17.25 5.92917V5.69167C17.25 5.15069 17.0587 4.68546 16.676 4.29596C16.2934 3.90699 15.825 3.7125 15.2708 3.7125C15.1257 3.7125 14.9938 3.72226 14.875 3.74179C14.7563 3.76185 14.6375 3.80486 14.5188 3.87083C14.334 3.60694 14.1031 3.39583 13.826 3.2375C13.549 3.07917 13.2389 3 12.8958 3C12.434 3 11.9886 3.14514 11.5595 3.43542C11.1309 3.72569 10.9167 4.20069 10.9167 4.86042C10.8507 4.83403 10.7847 4.82083 10.7188 4.82083C10.6528 4.82083 10.5868 4.82083 10.5208 4.82083C9.96667 4.82083 9.49826 5.01215 9.11563 5.39479C8.73299 5.77743 8.54167 6.24583 8.54167 6.8V14.4L6.44375 13.3313C6.14028 13.1861 5.82704 13.1333 5.50404 13.1729C5.18051 13.2125 4.88681 13.3444 4.62292 13.5688L3 14.9937L8.77917 21.0104C9.08264 21.3271 9.46528 21.5712 9.92708 21.7427C10.3889 21.9142 10.8375 22 11.2729 22ZM11.2729 20.4167C11.0486 20.4167 10.8045 20.3737 10.5406 20.2876C10.2767 20.2021 10.0722 20.0868 9.92708 19.9417L5.29583 15.1125L5.69167 14.7167L10.125 16.9729V6.8C10.125 6.68125 10.1612 6.58546 10.2335 6.51262C10.3063 6.44032 10.4021 6.40417 10.5208 6.40417C10.6396 6.40417 10.7354 6.44032 10.8082 6.51262C10.8805 6.58546 10.9167 6.68125 10.9167 6.8V12.5H12.5V4.97917C12.5 4.86042 12.5362 4.76463 12.6085 4.69179C12.6813 4.61949 12.7771 4.58333 12.8958 4.58333C13.0146 4.58333 13.1104 4.61949 13.1832 4.69179C13.2555 4.76463 13.2917 4.86042 13.2917 4.97917V12.5H14.875V5.69167C14.875 5.58611 14.9114 5.49375 14.9843 5.41458C15.0566 5.33542 15.1521 5.29583 15.2708 5.29583C15.3896 5.29583 15.4854 5.33542 15.5582 5.41458C15.6305 5.49375 15.6667 5.58611 15.6667 5.69167V12.5H17.25V7.86875C17.25 7.75 17.2864 7.65421 17.3593 7.58138C17.4316 7.50907 17.5271 7.47292 17.6458 7.47292C17.7646 7.47292 17.8604 7.50907 17.9332 7.58138C18.0055 7.65421 18.0417 7.75 18.0417 7.86875V18.8333C18.0417 19.2688 17.8868 19.6416 17.577 19.952C17.2666 20.2618 16.8938 20.4167 16.4583 20.4167H13.8656H11.2729Z" fill="#646669"/>
</svg>
