<svg width="16" height="16" viewBox="0 0 16 16" fill="none" xmlns="http://www.w3.org/2000/svg">
<path d="M6.66683 7.99984C5.9335 7.99984 5.30572 7.73873 4.7835 7.2165C4.26127 6.69428 4.00016 6.0665 4.00016 5.33317C4.00016 4.59984 4.26127 3.97206 4.7835 3.44984C5.30572 2.92762 5.9335 2.6665 6.66683 2.6665C7.40016 2.6665 8.02794 2.92762 8.55016 3.44984C9.07239 3.97206 9.3335 4.59984 9.3335 5.33317C9.3335 6.0665 9.07239 6.69428 8.55016 7.2165C8.02794 7.73873 7.40016 7.99984 6.66683 7.99984ZM2.00016 13.3332C1.81127 13.3332 1.65305 13.2692 1.5255 13.1412C1.3975 13.0136 1.3335 12.8554 1.3335 12.6665V11.4665C1.3335 11.0998 1.42794 10.7554 1.61683 10.4332C1.80572 10.1109 2.06683 9.8665 2.40016 9.69984C2.96683 9.41095 3.60572 9.1665 4.31683 8.9665C5.02794 8.7665 5.81127 8.6665 6.66683 8.6665C6.75572 8.6665 6.8335 8.6665 6.90016 8.6665C6.96683 8.6665 7.0335 8.67761 7.10016 8.69984C7.01127 8.89984 6.93616 9.10828 6.87483 9.32517C6.81394 9.54161 6.76683 9.7665 6.7335 9.99984H6.66683C5.87794 9.99984 5.1695 10.0998 4.5415 10.2998C3.91394 10.4998 3.40016 10.6998 3.00016 10.8998C2.90016 10.9554 2.81972 11.0332 2.75883 11.1332C2.6975 11.2332 2.66683 11.3443 2.66683 11.4665V11.9998H6.86683C6.9335 12.2332 7.02239 12.4638 7.1335 12.6918C7.24461 12.9194 7.36683 13.1332 7.50016 13.3332H2.00016ZM6.66683 6.6665C7.0335 6.6665 7.3475 6.53584 7.60883 6.2745C7.86972 6.01361 8.00016 5.69984 8.00016 5.33317C8.00016 4.9665 7.86972 4.65273 7.60883 4.39184C7.3475 4.1305 7.0335 3.99984 6.66683 3.99984C6.30016 3.99984 5.98639 4.1305 5.7255 4.39184C5.46416 4.65273 5.3335 4.9665 5.3335 5.33317C5.3335 5.69984 5.46416 6.01361 5.7255 6.2745C5.98639 6.53584 6.30016 6.6665 6.66683 6.6665ZM11.3335 11.9998C11.7002 11.9998 12.0142 11.8694 12.2755 11.6085C12.5364 11.3472 12.6668 11.0332 12.6668 10.6665C12.6668 10.2998 12.5364 9.98584 12.2755 9.7245C12.0142 9.46361 11.7002 9.33317 11.3335 9.33317C10.9668 9.33317 10.6531 9.46361 10.3922 9.7245C10.1308 9.98584 10.0002 10.2998 10.0002 10.6665C10.0002 11.0332 10.1308 11.3472 10.3922 11.6085C10.6531 11.8694 10.9668 11.9998 11.3335 11.9998ZM10.4668 12.9998C10.3335 12.9443 10.2084 12.8861 10.0915 12.8252C9.97505 12.7638 9.85572 12.6887 9.7335 12.5998L9.01683 12.8165C8.93905 12.8387 8.86683 12.8358 8.80016 12.8078C8.7335 12.7803 8.67794 12.7332 8.6335 12.6665L8.2335 11.9998C8.18905 11.9332 8.17527 11.8609 8.19216 11.7832C8.20861 11.7054 8.25016 11.6387 8.31683 11.5832L8.86683 11.0998C8.84461 10.9443 8.8335 10.7998 8.8335 10.6665C8.8335 10.5332 8.84461 10.3887 8.86683 10.2332L8.31683 9.74984C8.25016 9.69428 8.20861 9.62761 8.19216 9.54984C8.17527 9.47206 8.18905 9.39984 8.2335 9.33317L8.6335 8.6665C8.67794 8.59984 8.7335 8.5525 8.80016 8.5245C8.86683 8.49695 8.93905 8.49428 9.01683 8.5165L9.7335 8.73317C9.85572 8.64428 9.97505 8.56917 10.0915 8.50784C10.2084 8.44695 10.3335 8.38873 10.4668 8.33317L10.6168 7.59984C10.6391 7.52206 10.6779 7.45828 10.7335 7.4085C10.7891 7.35828 10.8557 7.33317 10.9335 7.33317H11.7335C11.8113 7.33317 11.8779 7.35828 11.9335 7.4085C11.9891 7.45828 12.0279 7.52206 12.0502 7.59984L12.2002 8.33317C12.3335 8.38873 12.4586 8.44984 12.5755 8.5165C12.6919 8.58317 12.8113 8.6665 12.9335 8.7665L13.6335 8.5165C13.7113 8.48317 13.7864 8.48317 13.8588 8.5165C13.9308 8.54984 13.9891 8.59984 14.0335 8.6665L14.4335 9.3665C14.4779 9.43317 14.4946 9.50539 14.4835 9.58317C14.4724 9.66095 14.4335 9.72761 14.3668 9.78317L13.8002 10.2665C13.8224 10.3998 13.8335 10.5387 13.8335 10.6832C13.8335 10.8276 13.8224 10.9665 13.8002 11.0998L14.3502 11.5832C14.4168 11.6387 14.4584 11.7054 14.4748 11.7832C14.4917 11.8609 14.4779 11.9332 14.4335 11.9998L14.0335 12.6665C13.9891 12.7332 13.9335 12.7803 13.8668 12.8078C13.8002 12.8358 13.7279 12.8387 13.6502 12.8165L12.9335 12.5998C12.8113 12.6887 12.6919 12.7638 12.5755 12.8252C12.4586 12.8861 12.3335 12.9443 12.2002 12.9998L12.0502 13.7332C12.0279 13.8109 11.9891 13.8747 11.9335 13.9245C11.8779 13.9747 11.8113 13.9998 11.7335 13.9998H10.9335C10.8557 13.9998 10.7891 13.9747 10.7335 13.9245C10.6779 13.8747 10.6391 13.8109 10.6168 13.7332L10.4668 12.9998Z" fill="black"/>
</svg>
