<svg width="16" height="16" fill="none" xmlns="http://www.w3.org/2000/svg"><path d="M7.334 13.967c-1.345-.167-2.459-.753-3.342-1.759-.883-1.005-1.325-2.186-1.325-3.541A5.288 5.288 0 014.334 4.8l.95.95a3.753 3.753 0 00-.958 1.317A3.977 3.977 0 004 8.667c0 .977.311 1.841.934 2.591.622.75 1.422 1.209 2.4 1.375v1.334zm1.333 0v-1.334a3.977 3.977 0 002.391-1.383A3.888 3.888 0 0012 8.667c0-1.111-.389-2.056-1.166-2.834C10.056 5.056 9.11 4.667 8 4.667h-.05l.734.733-.934.933L5.417 4 7.75 1.667l.934.933-.734.733H8c1.49 0 2.75.517 3.784 1.55 1.033 1.034 1.55 2.295 1.55 3.784 0 1.344-.442 2.52-1.325 3.525-.884 1.005-1.998 1.597-3.342 1.775z" fill="#646669"/></svg>