<svg width="20" height="20" viewBox="0 0 20 20" fill="none" xmlns="http://www.w3.org/2000/svg">
<path d="M9.99992 9.97925C9.08325 9.97925 8.33325 9.68758 7.74992 9.10425C7.16659 8.52092 6.87492 7.77092 6.87492 6.85425C6.87492 5.93758 7.16659 5.18758 7.74992 4.60425C8.33325 4.02091 9.08325 3.72925 9.99992 3.72925C10.9166 3.72925 11.6666 4.02091 12.2499 4.60425C12.8333 5.18758 13.1249 5.93758 13.1249 6.85425C13.1249 7.77092 12.8333 8.52092 12.2499 9.10425C11.6666 9.68758 10.9166 9.97925 9.99992 9.97925ZM3.33325 16.6667V14.7084C3.33325 14.1806 3.4652 13.7292 3.72909 13.3542C3.99297 12.9792 4.33325 12.6945 4.74992 12.5001C5.68047 12.0834 6.57284 11.7709 7.427 11.5626C8.28117 11.3542 9.13881 11.2501 9.99992 11.2501C10.861 11.2501 11.7152 11.3577 12.5624 11.573C13.4096 11.7883 14.2985 12.0973 15.2291 12.5001C15.6596 12.6945 16.0069 12.9792 16.2708 13.3542C16.5346 13.7292 16.6666 14.1806 16.6666 14.7084V16.6667H3.33325ZM4.58325 15.4167H15.4166V14.7084C15.4166 14.4862 15.3506 14.2744 15.2187 14.073C15.0867 13.8716 14.9235 13.7223 14.7291 13.6251C13.8402 13.1945 13.0277 12.8994 12.2916 12.7397C11.5555 12.5799 10.7916 12.5001 9.99992 12.5001C9.20825 12.5001 8.43742 12.5799 7.68742 12.7397C6.93742 12.8994 6.12492 13.1945 5.24992 13.6251C5.05547 13.7223 4.89575 13.8716 4.77075 14.073C4.64575 14.2744 4.58325 14.4862 4.58325 14.7084V15.4167ZM9.99992 8.72925C10.5416 8.72925 10.9895 8.55216 11.3437 8.198C11.6978 7.84383 11.8749 7.39592 11.8749 6.85425C11.8749 6.31258 11.6978 5.86467 11.3437 5.5105C10.9895 5.15633 10.5416 4.97925 9.99992 4.97925C9.45825 4.97925 9.01033 5.15633 8.65617 5.5105C8.302 5.86467 8.12492 6.31258 8.12492 6.85425C8.12492 7.39592 8.302 7.84383 8.65617 8.198C9.01033 8.55216 9.45825 8.72925 9.99992 8.72925Z" fill="#fff"/>
</svg>
