<svg width="33" height="32" viewBox="0 0 33 32" fill="none" xmlns="http://www.w3.org/2000/svg">
<path d="M10.8338 29.3332C10.456 29.3332 10.1392 29.2052 9.88316 28.9492C9.62804 28.6941 9.50049 28.3776 9.50049 27.9998V6.6665C9.50049 6.28873 9.62804 5.97184 9.88316 5.71584C10.1392 5.46073 10.456 5.33317 10.8338 5.33317H13.5005V3.99984C13.5005 3.62206 13.6285 3.30517 13.8845 3.04917C14.1396 2.79406 14.456 2.6665 14.8338 2.6665H17.5005C17.8783 2.6665 18.1952 2.79406 18.4512 3.04917C18.7063 3.30517 18.8338 3.62206 18.8338 3.99984V5.33317H21.5005C21.8783 5.33317 22.1947 5.46073 22.4498 5.71584C22.7058 5.97184 22.8338 6.28873 22.8338 6.6665V27.9998C22.8338 28.3776 22.7058 28.6941 22.4498 28.9492C22.1947 29.2052 21.8783 29.3332 21.5005 29.3332H10.8338ZM16.2338 23.9998C16.6116 23.9998 16.9396 23.8612 17.2178 23.5838C17.4952 23.3056 17.6338 22.9776 17.6338 22.5998C17.6338 22.2221 17.4952 21.8941 17.2178 21.6158C16.9396 21.3385 16.6116 21.1998 16.2338 21.1998C15.856 21.1998 15.528 21.3385 15.2498 21.6158C14.9725 21.8941 14.8338 22.2221 14.8338 22.5998C14.8338 22.9776 14.9725 23.3056 15.2498 23.5838C15.528 23.8612 15.856 23.9998 16.2338 23.9998ZM16.1672 18.6665C16.5449 18.6665 16.8618 18.5385 17.1178 18.2825C17.3729 18.0274 17.5005 17.7109 17.5005 17.3332V11.9998C17.5005 11.6221 17.3729 11.3052 17.1178 11.0492C16.8618 10.7941 16.5449 10.6665 16.1672 10.6665C15.7894 10.6665 15.4729 10.7941 15.2178 11.0492C14.9618 11.3052 14.8338 11.6221 14.8338 11.9998V17.3332C14.8338 17.7109 14.9618 18.0274 15.2178 18.2825C15.4729 18.5385 15.7894 18.6665 16.1672 18.6665Z" fill="#646669"/>
</svg>
