<svg width="16" height="16" viewBox="0 0 16 16" fill="none" xmlns="http://www.w3.org/2000/svg">
<path d="M10.1997 11.1334L11.133 10.2L8.66634 7.73337V4.66671H7.33301V8.26671L10.1997 11.1334ZM7.99967 14.6667C7.07745 14.6667 6.21079 14.4916 5.39967 14.1414C4.58856 13.7916 3.88301 13.3167 3.28301 12.7167C2.68301 12.1167 2.20812 11.4112 1.85834 10.6C1.50812 9.78893 1.33301 8.92226 1.33301 8.00004C1.33301 7.07782 1.50812 6.21115 1.85834 5.40004C2.20812 4.58893 2.68301 3.88337 3.28301 3.28337C3.88301 2.68337 4.58856 2.20826 5.39967 1.85804C6.21079 1.50826 7.07745 1.33337 7.99967 1.33337C8.9219 1.33337 9.78856 1.50826 10.5997 1.85804C11.4108 2.20826 12.1163 2.68337 12.7163 3.28337C13.3163 3.88337 13.7912 4.58893 14.141 5.40004C14.4912 6.21115 14.6663 7.07782 14.6663 8.00004C14.6663 8.92226 14.4912 9.78893 14.141 10.6C13.7912 11.4112 13.3163 12.1167 12.7163 12.7167C12.1163 13.3167 11.4108 13.7916 10.5997 14.1414C9.78856 14.4916 8.9219 14.6667 7.99967 14.6667ZM7.99967 13.3334C9.47745 13.3334 10.7359 12.814 11.775 11.7754C12.8137 10.7363 13.333 9.47782 13.333 8.00004C13.333 6.52226 12.8137 5.26382 11.775 4.22471C10.7359 3.18604 9.47745 2.66671 7.99967 2.66671C6.5219 2.66671 5.26367 3.18604 4.22501 4.22471C3.1859 5.26382 2.66634 6.52226 2.66634 8.00004C2.66634 9.47782 3.1859 10.7363 4.22501 11.7754C5.26367 12.814 6.5219 13.3334 7.99967 13.3334Z" fill="#646669"/>
</svg>
