<svg width="24" height="24" viewBox="0 0 24 24" fill="none" xmlns="http://www.w3.org/2000/svg">
<path d="M8.25 7.1L11.95 10.8L15.65 7.1L14.6 6.05L12.675 7.95V4H11.175V7.95L9.3 6.05L8.25 7.1Z" fill="#646669"/>
<path fill-rule="evenodd" clip-rule="evenodd" d="M5.25 15.8C5.25 14.5573 6.25736 13.55 7.5 13.55H16.5C17.7426 13.55 18.75 14.5573 18.75 15.8V20.05H5.25V15.8ZM7.5 15.05C7.08579 15.05 6.75 15.3858 6.75 15.8V18.55H17.25V15.8C17.25 15.3858 16.9142 15.05 16.5 15.05H7.5Z" fill="#646669"/>
<path fill-rule="evenodd" clip-rule="evenodd" d="M22 20.3H2V18.8H22V20.3Z" fill="#646669"/>
</svg>
