<svg width="16" height="16" viewBox="0 0 16 16" fill="none" xmlns="http://www.w3.org/2000/svg">
<path d="M3.33333 12.6667H12.6667V6.55L9.45 3.33333H3.33333V12.6667ZM3.33333 14C2.96667 14 2.65267 13.8696 2.39133 13.6087C2.13044 13.3473 2 13.0333 2 12.6667V3.33333C2 2.96667 2.13044 2.65267 2.39133 2.39133C2.65267 2.13044 2.96667 2 3.33333 2H10L14 6V12.6667C14 13.0333 13.8696 13.3473 13.6087 13.6087C13.3473 13.8696 13.0333 14 12.6667 14H3.33333ZM4.66667 11.3333H11.3333V10H4.66667V11.3333ZM4.66667 8.66667H11.3333V7.33333H4.66667V8.66667ZM4.66667 6H9.33333V4.66667H4.66667V6ZM3.33333 12.6667V3.33333V6.55V12.6667Z" fill="#1781F4"/>
</svg>
