<svg width="24" height="24" viewBox="0 0 24 24" fill="none" xmlns="http://www.w3.org/2000/svg">
<path d="M12 21L0 9C1.58333 7.45 3.40833 6.22917 5.475 5.3375C7.54167 4.44583 9.71667 4 12 4C14.2833 4 16.4625 4.44583 18.5375 5.3375C20.6125 6.22917 22.4333 7.45 24 9L22.925 10.075C21.4083 8.725 19.7417 7.625 17.925 6.775C16.1083 5.925 14.1333 5.5 12 5.5C10.0833 5.5 8.29167 5.85 6.625 6.55C4.95833 7.25 3.48333 8.11667 2.2 9.15L13.025 19.975L12 21Z" fill="#fff"/>
<path d="M16.8882 17.0855L18.25 15.7434L19.5921 17.0855L20.046 16.6316L18.6842 15.2697L20.0855 13.8684L19.6316 13.4145L18.25 14.7961L16.8684 13.4145L16.4145 13.8684L17.7961 15.25L16.4145 16.6316L16.8882 17.0855ZM18.25 19C17.2237 19 16.3421 18.6349 15.6053 17.9046C14.8684 17.1743 14.5 16.2961 14.5 15.2697C14.5 14.2303 14.8684 13.3421 15.6053 12.6053C16.3421 11.8684 17.2237 11.5 18.25 11.5C19.2763 11.5 20.1579 11.8684 20.8947 12.6053C21.6316 13.3421 22 14.2303 22 15.2697C22 16.2961 21.6316 17.1743 20.8947 17.9046C20.1579 18.6349 19.2763 19 18.25 19Z" fill="#fff"/>
</svg>
