<svg width="33" height="32" viewBox="0 0 33 32" fill="none" xmlns="http://www.w3.org/2000/svg">
<path d="M11.5003 29.3332C11.1225 29.3332 10.8057 29.2052 10.5497 28.9492C10.2945 28.6941 10.167 28.3776 10.167 27.9998V6.6665C10.167 6.28873 10.2945 5.97184 10.5497 5.71584C10.8057 5.46073 11.1225 5.33317 11.5003 5.33317H14.167V3.99984C14.167 3.62206 14.295 3.30517 14.551 3.04917C14.8061 2.79406 15.1225 2.6665 15.5003 2.6665H18.167C18.5448 2.6665 18.8617 2.79406 19.1177 3.04917C19.3728 3.30517 19.5003 3.62206 19.5003 3.99984V5.33317H22.167C22.5448 5.33317 22.8612 5.46073 23.1163 5.71584C23.3723 5.97184 23.5003 6.28873 23.5003 6.6665V27.9998C23.5003 28.3776 23.3723 28.6941 23.1163 28.9492C22.8612 29.2052 22.5448 29.3332 22.167 29.3332H11.5003ZM12.8337 25.3332H20.8337V7.99984H12.8337V25.3332Z" fill="#646669"/>
</svg>
