<svg width="16" height="16" viewBox="0 0 16 16" fill="none" xmlns="http://www.w3.org/2000/svg">
<path d="M0 6C0 2.68629 2.68629 0 6 0H10C13.3137 0 16 2.68629 16 6V10C16 13.3137 13.3137 16 10 16H6C2.68629 16 0 13.3137 0 10V6Z" fill="none"/>
<path fill-rule="evenodd" clip-rule="evenodd" d="M10.0202 3.47978C9.82495 3.28452 9.50837 3.28452 9.3131 3.47978L5.14644 7.64645C4.95117 7.84171 4.95117 8.15829 5.14644 8.35355L9.3131 12.5202C9.50837 12.7155 9.82495 12.7155 10.0202 12.5202C10.2155 12.325 10.2155 12.0084 10.0202 11.8131L6.2071 8L10.0202 4.18689C10.2155 3.99162 10.2155 3.67504 10.0202 3.47978Z" fill="white"/>
</svg>
