<svg width="33" height="32" viewBox="0 0 33 32" fill="none" xmlns="http://www.w3.org/2000/svg">
<path d="M11.1673 29.3332C10.7895 29.3332 10.4727 29.2052 10.2167 28.9492C9.96154 28.6941 9.83398 28.3776 9.83398 27.9998V6.6665C9.83398 6.28873 9.96154 5.97184 10.2167 5.71584C10.4727 5.46073 10.7895 5.33317 11.1673 5.33317H13.834V3.99984C13.834 3.62206 13.962 3.30517 14.218 3.04917C14.4731 2.79406 14.7895 2.6665 15.1673 2.6665H17.834C18.2118 2.6665 18.5287 2.79406 18.7847 3.04917C19.0398 3.30517 19.1673 3.62206 19.1673 3.99984V5.33317H21.834C22.2118 5.33317 22.5282 5.46073 22.7833 5.71584C23.0393 5.97184 23.1673 6.28873 23.1673 6.6665V27.9998C23.1673 28.3776 23.0393 28.6941 22.7833 28.9492C22.5282 29.2052 22.2118 29.3332 21.834 29.3332H11.1673ZM16.5007 23.9998C16.8784 23.9998 17.2064 23.8612 17.4847 23.5838C17.762 23.3056 17.9007 22.9776 17.9007 22.5998C17.9007 22.2221 17.762 21.8941 17.4847 21.6158C17.2064 21.3385 16.8784 21.1998 16.5007 21.1998C16.1229 21.1998 15.7953 21.3385 15.518 21.6158C15.2398 21.8941 15.1007 22.2221 15.1007 22.5998C15.1007 22.9776 15.2398 23.3056 15.518 23.5838C15.7953 23.8612 16.1229 23.9998 16.5007 23.9998ZM16.5007 19.7332C16.7451 19.7332 16.9727 19.6443 17.1833 19.4665C17.3949 19.2887 17.5451 19.0554 17.634 18.7665C17.9007 17.7665 18.4118 17.0443 19.1673 16.5998C19.9229 16.1554 20.3007 15.3776 20.3007 14.2665C20.3007 13.1332 19.9504 12.2496 19.25 11.6158C18.5504 10.9829 17.634 10.6665 16.5007 10.6665C15.7229 10.6665 15.0451 10.8443 14.4673 11.1998C13.8895 11.5554 13.434 11.9998 13.1007 12.5332C12.9673 12.7776 12.9562 13.0332 13.0673 13.2998C13.1784 13.5665 13.3784 13.7554 13.6673 13.8665C13.8895 13.9554 14.1064 13.9554 14.318 13.8665C14.5287 13.7776 14.7229 13.6221 14.9007 13.3998C15.0784 13.1776 15.2953 12.9887 15.5513 12.8332C15.8064 12.6776 16.1229 12.5998 16.5007 12.5998C17.1451 12.5998 17.6064 12.7665 17.8847 13.0998C18.162 13.4332 18.3007 13.7998 18.3007 14.1998C18.3007 14.6665 18.1784 15.0332 17.934 15.2998C17.6895 15.5665 17.4118 15.8332 17.1007 16.0998C16.7895 16.3665 16.4842 16.6941 16.1846 17.0825C15.8842 17.4718 15.6784 18.0221 15.5673 18.7332C15.5229 18.9998 15.5953 19.2332 15.7847 19.4332C15.9731 19.6332 16.2118 19.7332 16.5007 19.7332Z" fill="#646669"/>
</svg>
