<svg width="12" height="12" viewBox="0 0 12 12" fill="none" xmlns="http://www.w3.org/2000/svg">
<path fill-rule="evenodd" clip-rule="evenodd" d="M2.625 4.25C1.6092 4.25 0.75 5.19755 0.75 6.125C0.75 7.05245 1.6092 8 2.625 8C3.13339 8 3.63207 7.77172 4.1558 7.3734C4.60114 7.03468 5.03505 6.59652 5.48358 6.125C5.03505 5.65349 4.60114 5.21532 4.1558 4.8766C3.63207 4.47828 3.13339 4.25 2.625 4.25ZM6 5.57962C5.55632 5.11374 5.0937 4.64767 4.60983 4.27965C4.02418 3.83422 3.36661 3.5 2.625 3.5C1.17129 3.5 0 4.80744 0 6.125C0 7.44256 1.17129 8.75 2.625 8.75C3.36661 8.75 4.02418 8.41578 4.60983 7.97035C5.0937 7.60233 5.55632 7.13626 6 6.67038C6.44368 7.13626 6.9063 7.60233 7.39017 7.97035C7.97582 8.41578 8.63339 8.75 9.375 8.75C10.8287 8.75 12 7.44256 12 6.125C12 4.80744 10.8287 3.5 9.375 3.5C8.63339 3.5 7.97582 3.83422 7.39017 4.27965C6.9063 4.64767 6.44368 5.11374 6 5.57962ZM6.51642 6.125C6.96495 6.59651 7.39886 7.03468 7.8442 7.3734C8.36793 7.77172 8.86661 8 9.375 8C10.3908 8 11.25 7.05245 11.25 6.125C11.25 5.19755 10.3908 4.25 9.375 4.25C8.86661 4.25 8.36793 4.47828 7.8442 4.8766C7.39886 5.21532 6.96495 5.65349 6.51642 6.125Z" fill="black"/>
</svg>
