<svg width="16" height="16" viewBox="0 0 16 16" fill="none" xmlns="http://www.w3.org/2000/svg">
<path d="M8.66663 5.00002C8.66663 5.36821 8.36815 5.66669 7.99996 5.66669C7.63177 5.66669 7.33329 5.36821 7.33329 5.00002C7.33329 4.63183 7.63177 4.33335 7.99996 4.33335C8.36815 4.33335 8.66663 4.63183 8.66663 5.00002Z" fill="#646669"/>
<path d="M6.66663 7.50002C6.66663 7.22388 6.89048 7.00002 7.16663 7.00002H8.16663C8.44277 7.00002 8.66663 7.22388 8.66663 7.50002V10.3334H9.16663C9.44277 10.3334 9.66663 10.5572 9.66663 10.8334C9.66663 11.1095 9.44277 11.3334 9.16663 11.3334H7.16663C6.89048 11.3334 6.66663 11.1095 6.66663 10.8334C6.66663 10.5572 6.89048 10.3334 7.16663 10.3334H7.66663V8.00002H7.16663C6.89048 8.00002 6.66663 7.77616 6.66663 7.50002Z" fill="#646669"/>
<path fill-rule="evenodd" clip-rule="evenodd" d="M7.99996 0.666687C3.94987 0.666687 0.666626 3.94993 0.666626 8.00002C0.666626 12.0501 3.94987 15.3334 7.99996 15.3334C12.05 15.3334 15.3333 12.0501 15.3333 8.00002C15.3333 3.94993 12.05 0.666687 7.99996 0.666687ZM1.66663 8.00002C1.66663 4.50222 4.50216 1.66669 7.99996 1.66669C11.4978 1.66669 14.3333 4.50222 14.3333 8.00002C14.3333 11.4978 11.4978 14.3334 7.99996 14.3334C4.50216 14.3334 1.66663 11.4978 1.66663 8.00002Z" fill="#646669"/>
</svg>
