<svg width="20" height="20" viewBox="0 0 20 20" fill="none" xmlns="http://www.w3.org/2000/svg">
<path d="M9.99984 18.3333L1.6665 5.83333C2.84706 4.83333 4.14234 4.02778 5.55234 3.41667C6.96178 2.80556 8.44428 2.5 9.99984 2.5C11.5554 2.5 13.0379 2.80222 14.4473 3.40667C15.8573 4.01056 17.1526 4.81944 18.3332 5.83333L9.99984 18.3333ZM9.99984 15.3333L16.0832 6.20833C15.1804 5.58333 14.2151 5.08667 13.1873 4.71833C12.1596 4.35056 11.0971 4.16667 9.99984 4.16667C8.90262 4.16667 7.84373 4.35056 6.82317 4.71833C5.80206 5.08667 4.83317 5.58333 3.9165 6.20833L9.99984 15.3333ZM7.9165 8.33333C8.26373 8.33333 8.55873 8.21167 8.8015 7.96833C9.04484 7.72556 9.1665 7.43056 9.1665 7.08333C9.1665 6.73611 9.04484 6.44111 8.8015 6.19833C8.55873 5.955 8.26373 5.83333 7.9165 5.83333C7.56928 5.83333 7.27428 5.955 7.0315 6.19833C6.78817 6.44111 6.6665 6.73611 6.6665 7.08333C6.6665 7.43056 6.78817 7.72556 7.0315 7.96833C7.27428 8.21167 7.56928 8.33333 7.9165 8.33333ZM9.99984 12.5C10.3471 12.5 10.6421 12.3783 10.8848 12.135C11.1282 11.8922 11.2498 11.5972 11.2498 11.25C11.2498 10.9028 11.1282 10.6078 10.8848 10.365C10.6421 10.1217 10.3471 10 9.99984 10C9.65262 10 9.35761 10.1217 9.11484 10.365C8.8715 10.6078 8.74984 10.9028 8.74984 11.25C8.74984 11.5972 8.8715 11.8922 9.11484 12.135C9.35761 12.3783 9.65262 12.5 9.99984 12.5Z" fill="#191F28"/>
</svg>
