<svg width="16" height="16" viewBox="0 0 16 16" fill="none" xmlns="http://www.w3.org/2000/svg">
<path d="M9.85341 2.43523C10.8782 1.41042 12.5398 1.41042 13.5646 2.43523C14.5894 3.46005 14.5894 5.12159 13.5646 6.14641L11.1463 8.56468C10.1215 9.58949 8.45994 9.58949 7.43513 8.56468C7.3598 8.48935 7.29013 8.41074 7.22607 8.32936C7.05527 8.11238 6.74091 8.07494 6.52393 8.24574C6.30694 8.41655 6.26951 8.73091 6.44031 8.94789C6.52876 9.06025 6.62468 9.16845 6.72803 9.27179C8.14336 10.6871 10.4381 10.6871 11.8534 9.27179L14.2717 6.85351C15.687 5.43818 15.687 3.14346 14.2717 1.72813C12.8564 0.312792 10.5616 0.312792 9.1463 1.72813L7.14628 3.72815C6.95102 3.92341 6.95102 4.24 7.14628 4.43526C7.34154 4.63052 7.65812 4.63052 7.85339 4.43526L9.85341 2.43523Z" fill="black"/>
<path d="M4.85339 7.43523C5.8782 6.41042 7.53975 6.41042 8.56456 7.43523C8.63993 7.5106 8.7096 7.5892 8.77362 7.67053C8.94443 7.88751 9.25879 7.92494 9.47577 7.75414C9.69275 7.58333 9.73018 7.26897 9.55938 7.05199C9.4709 6.93959 9.37496 6.83142 9.27167 6.72813C7.85633 5.31279 5.56162 5.31279 4.14628 6.72813L1.72801 9.14641C0.31267 10.5617 0.31267 12.8565 1.72801 14.2718C3.14334 15.6871 5.43805 15.6871 6.85339 14.2718L8.85339 12.2718C9.04865 12.0765 9.04865 11.7599 8.85339 11.5647C8.65813 11.3694 8.34154 11.3694 8.14628 11.5647L6.14628 13.5647C5.12147 14.5895 3.45992 14.5895 2.43511 13.5647C1.4103 12.5399 1.4103 10.8783 2.43511 9.85351L4.85339 7.43523Z" fill="black"/>
</svg>
