<svg width="16" height="16" viewBox="0 0 16 16" fill="none" xmlns="http://www.w3.org/2000/svg">
<path d="M2.40249 2.05916C2.56506 2.14617 2.66656 2.3156 2.66656 2.5V5.66667H3.16656C3.4427 5.66667 3.66656 5.89052 3.66656 6.16667C3.66656 6.44281 3.4427 6.66667 3.16656 6.66667H1.16656C0.890415 6.66667 0.666557 6.44281 0.666557 6.16667C0.666557 5.89052 0.890415 5.66667 1.16656 5.66667H1.66656V3.43426L1.44391 3.58269C1.21414 3.73587 0.903708 3.67378 0.750532 3.44402C0.597356 3.21425 0.659443 2.90382 0.889207 2.75064L1.88921 2.08398C2.04264 1.98169 2.23991 1.97215 2.40249 2.05916Z" fill="#646669"/>
<path d="M5.83325 3.66667C5.55711 3.66667 5.33325 3.89053 5.33325 4.16667C5.33325 4.44281 5.55711 4.66667 5.83325 4.66667H13.4999C13.7761 4.66667 13.9999 4.44281 13.9999 4.16667C13.9999 3.89053 13.7761 3.66667 13.4999 3.66667H5.83325Z" fill="#646669"/>
<path d="M5.83325 7.66667C5.55711 7.66667 5.33325 7.89053 5.33325 8.16667C5.33325 8.4428 5.55711 8.66667 5.83325 8.66667H13.4999C13.7761 8.66667 13.9999 8.4428 13.9999 8.16667C13.9999 7.89053 13.7761 7.66667 13.4999 7.66667H5.83325Z" fill="#646669"/>
<path d="M5.83325 11.6667C5.55711 11.6667 5.33325 11.8905 5.33325 12.1667C5.33325 12.4428 5.55711 12.6667 5.83325 12.6667H13.4999C13.7761 12.6667 13.9999 12.4428 13.9999 12.1667C13.9999 11.8905 13.7761 11.6667 13.4999 11.6667H5.83325Z" fill="#646669"/>
<path d="M3.66659 10.5C3.66659 10.031 3.48574 9.64248 3.18628 9.37628C2.89601 9.11824 2.5231 8.99994 2.16651 9C1.81001 9.00006 1.43716 9.11835 1.14691 9.37634C0.847449 9.64252 0.666585 10.031 0.666585 10.5C0.666585 10.7761 0.890443 11 1.16659 11C1.44273 11 1.66659 10.7761 1.66659 10.5C1.66659 10.3024 1.73572 10.1909 1.81126 10.1238C1.89601 10.0484 2.02316 10 2.16666 10C2.31007 9.99998 2.43716 10.0483 2.52189 10.1237C2.59743 10.1908 2.66659 10.3023 2.66659 10.5C2.66659 10.7217 2.62073 10.8194 2.52615 10.9377C2.46535 11.0137 2.38245 11.098 2.25813 11.2171C2.22765 11.2463 2.19474 11.2776 2.15972 11.3108C2.05883 11.4066 1.94038 11.5191 1.81303 11.6464L0.813032 12.6464C0.719264 12.7402 0.666585 12.8674 0.666585 13V13.1665C0.666585 13.4426 0.890443 13.6665 1.16659 13.6665H3.33325C3.60939 13.6665 3.83325 13.4426 3.83325 13.1665C3.83325 12.8904 3.60939 12.6665 3.33325 12.6665H2.20719L2.52014 12.3536C2.63753 12.2362 2.74165 12.1373 2.84027 12.0437C2.87743 12.0084 2.91402 11.9736 2.95004 11.9391C3.07572 11.8187 3.20116 11.6947 3.30702 11.5623C3.54577 11.2639 3.66659 10.945 3.66659 10.5Z" fill="#646669"/>
</svg>
