<svg width="16" height="16" viewBox="0 0 16 16" fill="none" xmlns="http://www.w3.org/2000/svg">
<path fill-rule="evenodd" clip-rule="evenodd" d="M2.66667 4.66665C3.03485 4.66665 3.33333 4.36817 3.33333 3.99998C3.33333 3.63179 3.03485 3.33331 2.66667 3.33331C2.29848 3.33331 2 3.63179 2 3.99998C2 4.36817 2.29848 4.66665 2.66667 4.66665ZM5.83333 3.66665C5.55719 3.66665 5.33333 3.89051 5.33333 4.16665C5.33333 4.44279 5.55719 4.66665 5.83333 4.66665H13.5C13.7761 4.66665 14 4.44279 14 4.16665C14 3.89051 13.7761 3.66665 13.5 3.66665H5.83333ZM5.83333 7.66665C5.55719 7.66665 5.33333 7.89051 5.33333 8.16665C5.33333 8.44278 5.55719 8.66665 5.83333 8.66665H13.5C13.7761 8.66665 14 8.44278 14 8.16665C14 7.89051 13.7761 7.66665 13.5 7.66665H5.83333ZM5.83333 11.6666C5.55719 11.6666 5.33333 11.8905 5.33333 12.1666C5.33333 12.4428 5.55719 12.6666 5.83333 12.6666H13.5C13.7761 12.6666 14 12.4428 14 12.1666C14 11.8905 13.7761 11.6666 13.5 11.6666H5.83333ZM3.33333 7.99998C3.33333 8.36818 3.03485 8.66665 2.66667 8.66665C2.29848 8.66665 2 8.36818 2 7.99998C2 7.63178 2.29848 7.33331 2.66667 7.33331C3.03485 7.33331 3.33333 7.63178 3.33333 7.99998ZM2.66667 12.6666C3.03485 12.6666 3.33333 12.3682 3.33333 12C3.33333 11.6318 3.03485 11.3333 2.66667 11.3333C2.29848 11.3333 2 11.6318 2 12C2 12.3682 2.29848 12.6666 2.66667 12.6666Z" fill="#646669"/>
</svg>
