<svg width="16" height="16" viewBox="0 0 16 16" fill="none" xmlns="http://www.w3.org/2000/svg">
<path d="M8.00016 8.99992C8.92064 8.99992 9.66683 8.25373 9.66683 7.33325C9.66683 6.41278 8.92064 5.66659 8.00016 5.66659C7.07969 5.66659 6.3335 6.41278 6.3335 7.33325C6.3335 8.25373 7.07969 8.99992 8.00016 8.99992Z" fill="#A9A9A9"/>
<path fill-rule="evenodd" clip-rule="evenodd" d="M12.7142 2.28587C10.1107 -0.317622 5.88961 -0.317622 3.28612 2.28587C0.682622 4.88937 0.682622 9.11047 3.28612 11.714L3.30458 11.7324L6.88832 15.3161C7.50241 15.9302 8.49804 15.9302 9.11212 15.3161L12.7143 11.714C15.3177 9.11047 15.3177 4.88935 12.7142 2.28587ZM3.99322 2.99298C6.2062 0.780009 9.79413 0.780009 12.0071 2.99298C14.2201 5.20594 14.2201 8.79389 12.0071 11.0069L8.40501 14.609C8.18145 14.8326 7.81899 14.8326 7.59543 14.609L4.01034 11.0239L4.00898 11.0226L3.99322 11.0069C1.78025 8.79389 1.78025 5.20595 3.99322 2.99298Z" fill="#A9A9A9"/>
</svg>
