<svg width="68" height="58" viewBox="0 0 68 58" fill="none" xmlns="http://www.w3.org/2000/svg">
<g clip-path="url(#clip0)">
<path d="M59.9911 16.8365C60.8131 15.069 61.9246 13.4579 63.2778 12.0725C64.6425 10.6643 66.2414 9.51486 68 8.6779C66.249 7.84428 64.6515 6.70902 63.2778 5.32187C61.9193 3.91913 60.8075 2.28801 59.9911 0.5C59.1715 2.29569 58.0458 3.92836 56.6667 5.32187C55.2929 6.70902 53.6955 7.84428 51.9445 8.6779C55.489 10.3175 58.3287 13.2172 59.9345 16.8365H59.9911Z" fill="white"/>
<path d="M21.1367 55.4308C23.8567 55.4308 26.5955 55.2958 29.3344 55.2958C39.5819 55.3127 49.8191 55.9568 59.9911 57.2245L40.2144 8.67789L21.1367 55.4308Z" fill="url(#paint0_linear)"/>
<path d="M40.1956 8.69716H19.72L0 57.0123C6.9763 56.2023 14.0219 55.6751 21.1367 55.4308L40.1956 8.69716Z" fill="white"/>
</g>
<defs>
<linearGradient id="paint0_linear" x1="21.6844" y1="57.2631" x2="56.5765" y2="28.5866" gradientUnits="userSpaceOnUse">
<stop stop-color="white" stop-opacity="0"/>
<stop offset="1" stop-color="white"/>
</linearGradient>
<clipPath id="clip0">
<rect width="68" height="56.6667" fill="white" transform="translate(0 0.5)"/>
</clipPath>
</defs>
</svg>
