<svg width="130" height="24" viewBox="0 0 130 24" fill="none" xmlns="http://www.w3.org/2000/svg">
<g clip-path="url(#clip0_3790_74574)">
<path d="M0.442037 17.1709C0.641891 15.2549 1.29556 13.7642 2.09455 13.296H2.11287C3.45644 12.487 5.23636 12.0611 7.12495 12.1039V11.8909C5.23636 11.8909 3.45644 11.465 2.11287 10.6988H2.09455C1.27724 10.1878 0.641891 8.69718 0.442037 6.82387V6.78024C0.229964 4.84627 0.0802909 2.52613 0 -0.000854492H8.90749C12.1549 -0.000854492 14.7875 2.6854 14.7875 5.99915C14.7875 9.31246 12.1549 11.9991 8.90749 11.9991L16.522 23.9991H0.0126563C0.095129 21.4682 0.241309 19.1481 0.442037 17.2124V17.1709Z" fill="#242424"/>
<path d="M27.3827 12H25.6481C28.8956 12 31.5281 9.31333 31.5281 6.00002C31.5281 2.68627 28.8956 1.77557e-05 25.6481 1.77557e-05H16.7585C16.841 2.527 16.9868 4.84715 17.1875 6.78111V6.82475C17.3873 8.74082 18.0231 10.231 18.84 10.6997H18.8583C20.2023 11.5087 21.9818 11.9341 23.8704 11.8918V12.1047C21.9818 12.1047 20.2023 12.5302 18.8583 13.2969H18.8409C18.024 13.7651 17.3882 15.2557 17.1884 17.1718V17.2154C16.9763 19.1511 16.8262 21.4726 16.7463 24.0022H27.3836C30.631 24.0022 33.2636 21.3155 33.2636 18.0022C33.2627 14.6863 30.6301 12 27.3827 12Z" fill="#242424"/>
</g>
<path d="M44.4867 20V4.544H52.2147C54.0387 4.544 55.3827 5.024 56.2467 5.984C57.1107 6.944 57.5427 8.232 57.5427 9.848C57.5427 10.888 57.2787 11.8 56.7507 12.584C56.2227 13.368 55.5027 13.952 54.5907 14.336C54.8147 14.512 54.9907 14.712 55.1187 14.936C55.2627 15.144 55.4147 15.44 55.5747 15.824L57.3987 20H53.3667L51.6387 16.064C51.4947 15.728 51.3107 15.488 51.0867 15.344C50.8627 15.184 50.5427 15.104 50.1267 15.104H48.3507V20H44.4867ZM48.3507 12.128H51.2067C51.9587 12.128 52.5427 11.944 52.9587 11.576C53.3907 11.192 53.6067 10.616 53.6067 9.848C53.6067 8.296 52.8627 7.52 51.3747 7.52H48.3507V12.128ZM59.0301 14.84V11.84H68.5101V14.84H59.0301ZM70.4789 20V4.544H78.6389C80.1909 4.544 81.3589 4.912 82.1429 5.648C82.9429 6.384 83.3429 7.424 83.3429 8.768C83.3429 9.584 83.1829 10.272 82.8629 10.832C82.5589 11.376 82.1509 11.8 81.6389 12.104C82.3429 12.36 82.8949 12.736 83.2949 13.232C83.6949 13.728 83.8949 14.472 83.8949 15.464C83.8949 16.936 83.4629 18.064 82.5989 18.848C81.7349 19.616 80.4949 20 78.8789 20H70.4789ZM74.3429 10.832H77.4869C78.1589 10.832 78.6469 10.68 78.9509 10.376C79.2549 10.072 79.4069 9.648 79.4069 9.104C79.4069 8.512 79.2549 8.072 78.9509 7.784C78.6469 7.48 78.0949 7.328 77.2949 7.328H74.3429V10.832ZM74.3429 17.24H77.8709C78.5749 17.24 79.0949 17.096 79.4309 16.808C79.7829 16.52 79.9589 16.008 79.9589 15.272C79.9589 14.68 79.7909 14.24 79.4549 13.952C79.1189 13.648 78.5429 13.496 77.7269 13.496H74.3429V17.24ZM85.8539 20V8.624H89.5259L89.6459 9.68C90.1419 9.376 90.7579 9.104 91.4939 8.864C92.2299 8.608 92.9659 8.448 93.7019 8.384V11.288C93.2859 11.336 92.8219 11.416 92.3099 11.528C91.8139 11.624 91.3339 11.744 90.8699 11.888C90.4219 12.032 90.0379 12.184 89.7179 12.344V20H85.8539ZM97.984 20.24C97.264 20.24 96.592 20.112 95.968 19.856C95.36 19.6 94.872 19.208 94.504 18.68C94.136 18.136 93.952 17.464 93.952 16.664C93.952 15.496 94.344 14.584 95.128 13.928C95.928 13.256 97.12 12.92 98.704 12.92H101.872V12.656C101.872 12.08 101.68 11.672 101.296 11.432C100.912 11.176 100.192 11.048 99.136 11.048C97.84 11.048 96.568 11.248 95.32 11.648V9.152C95.88 8.928 96.56 8.744 97.36 8.6C98.176 8.456 99.032 8.384 99.928 8.384C101.688 8.384 103.064 8.744 104.056 9.464C105.064 10.184 105.568 11.328 105.568 12.896V20H102.184L101.992 19.04C101.576 19.424 101.04 19.72 100.384 19.928C99.744 20.136 98.944 20.24 97.984 20.24ZM99.208 17.864C99.816 17.864 100.344 17.76 100.792 17.552C101.24 17.344 101.6 17.08 101.872 16.76V15.152H99.136C98 15.152 97.432 15.608 97.432 16.52C97.432 16.936 97.576 17.264 97.864 17.504C98.152 17.744 98.6 17.864 99.208 17.864ZM108.653 6.824V3.92H112.853V6.824H108.653ZM108.965 20V11.48H107.285L107.621 8.624H112.829V20H108.965ZM115.291 20V8.624H118.891L119.011 9.608C119.475 9.288 120.059 9.008 120.763 8.768C121.467 8.512 122.219 8.384 123.019 8.384C124.491 8.384 125.563 8.736 126.235 9.44C126.907 10.144 127.243 11.232 127.243 12.704V20H123.379V13.016C123.379 12.376 123.243 11.92 122.971 11.648C122.699 11.376 122.211 11.24 121.507 11.24C121.091 11.24 120.667 11.336 120.235 11.528C119.803 11.72 119.443 11.96 119.155 12.248V20H115.291Z" fill="#242424"/>
<defs>
<clipPath id="clip0_3790_74574">
<rect width="33.2627" height="24" fill="white"/>
</clipPath>
</defs>
</svg>
