<svg width="36" height="30" viewBox="0 0 36 30" fill="none" xmlns="http://www.w3.org/2000/svg">
<g clip-path="url(#clip0)">
<path d="M31.76 8.64874C32.1952 7.71302 32.7836 6.86005 33.5 6.12662C34.2225 5.38108 35.069 4.77257 36 4.32948C35.073 3.88815 34.2273 3.28713 33.5 2.55276C32.7808 1.81013 32.1922 0.946591 31.76 0C31.3261 0.950658 30.7301 1.81501 30 2.55276C29.2727 3.28713 28.427 3.88815 27.5 4.32948C29.3765 5.19752 30.8799 6.73264 31.73 8.64874H31.76Z" fill="black"/>
<path d="M11.19 29.081C12.63 29.081 14.08 29.0095 15.53 29.0095C20.9551 29.0185 26.3748 29.3595 31.76 30.0306L21.29 4.32947L11.19 29.081Z" fill="url(#paint0_linear)"/>
<path d="M21.28 4.33972H10.44L0 29.9183C3.69333 29.4895 7.42333 29.2104 11.19 29.081L21.28 4.33972Z" fill="black"/>
</g>
<defs>
<linearGradient id="paint0_linear" x1="11.48" y1="30.051" x2="29.9523" y2="14.8694" gradientUnits="userSpaceOnUse">
<stop stop-opacity="0"/>
<stop offset="1"/>
</linearGradient>
<clipPath id="clip0">
<rect width="36" height="30" fill="white"/>
</clipPath>
</defs>
</svg>
