<svg width="16" height="16" viewBox="0 0 16 16" fill="none" xmlns="http://www.w3.org/2000/svg">
<path fill-rule="evenodd" clip-rule="evenodd" d="M0.833252 1.5H15.1666V11.3333C15.1666 12.1732 14.833 12.9786 14.2391 13.5725C13.6452 14.1664 12.8398 14.5 11.9999 14.5H3.99992C3.16007 14.5 2.35461 14.1664 1.76075 13.5725C1.16688 12.9786 0.833252 12.1732 0.833252 11.3333V1.5ZM1.83325 2.5V11.3333C1.83325 11.908 2.06152 12.4591 2.46785 12.8654C2.87418 13.2717 3.42528 13.5 3.99992 13.5H11.9999C12.5746 13.5 13.1257 13.2717 13.532 12.8654C13.9383 12.4591 14.1666 11.908 14.1666 11.3333V2.5H1.83325Z" fill="#646669"/>
<path fill-rule="evenodd" clip-rule="evenodd" d="M1.04652 4.40961L1.61998 3.59038L7.99992 8.05634L14.3799 3.59038L14.9533 4.40961L7.99992 9.27699L1.04652 4.40961Z" fill="#646669"/>
</svg>
