<svg width="24" height="24" viewBox="0 0 24 24" fill="none" xmlns="http://www.w3.org/2000/svg">
<path fill-rule="evenodd" clip-rule="evenodd" d="M1.25 2.25H22.75V17C22.75 18.2598 22.2496 19.468 21.3588 20.3588C20.468 21.2496 19.2598 21.75 18 21.75H6C4.74022 21.75 3.53204 21.2496 2.64124 20.3588C1.75045 19.468 1.25 18.2598 1.25 17V2.25ZM2.75 3.75V17C2.75 17.862 3.09241 18.6886 3.7019 19.2981C4.3114 19.9076 5.13805 20.25 6 20.25H18C18.862 20.25 19.6886 19.9076 20.2981 19.2981C20.9076 18.6886 21.25 17.862 21.25 17V3.75H2.75Z" fill="#24292E"/>
<path fill-rule="evenodd" clip-rule="evenodd" d="M1.5699 6.61442L2.43009 5.38557L12 12.0845L21.5699 5.38557L22.4301 6.61442L12 13.9155L1.5699 6.61442Z" fill="#24292E"/>
</svg>
