<svg width="20" height="20" fill="none" xmlns="http://www.w3.org/2000/svg"><path d="M12.5 17.5l-5-1.75-3.875 1.5a.752.752 0 01-.77-.094.822.822 0 01-.355-.698V4.792c0-.18.052-.34.157-.48A.938.938 0 013.083 4L7.5 2.5l5 1.75 3.875-1.5a.753.753 0 01.77.093.824.824 0 01.355.699v11.666c0 .18-.052.34-.157.48a.938.938 0 01-.426.312L12.5 17.5zm-.833-2.042v-9.75L8.333 4.542v9.75l3.334 1.166zm1.666 0l2.5-.833V4.75l-2.5.958v9.75zm-9.166-.208l2.5-.958v-9.75l-2.5.833v9.875zm9.166-9.542v9.75-9.75zM6.667 4.542v9.75-9.75z" fill="#191F28"/></svg>