<svg width="16" height="17" viewBox="0 0 16 17" fill="none" xmlns="http://www.w3.org/2000/svg">
<path d="M10 14.5L6 13.1L2.9 14.3C2.67778 14.3889 2.47222 14.3638 2.28333 14.2247C2.09444 14.086 2 13.9 2 13.6667V4.33333C2 4.18889 2.04178 4.06111 2.12533 3.95C2.20844 3.83889 2.32222 3.75556 2.46667 3.7L6 2.5L10 3.9L13.1 2.7C13.3222 2.61111 13.5278 2.636 13.7167 2.77467C13.9056 2.91378 14 3.1 14 3.33333V12.6667C14 12.8111 13.9582 12.9389 13.8747 13.05C13.7916 13.1611 13.6778 13.2444 13.5333 13.3L10 14.5ZM9.33333 12.8667V5.06667L6.66667 4.13333V11.9333L9.33333 12.8667ZM10.6667 12.8667L12.6667 12.2V4.3L10.6667 5.06667V12.8667ZM3.33333 12.7L5.33333 11.9333V4.13333L3.33333 4.8V12.7ZM10.6667 5.06667V12.8667V5.06667ZM5.33333 4.13333V11.9333V4.13333Z" fill="#191F28"/>
</svg>
