<svg width="24" height="24" viewBox="0 0 24 24" fill="none" xmlns="http://www.w3.org/2000/svg">
<path fill-rule="evenodd" clip-rule="evenodd" d="M3.25 6.0001C3.25 4.48084 4.48116 3.25 6 3.25C7.51894 3.25 8.75 4.48134 8.75 6.0001C8.75 7.5192 7.51879 8.75 6 8.75C4.48196 8.75 3.25 7.51935 3.25 6.0001ZM6 4.75C5.30952 4.75 4.75 5.30934 4.75 6.0001C4.75 6.69046 5.30992 7.25 6 7.25C6.69053 7.25 7.25 6.69061 7.25 6.0001C7.25 5.30965 6.69038 4.75 6 4.75ZM15.25 6.0001C15.25 4.48084 16.4812 3.25 18 3.25C19.5189 3.25 20.75 4.48134 20.75 6.0001C20.75 7.5192 19.5188 8.75 18 8.75C16.482 8.75 15.25 7.51935 15.25 6.0001ZM18 4.75C17.3095 4.75 16.75 5.30934 16.75 6.0001C16.75 6.69046 17.3099 7.25 18 7.25C18.6905 7.25 19.25 6.69061 19.25 6.0001C19.25 5.30965 18.6904 4.75 18 4.75ZM1.98529 11.2726C2.51401 10.2793 3.46723 9.25 5 9.25C6.53277 9.25 7.48599 10.2793 8.01471 11.2726C8.54004 12.2595 8.75 13.381 8.75 14C8.75 14.3824 8.74884 15.4944 8.74741 16.7225C9.40009 17.0424 10.1506 17.25 11 17.25C11.4142 17.25 11.75 17.5858 11.75 18C11.75 18.4142 11.4142 18.75 11 18.75C10.1693 18.75 9.41768 18.5975 8.74543 18.3511L8.74206 20.9999L8.74206 21.0009C8.74206 21.001 8.74206 21.001 7.99206 21L8.74206 21.0009C8.74151 21.4147 8.40589 21.75 7.99206 21.75H2C1.58579 21.75 1.25 21.4142 1.25 21V14C1.25 13.381 1.45996 12.2595 1.98529 11.2726ZM7.24304 20.25L7.24603 17.8741C7.24615 17.7777 7.24627 17.6809 7.24638 17.5839C6.75495 17.2558 6.32928 16.8899 5.96967 16.5303C5.42676 15.9874 5.02129 15.4465 4.75096 15.041C4.61538 14.8376 4.51263 14.6666 4.44257 14.544C4.40751 14.4826 4.38055 14.4333 4.36167 14.3979C4.35223 14.3802 4.34481 14.3659 4.33939 14.3555L4.33278 14.3425L4.3306 14.3382L4.3298 14.3366C4.32965 14.3364 4.32918 14.3354 5 14L4.32918 14.3354C4.14394 13.9649 4.29411 13.5144 4.66459 13.3292C5.03507 13.1439 5.48558 13.2941 5.67082 13.6646M5.67082 13.6646L5.67233 13.6675L5.6852 13.692C5.69758 13.7152 5.71749 13.7517 5.74493 13.7998C5.79987 13.8959 5.88462 14.0374 5.99904 14.209C6.22871 14.5535 6.57324 15.0126 7.03033 15.4697C7.10072 15.5401 7.17347 15.6101 7.24858 15.6795C7.24942 14.9002 7.25 14.2689 7.25 14C7.25 13.619 7.09684 12.7405 6.69062 11.9774C6.28778 11.2207 5.741 10.75 5 10.75C4.259 10.75 3.71222 11.2207 3.30938 11.9774C2.90316 12.7405 2.75 13.619 2.75 14V20.25H7.24304M15.9853 11.2726C16.514 10.2793 17.4672 9.25 19 9.25C20.5328 9.25 21.486 10.2793 22.0147 11.2726C22.54 12.2595 22.75 13.381 22.75 14C22.75 14.5006 22.748 16.2512 22.746 17.8759L22.7421 20.9999V21.0009C22.7421 21.001 22.7421 21.001 21.9921 21L22.7421 21.0009C22.7415 21.4147 22.4059 21.75 21.9921 21.75H16C15.5858 21.75 15.25 21.4142 15.25 21V18.3528C14.5789 18.5982 13.8288 18.75 13 18.75C12.5858 18.75 12.25 18.4142 12.25 18C12.25 17.5858 12.5858 17.25 13 17.25C13.8482 17.25 14.5979 17.043 15.25 16.7238V14C15.25 13.381 15.46 12.2595 15.9853 11.2726ZM16.75 17.5863V20.25H21.243L21.246 17.8741C21.248 16.2488 21.25 14.4994 21.25 14C21.25 13.619 21.0968 12.7405 20.6906 11.9774C20.2878 11.2207 19.741 10.75 19 10.75C18.259 10.75 17.7122 11.2207 17.3094 11.9774C16.9032 12.7405 16.75 13.619 16.75 14V15.6808C16.8256 15.611 16.8988 15.5405 16.9697 15.4697C17.4268 15.0126 17.7713 14.5535 18.001 14.209C18.1154 14.0374 18.2001 13.8959 18.2551 13.7998C18.2825 13.7517 18.3024 13.7152 18.3148 13.692L18.3277 13.6675L18.3292 13.6646C18.5146 13.2945 18.9651 13.144 19.3354 13.3292C19.7059 13.5144 19.8561 13.9649 19.6708 14.3354L19 14C19.6708 14.3354 19.671 14.3351 19.6708 14.3354L19.6702 14.3366L19.6694 14.3382L19.6672 14.3425L19.6606 14.3555C19.6552 14.3659 19.6478 14.3802 19.6383 14.3979C19.6195 14.4333 19.5925 14.4826 19.5574 14.544C19.4874 14.6666 19.3846 14.8376 19.249 15.041C18.9787 15.4465 18.5732 15.9874 18.0303 16.5303C17.6698 16.8908 17.243 17.2576 16.75 17.5863Z" fill="black"/>
</svg>
