<svg width="16" height="16" viewBox="0 0 16 16" fill="none" xmlns="http://www.w3.org/2000/svg">
<path fill-rule="evenodd" clip-rule="evenodd" d="M7.83334 0.666687C8.10949 0.666687 8.33334 0.890545 8.33334 1.16669V2.66668L12.688 2.66669C12.9678 2.66669 13.2383 2.76725 13.4502 2.95004L15.575 4.78337C16.1143 5.24875 16.1143 6.08463 15.575 6.55L13.4502 8.38334C13.2383 8.56612 12.9678 8.66669 12.688 8.66669L8.33334 8.66667V14.8334C8.33334 15.1095 8.10949 15.3334 7.83334 15.3334C7.5572 15.3334 7.33334 15.1095 7.33334 14.8334V8.66667L2.50001 8.66665C1.85568 8.66665 1.33334 8.14432 1.33334 7.49999V3.83334C1.33334 3.18901 1.85568 2.66667 2.50001 2.66667L7.33334 2.66668V1.16669C7.33334 0.890545 7.5572 0.666687 7.83334 0.666687ZM7.83334 3.66669L7.83603 3.66668L12.688 3.66669C12.728 3.66669 12.7666 3.68105 12.7969 3.70717L14.9217 5.5405C14.9988 5.60698 14.9988 5.72639 14.9217 5.79288L12.7969 7.62621C12.7666 7.65232 12.728 7.66669 12.688 7.66669L2.50001 7.66665C2.40796 7.66665 2.33334 7.59203 2.33334 7.49999L2.33334 3.83334C2.33334 3.74129 2.40796 3.66667 2.50001 3.66667L7.83065 3.66668L7.83334 3.66669Z" fill="black"/>
</svg>
