<svg width="16" height="16" viewBox="0 0 16 16" fill="none" xmlns="http://www.w3.org/2000/svg">
<path fill-rule="evenodd" clip-rule="evenodd" d="M8.19449 1.37275C8.07014 1.32025 7.92986 1.32025 7.80551 1.37275L0.305514 4.53942C0.120351 4.6176 0 4.79905 0 5.00004C0 5.20103 0.120351 5.38249 0.305514 5.46067L2.83333 6.52797V9.06372C2.50921 9.14775 2.20158 9.31529 1.94854 9.56833C1.56268 9.95417 1.33333 10.5085 1.33333 11.1875V14.1875C1.33333 14.3537 1.41863 14.5121 1.55672 14.604C1.59614 14.6301 1.635 14.6525 1.70345 14.6868C1.78584 14.728 1.90144 14.7789 2.05019 14.8285C2.34841 14.9279 2.77673 15.0209 3.33333 15.0209C3.88991 15.0209 4.31822 14.928 4.61642 14.8286C4.76517 14.779 4.88077 14.7281 4.96316 14.6869C5.02771 14.6546 5.06546 14.6325 5.1031 14.6086C5.24409 14.5168 5.33333 14.3563 5.33333 14.1876V11.1876C5.33333 10.5086 5.10399 9.95424 4.71814 9.56839C4.46509 9.31533 4.15746 9.14778 3.83333 9.06373V6.95019L7.80551 8.62733C7.92986 8.67983 8.07014 8.67983 8.19449 8.62733L11.6667 7.16129V9.82946C11.6516 9.84646 11.6341 9.86536 11.6142 9.88588C11.5065 9.99664 11.3251 10.1559 11.048 10.3194C10.4972 10.6445 9.54493 11 8.00001 11C7.59197 11 7.22558 10.9752 6.89735 10.9329C6.62348 10.8975 6.37281 11.0909 6.33746 11.3647C6.30211 11.6386 6.49547 11.8893 6.76934 11.9246C7.14216 11.9728 7.55138 12 8.00001 12C9.7051 12 10.8362 11.6056 11.5562 11.1806C11.9146 10.9692 12.1654 10.7534 12.3312 10.583C12.4268 10.4846 12.5209 10.3789 12.5929 10.2614L12.5933 10.2608C12.6413 10.1823 12.6667 10.092 12.6667 10V6.73907L15.6945 5.46067C15.8796 5.38249 16 5.20103 16 5.00004C16 4.79905 15.8796 4.6176 15.6945 4.53942L8.19449 1.37275ZM3.33329 10C3.33328 10 3.3333 10 3.33329 10C3.08198 10 2.83697 10.0941 2.65563 10.2755C2.47899 10.4521 2.33333 10.7415 2.33333 11.1875V13.8685C2.5326 13.9387 2.86484 14.0209 3.33333 14.0209C3.80181 14.0209 4.13405 13.9387 4.33333 13.8685V11.1876C4.33333 10.7415 4.18768 10.4521 4.01103 10.2755C3.82967 10.0941 3.58461 10 3.33329 10ZM8 7.62397L1.78544 5.00004L8 2.37612L14.2146 5.00004L8 7.62397Z" fill="#1781F4"/>
</svg>
