<svg width="16" height="17" viewBox="0 0 16 17" fill="none" xmlns="http://www.w3.org/2000/svg">
<path fill-rule="evenodd" clip-rule="evenodd" d="M5.40909 1.89617C5.56807 1.98429 5.66671 2.15173 5.66671 2.3335V6.50016H6.50162C6.77776 6.50016 7.00162 6.72402 7.00162 7.00016C7.00162 7.27631 6.77776 7.50016 6.50162 7.50016H3.83338C3.55723 7.50016 3.33338 7.27631 3.33338 7.00016C3.33338 6.72402 3.55723 6.50016 3.83338 6.50016H4.66671L4.66671 3.23562L4.09838 3.59083C3.86421 3.73718 3.55573 3.666 3.40938 3.43183C3.26302 3.19766 3.33421 2.88919 3.56838 2.74283L4.90171 1.9095C5.05584 1.81316 5.25011 1.80806 5.40909 1.89617ZM8.66858 5.66952C8.66858 5.39337 8.89244 5.16952 9.16858 5.16952H12.6568C12.8591 5.16952 13.0414 5.29134 13.1188 5.47817C13.1962 5.66501 13.1534 5.88007 13.0104 6.02307L11.1593 7.8742C11.5262 7.93905 11.8639 8.04281 12.1543 8.19605C12.7577 8.51436 13.1568 9.0523 13.1568 9.80841C13.1568 10.4519 12.8426 10.975 12.3756 11.322C11.9177 11.6624 11.3172 11.8345 10.6947 11.8345C9.78347 11.8345 9.17868 11.483 8.91698 11.3306C8.67835 11.1916 8.59754 10.8855 8.7365 10.6469C8.87545 10.4083 9.18155 10.3274 9.42018 10.4664C9.64072 10.5948 10.0556 10.8345 10.6947 10.8345C11.1431 10.8345 11.5237 10.7093 11.7791 10.5194C12.0255 10.3363 12.1568 10.0963 12.1568 9.80841C12.1568 9.47443 12.0109 9.25102 11.6877 9.08051C11.3297 8.89162 10.7711 8.78571 10.0406 8.78571C9.83842 8.78571 9.6561 8.66389 9.57871 8.47705C9.50132 8.29022 9.54409 8.07516 9.68709 7.93216L11.4497 6.16952H9.16858C8.89244 6.16952 8.66858 5.94566 8.66858 5.66952ZM5.25411 10.6435C4.88443 10.6013 4.47528 10.7822 4.28994 11.1973C4.17737 11.4495 3.8817 11.5626 3.62955 11.4501C3.37739 11.3375 3.26424 11.0418 3.37681 10.7897C3.75983 9.93171 4.61504 9.56397 5.36764 9.64997C5.74687 9.6933 6.12181 9.85333 6.40553 10.1454C6.69476 10.4431 6.86209 10.8507 6.86209 11.3307C6.86209 12.4249 6.0261 12.9552 5.44891 13.3213C5.08992 13.549 4.66191 13.7839 4.4523 14.1701H6.50004C6.77619 14.1701 7.00004 14.3939 7.00004 14.6701C7.00004 14.9462 6.77619 15.1701 6.50004 15.1701H3.83338C3.55724 15.1701 3.33338 14.9462 3.33338 14.6701C3.33338 13.471 4.2245 12.9167 4.82852 12.5307C5.51672 12.091 5.86209 11.8426 5.86209 11.3307C5.86209 11.0934 5.78438 10.9411 5.68828 10.8422C5.58668 10.7376 5.43601 10.6643 5.25411 10.6435Z" fill="black"/>
</svg>
