<svg width="15" height="12" viewBox="0 0 15 12" fill="none" xmlns="http://www.w3.org/2000/svg">
<path fill-rule="evenodd" clip-rule="evenodd" d="M7.50004 4.33334C8.42052 4.33334 9.16671 3.58714 9.16671 2.66667C9.16671 1.74619 8.42052 1 7.50004 1C6.57957 1 5.83338 1.74619 5.83338 2.66667C5.83338 3.58714 6.57957 4.33334 7.50004 4.33334ZM7.50004 5.33334C8.9728 5.33334 10.1667 4.13943 10.1667 2.66667C10.1667 1.19391 8.9728 0 7.50004 0C6.02728 0 4.83338 1.19391 4.83338 2.66667C4.83338 4.13943 6.02728 5.33334 7.50004 5.33334Z" fill="black"/>
<path fill-rule="evenodd" clip-rule="evenodd" d="M3.50004 11C4.42052 11 5.16671 10.2538 5.16671 9.33334C5.16671 8.41286 4.42052 7.66667 3.50004 7.66667C2.57957 7.66667 1.83337 8.41286 1.83337 9.33334C1.83337 10.2538 2.57957 11 3.50004 11ZM3.50004 12C4.9728 12 6.16671 10.8061 6.16671 9.33334C6.16671 7.86058 4.9728 6.66667 3.50004 6.66667C2.02728 6.66667 0.833374 7.86058 0.833374 9.33334C0.833374 10.8061 2.02728 12 3.50004 12Z" fill="black"/>
<path fill-rule="evenodd" clip-rule="evenodd" d="M11.5 11C12.4205 11 13.1667 10.2538 13.1667 9.33334C13.1667 8.41286 12.4205 7.66667 11.5 7.66667C10.5796 7.66667 9.83337 8.41286 9.83337 9.33334C9.83337 10.2538 10.5796 11 11.5 11ZM11.5 12C12.9728 12 14.1667 10.8061 14.1667 9.33334C14.1667 7.86058 12.9728 6.66667 11.5 6.66667C10.0273 6.66667 8.83337 7.86058 8.83337 9.33334C8.83337 10.8061 10.0273 12 11.5 12Z" fill="black"/>
</svg>
