<svg width="16" height="16" viewBox="0 0 16 16" fill="none" xmlns="http://www.w3.org/2000/svg">
<path d="M4.83333 8.00001C4.55719 8.00001 4.33333 8.22386 4.33333 8.50001C4.33333 8.77615 4.55719 9.00001 4.83333 9.00001H5.16667C5.44281 9.00001 5.66667 8.77615 5.66667 8.50001C5.66667 8.22386 5.44281 8.00001 5.16667 8.00001H4.83333Z" fill="black"/>
<path d="M4.33333 6.16667C4.33333 5.89053 4.55719 5.66667 4.83333 5.66667H5.16667C5.44281 5.66667 5.66667 5.89053 5.66667 6.16667C5.66667 6.44281 5.44281 6.66667 5.16667 6.66667H4.83333C4.55719 6.66667 4.33333 6.44281 4.33333 6.16667Z" fill="black"/>
<path d="M4.83333 3.33334C4.55719 3.33334 4.33333 3.5572 4.33333 3.83334C4.33333 4.10948 4.55719 4.33334 4.83333 4.33334H5.16667C5.44281 4.33334 5.66667 4.10948 5.66667 3.83334C5.66667 3.5572 5.44281 3.33334 5.16667 3.33334H4.83333Z" fill="black"/>
<path d="M6.66667 8.50001C6.66667 8.22386 6.89052 8.00001 7.16667 8.00001H7.5C7.77614 8.00001 8 8.22386 8 8.50001C8 8.77615 7.77614 9.00001 7.5 9.00001H7.16667C6.89052 9.00001 6.66667 8.77615 6.66667 8.50001Z" fill="black"/>
<path d="M7.16667 5.66667C6.89052 5.66667 6.66667 5.89053 6.66667 6.16667C6.66667 6.44281 6.89052 6.66667 7.16667 6.66667H7.5C7.77614 6.66667 8 6.44281 8 6.16667C8 5.89053 7.77614 5.66667 7.5 5.66667H7.16667Z" fill="black"/>
<path d="M6.66667 3.83334C6.66667 3.5572 6.89052 3.33334 7.16667 3.33334H7.5C7.77614 3.33334 8 3.5572 8 3.83334C8 4.10948 7.77614 4.33334 7.5 4.33334H7.16667C6.89052 4.33334 6.66667 4.10948 6.66667 3.83334Z" fill="black"/>
<path d="M9.5 8.00001C9.22386 8.00001 9 8.22386 9 8.50001C9 8.77615 9.22386 9.00001 9.5 9.00001H9.83333C10.1095 9.00001 10.3333 8.77615 10.3333 8.50001C10.3333 8.22386 10.1095 8.00001 9.83333 8.00001H9.5Z" fill="black"/>
<path d="M9 6.16667C9 5.89053 9.22386 5.66667 9.5 5.66667H9.83333C10.1095 5.66667 10.3333 5.89053 10.3333 6.16667C10.3333 6.44281 10.1095 6.66667 9.83333 6.66667H9.5C9.22386 6.66667 9 6.44281 9 6.16667Z" fill="black"/>
<path d="M9.5 3.33334C9.22386 3.33334 9 3.5572 9 3.83334C9 4.10948 9.22386 4.33334 9.5 4.33334H9.83333C10.1095 4.33334 10.3333 4.10948 10.3333 3.83334C10.3333 3.5572 10.1095 3.33334 9.83333 3.33334H9.5Z" fill="black"/>
<path fill-rule="evenodd" clip-rule="evenodd" d="M2 13.3333C2 14.0697 2.59695 14.6667 3.33333 14.6667H5.83333C6.10948 14.6667 6.33333 14.4428 6.33333 14.1667V12.6667H8.33333V14.1667C8.33333 14.4428 8.55719 14.6667 8.83333 14.6667H11.3333C11.3948 14.6667 11.4554 14.6625 11.5147 14.6544C11.5502 14.6624 11.5871 14.6667 11.625 14.6667H14.3335C15.0701 14.6667 15.6667 14.0696 15.6667 13.3333V8.24999C15.6667 7.83032 15.4691 7.43513 15.1333 7.18333L14.4667 6.68333C14.2458 6.51764 13.9324 6.56241 13.7667 6.78333C13.601 7.00424 13.6458 7.31764 13.8667 7.48333L14.5333 7.98333C14.6173 8.04628 14.6667 8.14508 14.6667 8.24999V13.3333C14.6667 13.5176 14.5175 13.6667 14.3335 13.6667H12.6247C12.6521 13.5601 12.6667 13.4484 12.6667 13.3333V2.00001C12.6667 1.26363 12.0697 0.666672 11.3333 0.666672H3.33333C2.59695 0.666672 2 1.26363 2 2.00001V13.3333ZM3.33333 13.6667C3.14924 13.6667 3 13.5174 3 13.3333V2.00001C3 1.81591 3.14924 1.66667 3.33333 1.66667H11.3333C11.5174 1.66667 11.6667 1.81591 11.6667 2.00001V13.3333C11.6667 13.5174 11.5174 13.6667 11.3333 13.6667H9.33333V12.1667C9.33333 11.8905 9.10948 11.6667 8.83333 11.6667H5.83333C5.55719 11.6667 5.33333 11.8905 5.33333 12.1667V13.6667H3.33333Z" fill="black"/>
</svg>
