<svg width="16" height="16" viewBox="0 0 16 16" fill="none" xmlns="http://www.w3.org/2000/svg">
<path fill-rule="evenodd" clip-rule="evenodd" d="M6.08413 0.426045C6.44506 0.217685 6.88974 0.217686 7.25067 0.426045L12.7507 3.60105C12.9313 3.70529 13.0772 3.85387 13.1779 4.02834C13.2785 4.20264 13.3341 4.40315 13.3341 4.61144V6.83341C13.3341 7.10956 13.1102 7.33341 12.8341 7.33341C12.5579 7.33341 12.3341 7.10956 12.3341 6.83341V5.09269L7.1674 8.07527V14.9061C7.1674 15.0847 7.07211 15.2497 6.91741 15.3391C6.76272 15.4284 6.57213 15.4284 6.41742 15.3391L0.584124 11.9717C0.223123 11.7633 0.000732422 11.3781 0.000732422 10.9613V4.61144C0.000732422 4.40315 0.0563236 4.20264 0.156901 4.02834C0.25758 3.85387 0.403549 3.70529 0.584125 3.60104L6.08413 0.426045ZM6.6674 7.20924L11.8341 4.22662L6.75072 1.2921C6.69916 1.26233 6.63564 1.26233 6.58407 1.2921L1.50065 4.22662L6.6674 7.20924ZM1.00073 5.09269V10.9613C1.00073 11.0208 1.0325 11.0759 1.08407 11.1056L6.1674 14.0401V8.07527L1.00073 5.09269Z" fill="black"/>
<path d="M12.3017 9.86553L14.2315 11.6667H9.80953C9.53339 11.6667 9.30953 11.8905 9.30953 12.1667C9.30953 12.4428 9.53339 12.6667 9.80953 12.6667H14.2315L12.3017 14.4678C12.0998 14.6562 12.0889 14.9726 12.2773 15.1745C12.4658 15.3764 12.7821 15.3873 12.984 15.1989L15.8412 12.5322C15.9425 12.4376 16 12.3053 16 12.1667C16 12.0281 15.9425 11.8957 15.8412 11.8011L12.984 9.13447C12.7821 8.94606 12.4658 8.95697 12.2773 9.15884C12.0889 9.36072 12.0998 9.67711 12.3017 9.86553Z" fill="black"/>
</svg>
