<svg width="16" height="16" viewBox="0 0 16 16" fill="none" xmlns="http://www.w3.org/2000/svg">
<path fill-rule="evenodd" clip-rule="evenodd" d="M8.58402 0.426045C8.22308 0.217686 7.77841 0.217685 7.41747 0.426045L1.91747 3.60104C1.55647 3.80944 1.33408 4.19461 1.33408 4.61144V10.9613C1.33408 11.3781 1.55647 11.7633 1.91747 11.9717L7.41747 15.1467C7.77841 15.355 8.22308 15.355 8.58402 15.1467L14.084 11.9717C14.445 11.7633 14.6674 11.3781 14.6674 10.9613V4.61144C14.6674 4.19461 14.445 3.80944 14.084 3.60105L8.58402 0.426045ZM7.91742 1.2921C7.96898 1.26233 8.03251 1.26233 8.08407 1.2921L13.1675 4.22663L8.00076 7.20925L2.834 4.22662L7.91742 1.2921ZM2.33408 5.09269V10.9613C2.33408 11.0208 2.36585 11.0759 2.41742 11.1056L7.50076 14.0401V8.07527L2.33408 5.09269ZM8.50076 14.0401L13.5841 11.1056C13.6356 11.0759 13.6674 11.0208 13.6674 10.9613V5.0927L8.50076 8.07527V14.0401Z" fill="black"/>
</svg>
