<svg width="16" height="16" viewBox="0 0 16 16" fill="none" xmlns="http://www.w3.org/2000/svg">
<path d="M1.20562 6.25453C0.900169 6.3628 0.688747 6.64284 0.668277 6.96626C0.650702 7.24395 0.777 7.5112 1.00271 7.67392L4.89508 10.48L8.22493 7.1502C8.39748 6.97764 8.67725 6.97764 8.8498 7.1502C9.02236 7.32275 9.02236 7.60252 8.8498 7.77507L5.51995 11.1049L8.32607 14.9973C8.48879 15.223 8.75604 15.3493 9.03373 15.3317C9.35715 15.3112 9.63719 15.0998 9.74546 14.7944L13.9612 2.90081C14.0482 2.65542 13.9863 2.38188 13.8022 2.19778C13.6181 2.01369 13.3446 1.95184 13.0992 2.03881L1.20562 6.25453Z" fill="white"/>
</svg>
