<svg width="32" height="32" viewBox="0 0 32 32" fill="none" xmlns="http://www.w3.org/2000/svg">
<path d="M1.97858 10.9709C1.28727 11.216 0.808784 11.8497 0.762457 12.5817C0.72268 13.2102 1.00852 13.815 1.51933 14.1833L10.3285 20.5341L17.8646 12.998C18.2552 12.6075 18.8883 12.6075 19.2788 12.998C19.6694 13.3885 19.6694 14.0217 19.2788 14.4122L11.7427 21.9483L18.0935 30.7575C18.4618 31.2683 19.0666 31.5542 19.6951 31.5144C20.4271 31.468 21.0609 30.9896 21.3059 30.2983L30.8469 3.3808C31.0437 2.82544 30.9038 2.20637 30.4871 1.78972C30.0705 1.37308 29.4514 1.2331 28.896 1.42995L1.97858 10.9709Z" fill="#1781F4"/>
</svg>
