<svg width="16" height="16" viewBox="0 0 16 16" fill="none" xmlns="http://www.w3.org/2000/svg">
<path fill-rule="evenodd" clip-rule="evenodd" d="M11.5084 1.45121C11.964 0.995593 12.7027 0.995595 13.1583 1.45121L14.8822 3.17506C15.3378 3.63068 15.3378 4.36937 14.8822 4.82498L13.0202 6.68691L13.0119 6.69503L5.7932 13.5856C5.66132 13.7115 5.50176 13.8047 5.32734 13.8578L1.64559 14.9784C1.46894 15.0321 1.27703 14.9841 1.14646 14.8536C1.01589 14.723 0.967911 14.5311 1.02168 14.3544L2.13741 10.6885C2.19584 10.4965 2.30281 10.3228 2.44798 10.1842L9.65057 3.30902L11.5084 1.45121ZM9.99189 4.36567L3.13845 10.9076C3.11771 10.9274 3.10243 10.9522 3.09408 10.9796L2.25131 13.7487L5.03618 12.9012C5.06109 12.8936 5.08389 12.8803 5.10273 12.8623L11.9513 6.32504L9.99189 4.36567ZM12.6667 5.62625L14.1751 4.11787C14.2401 4.05279 14.2401 3.94726 14.1751 3.88217L12.4512 2.15831C12.3861 2.09323 12.2806 2.09323 12.2155 2.15831L10.7071 3.66669L12.6667 5.62625Z" fill="black"/>
</svg>
