<svg width="16" height="17" viewBox="0 0 16 17" fill="none" xmlns="http://www.w3.org/2000/svg">
<path fill-rule="evenodd" clip-rule="evenodd" d="M11.5084 1.52091C11.964 1.0653 12.7027 1.0653 13.1583 1.52091L14.8822 3.24477C15.3378 3.70038 15.3378 4.43907 14.8822 4.89468L13.0202 6.75661L13.0119 6.76474L5.7932 13.6553C5.66132 13.7812 5.50176 13.8744 5.32734 13.9275L1.64559 15.0481C1.46894 15.1018 1.27703 15.0538 1.14646 14.9233C1.01589 14.7927 0.967911 14.6008 1.02168 14.4241L2.13741 10.7582C2.19584 10.5662 2.30281 10.3925 2.44798 10.2539L9.65057 3.37872L11.5084 1.52091ZM9.99189 4.43537L3.13845 10.9773C3.11771 10.9971 3.10243 11.0219 3.09408 11.0493L2.25131 13.8184L5.03618 12.9709C5.06109 12.9633 5.08389 12.95 5.10273 12.932L11.9513 6.39474L9.99189 4.43537ZM12.6667 5.69595L14.1751 4.18758C14.2401 4.12249 14.2401 4.01696 14.1751 3.95187L12.4512 2.22802C12.3861 2.16293 12.2806 2.16293 12.2155 2.22801L10.7071 3.73639L12.6667 5.69595Z" fill="#646669"/>
</svg>
