<svg width="16" height="16" viewBox="0 0 16 16" fill="none" xmlns="http://www.w3.org/2000/svg">
<path fill-rule="evenodd" clip-rule="evenodd" d="M2.33341 5.33335C2.33341 3.30832 3.97501 1.66669 6.00003 1.66669C8.02505 1.66669 9.66664 3.30832 9.66664 5.33335C9.66664 6.59301 9.03145 7.70432 8.06389 8.36443C10.3069 9.1861 11.9226 11.3087 11.9973 13.8185C12.0055 14.0945 11.7884 14.3249 11.5124 14.3331C11.2363 14.3413 11.0059 14.1242 10.9977 13.8482C10.9176 11.1572 8.71062 9.00002 5.99997 9.00002C3.28932 9.00002 1.08232 11.1572 1.00222 13.8482C0.994009 14.1242 0.763591 14.3413 0.487571 14.3331C0.211551 14.3249 -0.00554796 14.0945 0.00266707 13.8185C0.0773658 11.3086 1.69309 9.18605 3.93612 8.3644C2.96859 7.70429 2.33341 6.593 2.33341 5.33335ZM6.00003 2.66669C4.52731 2.66669 3.33341 3.86059 3.33341 5.33335C3.33341 6.80612 4.52731 8.00002 6.00003 8.00002C7.47275 8.00002 8.66664 6.80612 8.66664 5.33335C8.66664 3.86059 7.47275 2.66669 6.00003 2.66669Z" fill="black"/>
<path d="M11.5267 5.33335C11.4282 5.33335 11.3317 5.34036 11.2375 5.35383C10.9642 5.39293 10.7109 5.20302 10.6718 4.92966C10.6327 4.6563 10.8226 4.403 11.0959 4.36391C11.2369 4.34375 11.3807 4.33335 11.5267 4.33335C13.1946 4.33335 14.5466 5.68546 14.5466 7.35335C14.5466 8.33724 14.0761 9.21061 13.3491 9.76162C14.9034 10.4584 15.9866 12.0188 15.9866 13.8334C15.9866 14.1095 15.7628 14.3334 15.4866 14.3334C15.2105 14.3334 14.9866 14.1095 14.9866 13.8334C14.9866 12.2694 13.9487 10.9466 12.5229 10.5188L12.1666 10.4119V9.29458L12.4402 9.15561C13.0978 8.82144 13.5466 8.13938 13.5466 7.35335C13.5466 6.23773 12.6423 5.33335 11.5267 5.33335Z" fill="black"/>
</svg>
