<svg width="16" height="17" viewBox="0 0 16 17" fill="none" xmlns="http://www.w3.org/2000/svg">
<path fill-rule="evenodd" clip-rule="evenodd" d="M2.33341 5.83317C2.33341 3.80813 3.97501 2.1665 6.00003 2.1665C8.02505 2.1665 9.66664 3.80813 9.66664 5.83317C9.66664 7.09283 9.03145 8.20414 8.06389 8.86424C10.3069 9.68592 11.9226 11.8085 11.9973 14.3183C12.0055 14.5943 11.7884 14.8247 11.5124 14.8329C11.2363 14.8412 11.0059 14.6241 10.9977 14.348C10.9176 11.657 8.71062 9.49984 5.99997 9.49984C3.28932 9.49984 1.08232 11.657 1.00222 14.348C0.994009 14.6241 0.763591 14.8412 0.487571 14.8329C0.211551 14.8247 -0.00554796 14.5943 0.00266707 14.3183C0.0773658 11.8085 1.69309 9.68587 3.93612 8.86421C2.96859 8.2041 2.33341 7.09281 2.33341 5.83317ZM6.00003 3.1665C4.52731 3.1665 3.33341 4.3604 3.33341 5.83317C3.33341 7.30594 4.52731 8.49984 6.00003 8.49984C7.47275 8.49984 8.66664 7.30594 8.66664 5.83317C8.66664 4.3604 7.47275 3.1665 6.00003 3.1665Z" fill="#646669"/>
<path d="M11.5267 5.83317C11.4282 5.83317 11.3317 5.84018 11.2375 5.85365C10.9642 5.89275 10.7109 5.70284 10.6718 5.42948C10.6327 5.15612 10.8226 4.90282 11.0959 4.86372C11.2369 4.84356 11.3807 4.83317 11.5267 4.83317C13.1946 4.83317 14.5466 6.18528 14.5466 7.85317C14.5466 8.83706 14.0761 9.71043 13.3491 10.2614C14.9034 10.9582 15.9866 12.5186 15.9866 14.3332C15.9866 14.6093 15.7628 14.8332 15.4866 14.8332C15.2105 14.8332 14.9866 14.6093 14.9866 14.3332C14.9866 12.7692 13.9487 11.4465 12.5229 11.0186L12.1666 10.9117V9.7944L12.4402 9.65543C13.0978 9.32126 13.5466 8.6392 13.5466 7.85317C13.5466 6.73755 12.6423 5.83317 11.5267 5.83317Z" fill="#646669"/>
</svg>
