<svg width="20" height="20" viewBox="0 0 20 20" fill="none" xmlns="http://www.w3.org/2000/svg">
<path d="M10.0002 9.97917C9.0835 9.97917 8.3335 9.68751 7.75016 9.10417C7.16683 8.52084 6.87516 7.77084 6.87516 6.85417C6.87516 5.93751 7.16683 5.18751 7.75016 4.60417C8.3335 4.02084 9.0835 3.72917 10.0002 3.72917C10.9168 3.72917 11.6668 4.02084 12.2502 4.60417C12.8335 5.18751 13.1252 5.93751 13.1252 6.85417C13.1252 7.77084 12.8335 8.52084 12.2502 9.10417C11.6668 9.68751 10.9168 9.97917 10.0002 9.97917ZM3.3335 16.6667V14.7083C3.3335 14.1806 3.46544 13.7292 3.72933 13.3542C3.99322 12.9792 4.3335 12.6944 4.75016 12.5C5.68072 12.0833 6.57308 11.7708 7.42725 11.5625C8.28141 11.3542 9.13905 11.25 10.0002 11.25C10.8613 11.25 11.7154 11.3576 12.5627 11.5729C13.4099 11.7882 14.2988 12.0972 15.2293 12.5C15.6599 12.6944 16.0071 12.9792 16.271 13.3542C16.5349 13.7292 16.6668 14.1806 16.6668 14.7083V16.6667H3.3335ZM4.5835 15.4167H15.4168V14.7083C15.4168 14.4861 15.3509 14.2743 15.2189 14.0729C15.087 13.8715 14.9238 13.7222 14.7293 13.625C13.8404 13.1945 13.0279 12.8993 12.2918 12.7396C11.5557 12.5799 10.7918 12.5 10.0002 12.5C9.2085 12.5 8.43766 12.5799 7.68766 12.7396C6.93766 12.8993 6.12516 13.1945 5.25016 13.625C5.05572 13.7222 4.896 13.8715 4.771 14.0729C4.646 14.2743 4.5835 14.4861 4.5835 14.7083V15.4167ZM10.0002 8.72917C10.5418 8.72917 10.9897 8.55209 11.3439 8.19792C11.6981 7.84376 11.8752 7.39584 11.8752 6.85417C11.8752 6.31251 11.6981 5.86459 11.3439 5.51042C10.9897 5.15626 10.5418 4.97917 10.0002 4.97917C9.4585 4.97917 9.01058 5.15626 8.65641 5.51042C8.30225 5.86459 8.12516 6.31251 8.12516 6.85417C8.12516 7.39584 8.30225 7.84376 8.65641 8.19792C9.01058 8.55209 9.4585 8.72917 10.0002 8.72917Z" fill="#191F28"/>
</svg>
