<svg width="16" height="16" viewBox="0 0 16 16" fill="none" xmlns="http://www.w3.org/2000/svg">
<path fill-rule="evenodd" clip-rule="evenodd" d="M8.00003 1.66667C5.97501 1.66667 4.33341 3.3083 4.33341 5.33334C4.33341 6.59298 4.96859 7.70427 5.93612 8.36438C3.69309 9.18604 2.07737 11.3086 2.00267 13.8185C1.99445 14.0945 2.21155 14.3249 2.48757 14.3331C2.76359 14.3413 2.99401 14.1242 3.00222 13.8482C3.08232 11.1572 5.28932 9 7.99997 9C10.7106 9 12.9176 11.1572 12.9977 13.8482C13.0059 14.1242 13.2363 14.3413 13.5124 14.3331C13.7884 14.3249 14.0055 14.0945 13.9973 13.8185C13.9226 11.3087 12.3069 9.18609 10.0639 8.36441C11.0314 7.7043 11.6666 6.593 11.6666 5.33334C11.6666 3.3083 10.0251 1.66667 8.00003 1.66667ZM5.33341 5.33334C5.33341 3.86057 6.52731 2.66667 8.00003 2.66667C9.47275 2.66667 10.6666 3.86057 10.6666 5.33334C10.6666 6.80611 9.47275 8 8.00003 8C6.52731 8 5.33341 6.80611 5.33341 5.33334Z" fill="black"/>
</svg>
