<svg width="16" height="16" viewBox="0 0 16 16" fill="none" xmlns="http://www.w3.org/2000/svg">
<path fill-rule="evenodd" clip-rule="evenodd" d="M6.00102 1.66666C6.20325 1.66708 6.38531 1.78928 6.46231 1.97628L10.6635 12.1792L12.3701 7.97847C12.4467 7.78996 12.6298 7.66666 12.8333 7.66666H15.5C15.7761 7.66666 16 7.89051 16 8.16666C16 8.4428 15.7761 8.66666 15.5 8.66666H13.1699L11.1299 13.6882C11.0534 13.8763 10.8709 13.9995 10.6678 14C10.4648 14.0005 10.2816 13.8781 10.2043 13.6904L5.99724 3.47322L3.96151 8.35896C3.88387 8.54529 3.70182 8.66666 3.49997 8.66666H0.499969C0.223827 8.66666 -3.05176e-05 8.4428 -3.05176e-05 8.16666C-3.05176e-05 7.89051 0.223827 7.66666 0.499969 7.66666H3.16664L5.53843 1.97435C5.61621 1.78767 5.79879 1.66623 6.00102 1.66666Z" fill="black"/>
</svg>
