<svg width="16" height="17" viewBox="0 0 16 17" fill="none" xmlns="http://www.w3.org/2000/svg">
<path d="M6.40019 7.21986C6.75366 7.21986 7.04019 6.93332 7.04019 6.57986C7.04019 6.2264 6.75366 5.93986 6.40019 5.93986C6.04673 5.93986 5.76019 6.2264 5.76019 6.57986C5.76019 6.93332 6.04673 7.21986 6.40019 7.21986Z" fill="#191F28"/>
<path d="M9.60019 7.21986C9.95366 7.21986 10.2402 6.93332 10.2402 6.57986C10.2402 6.2264 9.95366 5.93986 9.60019 5.93986C9.24673 5.93986 8.9602 6.2264 8.9602 6.57986C8.9602 6.93332 9.24673 7.21986 9.60019 7.21986Z" fill="#191F28"/>
<path d="M6.4002 9.77988H7.3602V11.0599H5.4402C4.93098 11.0599 4.44262 11.2622 4.08255 11.6222C3.72248 11.9823 3.5202 12.4707 3.5202 12.9799V13.6199H4.8002V12.9799C4.8002 12.8101 4.86762 12.6474 4.98765 12.5273C5.10767 12.4073 5.27046 12.3399 5.4402 12.3399H10.5602C10.7299 12.3399 10.8927 12.4073 11.0127 12.5273C11.1328 12.6474 11.2002 12.8101 11.2002 12.9799V13.6199H12.4802V12.9799C12.4802 12.4707 12.2779 11.9823 11.9178 11.6222C11.5578 11.2622 11.0694 11.0599 10.5602 11.0599H8.6402V9.77988H9.60019C10.4489 9.77988 11.2628 9.44274 11.8629 8.84262C12.4631 8.24251 12.8002 7.42858 12.8002 6.57988C12.8002 5.73119 12.4631 4.91726 11.8629 4.31714C11.2628 3.71702 10.4489 3.37988 9.60019 3.37988H6.4002C5.5515 3.37988 4.73757 3.71702 4.13745 4.31714C3.53734 4.91726 3.2002 5.73119 3.2002 6.57988C3.2002 7.42858 3.53734 8.24251 4.13745 8.84262C4.73757 9.44274 5.5515 9.77988 6.4002 9.77988ZM6.4002 4.65988H9.60019C10.1094 4.65988 10.5978 4.86217 10.9578 5.22224C11.3179 5.58231 11.5202 6.07067 11.5202 6.57988C11.5202 7.0891 11.3179 7.57746 10.9578 7.93753C10.5978 8.2976 10.1094 8.49988 9.60019 8.49988H6.4002C5.89098 8.49988 5.40262 8.2976 5.04255 7.93753C4.68248 7.57746 4.4802 7.0891 4.4802 6.57988C4.4802 6.07067 4.68248 5.58231 5.04255 5.22224C5.40262 4.86217 5.89098 4.65988 6.4002 4.65988Z" fill="#191F28"/>
</svg>
