<svg width="16" height="16" viewBox="0 0 16 16" fill="none" xmlns="http://www.w3.org/2000/svg">
<g opacity="0.5">
<path fill-rule="evenodd" clip-rule="evenodd" d="M6.16666 0.666672C3.12909 0.666672 0.666656 3.12911 0.666656 6.16667C0.666656 9.20424 3.12909 11.6667 6.16666 11.6667C7.5054 11.6667 8.73244 11.1884 9.68618 10.3933L13.4798 14.1869C13.675 14.3822 13.9916 14.3822 14.1869 14.1869C14.3821 13.9916 14.3821 13.675 14.1869 13.4798L10.3933 9.6862C11.1883 8.73245 11.6667 7.50542 11.6667 6.16667C11.6667 3.12911 9.20422 0.666672 6.16666 0.666672ZM1.66666 6.16667C1.66666 3.68139 3.68138 1.66667 6.16666 1.66667C8.65194 1.66667 10.6667 3.68139 10.6667 6.16667C10.6667 8.65195 8.65194 10.6667 6.16666 10.6667C3.68138 10.6667 1.66666 8.65195 1.66666 6.16667Z" fill="#555555"/>
</g>
</svg>
