<svg width="16" height="16" viewBox="0 0 16 16" fill="none" xmlns="http://www.w3.org/2000/svg">
<path fill-rule="evenodd" clip-rule="evenodd" d="M12.2643 3.66671H13.5C13.7761 3.66671 14 3.44285 14 3.16671C14 2.89056 13.7761 2.66671 13.5 2.66671H12.2643C12.0467 1.89721 11.3392 1.33337 10.5 1.33337C9.66082 1.33337 8.95332 1.89721 8.73568 2.66671H2.5C2.22386 2.66671 2 2.89056 2 3.16671C2 3.44285 2.22386 3.66671 2.5 3.66671H8.73568C8.95332 4.43621 9.66082 5.00004 10.5 5.00004C11.3392 5.00004 12.0467 4.43621 12.2643 3.66671ZM11.3333 3.16671C11.3333 3.62694 10.9602 4.00004 10.5 4.00004C10.0398 4.00004 9.66667 3.62694 9.66667 3.16671C9.66667 2.70647 10.0398 2.33337 10.5 2.33337C10.9602 2.33337 11.3333 2.70647 11.3333 3.16671Z" fill="#24292E"/>
<path fill-rule="evenodd" clip-rule="evenodd" d="M12.2643 13H13.5C13.7761 13 14 12.7762 14 12.5C14 12.2239 13.7761 12 13.5 12H12.2643C12.0467 11.2305 11.3392 10.6667 10.5 10.6667C9.66082 10.6667 8.95332 11.2305 8.73568 12H2.5C2.22386 12 2 12.2239 2 12.5C2 12.7762 2.22386 13 2.5 13H8.73568C8.95332 13.7695 9.66082 14.3334 10.5 14.3334C11.3392 14.3334 12.0467 13.7695 12.2643 13ZM11.3333 12.5C11.3333 12.9603 10.9602 13.3334 10.5 13.3334C10.0398 13.3334 9.66667 12.9603 9.66667 12.5C9.66667 12.0398 10.0398 11.6667 10.5 11.6667C10.9602 11.6667 11.3333 12.0398 11.3333 12.5Z" fill="#24292E"/>
<path fill-rule="evenodd" clip-rule="evenodd" d="M2.5 8.33337H3.73568C3.95332 9.10288 4.66082 9.66671 5.5 9.66671C6.33919 9.66671 7.04668 9.10288 7.26432 8.33337H13.5C13.7761 8.33337 14 8.10952 14 7.83337C14 7.55723 13.7761 7.33337 13.5 7.33337H7.26432C7.04668 6.56387 6.33919 6.00004 5.5 6.00004C4.66082 6.00004 3.95332 6.56387 3.73568 7.33337H2.5C2.22386 7.33337 2 7.55723 2 7.83337C2 8.10952 2.22386 8.33337 2.5 8.33337ZM5.5 8.66671C5.03976 8.66671 4.66667 8.29361 4.66667 7.83337C4.66667 7.37314 5.03976 7.00004 5.5 7.00004C5.96024 7.00004 6.33333 7.37314 6.33333 7.83337C6.33333 8.29361 5.96024 8.66671 5.5 8.66671Z" fill="#24292E"/>
</svg>
