<svg width="16" height="16" viewBox="0 0 16 16" fill="none" xmlns="http://www.w3.org/2000/svg">
<path fill-rule="evenodd" clip-rule="evenodd" d="M12.2643 3.66668H13.5C13.7761 3.66668 14 3.44282 14 3.16668C14 2.89053 13.7761 2.66668 13.5 2.66668H12.2643C12.0467 1.89718 11.3392 1.33334 10.5 1.33334C9.66082 1.33334 8.95332 1.89718 8.73568 2.66668H2.5C2.22386 2.66668 2 2.89053 2 3.16668C2 3.44282 2.22386 3.66668 2.5 3.66668H8.73568C8.95332 4.43618 9.66082 5.00001 10.5 5.00001C11.3392 5.00001 12.0467 4.43618 12.2643 3.66668ZM11.3333 3.16668C11.3333 3.62691 10.9602 4.00001 10.5 4.00001C10.0398 4.00001 9.66667 3.62691 9.66667 3.16668C9.66667 2.70644 10.0398 2.33334 10.5 2.33334C10.9602 2.33334 11.3333 2.70644 11.3333 3.16668Z" fill="black"/>
<path fill-rule="evenodd" clip-rule="evenodd" d="M12.2643 13H13.5C13.7761 13 14 12.7762 14 12.5C14 12.2239 13.7761 12 13.5 12H12.2643C12.0467 11.2305 11.3392 10.6667 10.5 10.6667C9.66082 10.6667 8.95332 11.2305 8.73568 12H2.5C2.22386 12 2 12.2239 2 12.5C2 12.7762 2.22386 13 2.5 13H8.73568C8.95332 13.7695 9.66082 14.3333 10.5 14.3333C11.3392 14.3333 12.0467 13.7695 12.2643 13ZM11.3333 12.5C11.3333 12.9602 10.9602 13.3333 10.5 13.3333C10.0398 13.3333 9.66667 12.9602 9.66667 12.5C9.66667 12.0398 10.0398 11.6667 10.5 11.6667C10.9602 11.6667 11.3333 12.0398 11.3333 12.5Z" fill="black"/>
<path fill-rule="evenodd" clip-rule="evenodd" d="M2.5 8.33334H3.73568C3.95332 9.10285 4.66082 9.66668 5.5 9.66668C6.33919 9.66668 7.04668 9.10285 7.26432 8.33334H13.5C13.7761 8.33334 14 8.10949 14 7.83334C14 7.5572 13.7761 7.33334 13.5 7.33334H7.26432C7.04668 6.56384 6.33919 6.00001 5.5 6.00001C4.66082 6.00001 3.95332 6.56384 3.73568 7.33334H2.5C2.22386 7.33334 2 7.5572 2 7.83334C2 8.10949 2.22386 8.33334 2.5 8.33334ZM5.5 8.66668C5.03976 8.66668 4.66667 8.29358 4.66667 7.83334C4.66667 7.37311 5.03976 7.00001 5.5 7.00001C5.96024 7.00001 6.33333 7.37311 6.33333 7.83334C6.33333 8.29358 5.96024 8.66668 5.5 8.66668Z" fill="black"/>
</svg>
