<svg width="16" height="16" viewBox="0 0 16 16" fill="none" xmlns="http://www.w3.org/2000/svg">
<path fill-rule="evenodd" clip-rule="evenodd" d="M13.3335 3.66659C13.3335 4.95525 12.2888 5.99992 11.0002 5.99992C10.3258 5.99992 9.71822 5.71382 9.29223 5.25638L5.88392 7.27059C5.95935 7.50005 6.00016 7.74522 6.00016 7.99992C6.00016 8.25462 5.95935 8.49979 5.88392 8.72924L9.29236 10.7433C9.71834 10.286 10.3258 9.99992 11.0002 9.99992C12.2888 9.99992 13.3335 11.0446 13.3335 12.3333C13.3335 13.6219 12.2888 14.6666 11.0002 14.6666C9.7115 14.6666 8.66683 13.6219 8.66683 12.3333C8.66683 12.0785 8.70764 11.8334 8.78308 11.6039L5.37464 9.58984C4.94866 10.0472 4.34115 10.3333 3.66683 10.3333C2.37817 10.3333 1.3335 9.28858 1.3335 7.99992C1.3335 6.71125 2.37817 5.66659 3.66683 5.66659C4.34115 5.66659 4.94865 5.95263 5.37464 6.40999L8.78307 4.39591L8.78334 4.3967C8.70773 4.16702 8.66683 3.92158 8.66683 3.66659C8.66683 2.37792 9.7115 1.33325 11.0002 1.33325C12.2888 1.33325 13.3335 2.37792 13.3335 3.66659ZM12.3335 3.66659C12.3335 4.40297 11.7365 4.99992 11.0002 4.99992C10.2638 4.99992 9.66683 4.40297 9.66683 3.66659C9.66683 2.93021 10.2638 2.33325 11.0002 2.33325C11.7365 2.33325 12.3335 2.93021 12.3335 3.66659ZM3.66683 9.33325C4.40321 9.33325 5.00016 8.7363 5.00016 7.99992C5.00016 7.26354 4.40321 6.66659 3.66683 6.66659C2.93045 6.66659 2.3335 7.26354 2.3335 7.99992C2.3335 8.7363 2.93045 9.33325 3.66683 9.33325ZM12.3335 12.3333C12.3335 13.0696 11.7365 13.6666 11.0002 13.6666C10.2638 13.6666 9.66683 13.0696 9.66683 12.3333C9.66683 11.5969 10.2638 10.9999 11.0002 10.9999C11.7365 10.9999 12.3335 11.5969 12.3335 12.3333Z" fill="#646669"/>
</svg>
