<svg width="16" height="16" viewBox="0 0 16 16" fill="none" xmlns="http://www.w3.org/2000/svg">
<path fill-rule="evenodd" clip-rule="evenodd" d="M13.3335 3.66671C13.3335 4.95537 12.2888 6.00004 11.0002 6.00004C10.3258 6.00004 9.71822 5.71394 9.29223 5.2565L5.88392 7.27071C5.95935 7.50017 6.00016 7.74534 6.00016 8.00004C6.00016 8.25474 5.95935 8.49991 5.88392 8.72936L9.29236 10.7434C9.71834 10.2861 10.3258 10 11.0002 10C12.2888 10 13.3335 11.0447 13.3335 12.3334C13.3335 13.622 12.2888 14.6667 11.0002 14.6667C9.7115 14.6667 8.66683 13.622 8.66683 12.3334C8.66683 12.0787 8.70764 11.8335 8.78308 11.604L5.37464 9.58997C4.94866 10.0473 4.34115 10.3334 3.66683 10.3334C2.37817 10.3334 1.3335 9.28871 1.3335 8.00004C1.3335 6.71138 2.37817 5.66671 3.66683 5.66671C4.34115 5.66671 4.94865 5.95275 5.37464 6.41011L8.78307 4.39604L8.78334 4.39683C8.70773 4.16714 8.66683 3.9217 8.66683 3.66671C8.66683 2.37804 9.7115 1.33337 11.0002 1.33337C12.2888 1.33337 13.3335 2.37804 13.3335 3.66671ZM12.3335 3.66671C12.3335 4.40309 11.7365 5.00004 11.0002 5.00004C10.2638 5.00004 9.66683 4.40309 9.66683 3.66671C9.66683 2.93033 10.2638 2.33337 11.0002 2.33337C11.7365 2.33337 12.3335 2.93033 12.3335 3.66671ZM3.66683 9.33337C4.40321 9.33337 5.00016 8.73642 5.00016 8.00004C5.00016 7.26366 4.40321 6.66671 3.66683 6.66671C2.93045 6.66671 2.3335 7.26366 2.3335 8.00004C2.3335 8.73642 2.93045 9.33337 3.66683 9.33337ZM12.3335 12.3334C12.3335 13.0698 11.7365 13.6667 11.0002 13.6667C10.2638 13.6667 9.66683 13.0698 9.66683 12.3334C9.66683 11.597 10.2638 11 11.0002 11C11.7365 11 12.3335 11.597 12.3335 12.3334Z" fill="black"/>
</svg>
