<svg width="16" height="16" viewBox="0 0 16 16" fill="none" xmlns="http://www.w3.org/2000/svg">
<path d="M2 2.16667C2 1.52233 2.52233 1 3.16667 1H6.83333C7.10948 1 7.33333 1.22386 7.33333 1.5C7.33333 1.77614 7.10948 2 6.83333 2H3.16667C3.07462 2 3 2.07462 3 2.16667V13.8333C3 13.9254 3.07462 14 3.16667 14H6.83333C7.10948 14 7.33333 14.2239 7.33333 14.5C7.33333 14.7761 7.10948 15 6.83333 15H3.16667C2.52233 15 2 14.4777 2 13.8333V2.16667Z" fill="black"/>
<path d="M12.6709 8.5L10.4704 10.8228C10.2804 11.0233 10.289 11.3397 10.4895 11.5296C10.6899 11.7196 11.0064 11.711 11.1963 11.5105L14.1963 8.34387C14.379 8.15103 14.379 7.84898 14.1963 7.65613L11.1963 4.48946C11.0064 4.289 10.6899 4.28044 10.4895 4.47036C10.289 4.66027 10.2804 4.97674 10.4704 5.17721L12.6709 7.5H7.16667C6.89052 7.5 6.66667 7.72386 6.66667 8C6.66667 8.27614 6.89052 8.5 7.16667 8.5H12.6709Z" fill="black"/>
</svg>
