<svg width="16" height="16" viewBox="0 0 16 16" fill="none" xmlns="http://www.w3.org/2000/svg">
<path d="M5.63746 9.66255C5.85731 9.49766 6.16878 9.54121 6.33507 9.7594C6.3397 9.76521 6.34448 9.7709 6.34931 9.77654C6.36317 9.79271 6.38673 9.81904 6.41992 9.85223C6.48653 9.91884 6.59025 10.0114 6.73043 10.1049C7.00886 10.2905 7.42961 10.4792 7.99996 10.4792C8.5703 10.4792 8.99105 10.2905 9.26948 10.1049C9.40966 10.0114 9.51338 9.91884 9.58 9.85223C9.61318 9.81904 9.63674 9.79271 9.6506 9.77654C9.65544 9.7709 9.66022 9.76521 9.66484 9.7594C9.83113 9.54121 10.1426 9.49766 10.3625 9.66255C10.5834 9.82823 10.6281 10.1416 10.4625 10.3625L10.4448 10.3852C10.4361 10.3961 10.4244 10.4103 10.4099 10.4273C10.3808 10.4613 10.3399 10.5066 10.2871 10.5593C10.1818 10.6646 10.0278 10.8012 9.82418 10.9369C9.41511 11.2096 8.80461 11.4792 7.99996 11.4792C7.1953 11.4792 6.5848 11.2096 6.17573 10.9369C5.97216 10.8012 5.81807 10.6646 5.71281 10.5593C5.63365 10.4802 5.58132 10.418 5.55508 10.3852C5.38289 10.1642 5.4064 9.83584 5.63746 9.66255Z" fill="#1781F4"/>
<path fill-rule="evenodd" clip-rule="evenodd" d="M7.99996 0.666687C3.94987 0.666687 0.666626 3.94993 0.666626 8.00002C0.666626 12.0501 3.94987 15.3334 7.99996 15.3334C12.05 15.3334 15.3333 12.0501 15.3333 8.00002C15.3333 3.94993 12.05 0.666687 7.99996 0.666687ZM1.66663 8.00002C1.66663 4.50222 4.50216 1.66669 7.99996 1.66669C11.4978 1.66669 14.3333 4.50222 14.3333 8.00002C14.3333 11.4978 11.4978 14.3334 7.99996 14.3334C4.50216 14.3334 1.66663 11.4978 1.66663 8.00002Z" fill="#1781F4"/>
<path d="M5.99996 7.16669C5.99996 7.62692 5.62686 8.00002 5.16663 8.00002C4.70639 8.00002 4.33329 7.62692 4.33329 7.16669C4.33329 6.70645 4.70639 6.33335 5.16663 6.33335C5.62686 6.33335 5.99996 6.70645 5.99996 7.16669Z" fill="#1781F4"/>
<path d="M10.8333 8.00002C11.2935 8.00002 11.6666 7.62692 11.6666 7.16669C11.6666 6.70645 11.2935 6.33335 10.8333 6.33335C10.3731 6.33335 9.99996 6.70645 9.99996 7.16669C9.99996 7.62692 10.3731 8.00002 10.8333 8.00002Z" fill="#1781F4"/>
</svg>
