<svg width="16" height="16" viewBox="0 0 16 16" fill="none" xmlns="http://www.w3.org/2000/svg">
<path fill-rule="evenodd" clip-rule="evenodd" d="M6.00004 2.33325H2.66671C2.48261 2.33325 2.33337 2.48249 2.33337 2.66659V5.99992C2.33337 6.18401 2.48261 6.33325 2.66671 6.33325H6.00004C6.18414 6.33325 6.33337 6.18401 6.33337 5.99992V2.66659C6.33337 2.48249 6.18414 2.33325 6.00004 2.33325ZM2.66671 1.33325C1.93033 1.33325 1.33337 1.93021 1.33337 2.66659V5.99992C1.33337 6.7363 1.93033 7.33325 2.66671 7.33325H6.00004C6.73642 7.33325 7.33337 6.7363 7.33337 5.99992V2.66659C7.33337 1.93021 6.73642 1.33325 6.00004 1.33325H2.66671Z" fill="#24292E"/>
<path fill-rule="evenodd" clip-rule="evenodd" d="M6.00004 9.66675H2.66671C2.48261 9.66675 2.33337 9.81599 2.33337 10.0001V13.3334C2.33337 13.5175 2.48261 13.6667 2.66671 13.6667H6.00004C6.18414 13.6667 6.33337 13.5175 6.33337 13.3334V10.0001C6.33337 9.81599 6.18414 9.66675 6.00004 9.66675ZM2.66671 8.66675C1.93033 8.66675 1.33337 9.2637 1.33337 10.0001V13.3334C1.33337 14.0698 1.93033 14.6667 2.66671 14.6667H6.00004C6.73642 14.6667 7.33337 14.0698 7.33337 13.3334V10.0001C7.33337 9.2637 6.73642 8.66675 6.00004 8.66675H2.66671Z" fill="#24292E"/>
<path fill-rule="evenodd" clip-rule="evenodd" d="M13.3333 2.33325H9.99996C9.81586 2.33325 9.66663 2.48249 9.66663 2.66659V5.99992C9.66663 6.18401 9.81586 6.33325 9.99996 6.33325H13.3333C13.5174 6.33325 13.6666 6.18401 13.6666 5.99992V2.66659C13.6666 2.48249 13.5174 2.33325 13.3333 2.33325ZM9.99996 1.33325C9.26358 1.33325 8.66663 1.93021 8.66663 2.66659V5.99992C8.66663 6.7363 9.26358 7.33325 9.99996 7.33325H13.3333C14.0697 7.33325 14.6666 6.7363 14.6666 5.99992V2.66659C14.6666 1.93021 14.0697 1.33325 13.3333 1.33325H9.99996Z" fill="#24292E"/>
<path fill-rule="evenodd" clip-rule="evenodd" d="M13.3333 9.66675H9.99996C9.81586 9.66675 9.66663 9.81599 9.66663 10.0001V13.3334C9.66663 13.5175 9.81586 13.6667 9.99996 13.6667H13.3333C13.5174 13.6667 13.6666 13.5175 13.6666 13.3334V10.0001C13.6666 9.81599 13.5174 9.66675 13.3333 9.66675ZM9.99996 8.66675C9.26358 8.66675 8.66663 9.2637 8.66663 10.0001V13.3334C8.66663 14.0698 9.26358 14.6667 9.99996 14.6667H13.3333C14.0697 14.6667 14.6666 14.0698 14.6666 13.3334V10.0001C14.6666 9.2637 14.0697 8.66675 13.3333 8.66675H9.99996Z" fill="#24292E"/>
</svg>
