<svg width="16" height="16" viewBox="0 0 16 16" fill="none" xmlns="http://www.w3.org/2000/svg">
<path d="M2.25363 5.33332C3.26054 3.16727 5.45558 1.66666 8 1.66666C10.9643 1.66666 13.4541 3.70363 14.1436 6.45488C14.2108 6.72274 14.4823 6.88546 14.7502 6.81832C15.0181 6.75119 15.1808 6.47962 15.1136 6.21176C14.3152 3.02625 11.4338 0.666656 8 0.666656C5.29837 0.666656 2.93884 2.12744 1.66666 4.30105V3.16666C1.66666 2.89051 1.4428 2.66666 1.16666 2.66666C0.890514 2.66666 0.666656 2.89051 0.666656 3.16666V5.66666C0.666656 6.03485 0.965133 6.33332 1.33332 6.33332H3.83332C4.10947 6.33332 4.33332 6.10946 4.33332 5.83332C4.33332 5.55718 4.10947 5.33332 3.83332 5.33332H2.25363Z" fill="black"/>
<path d="M1.85636 9.5451C1.78923 9.27724 1.51766 9.11452 1.24981 9.18166C0.981949 9.24879 0.819232 9.52036 0.886366 9.78821C1.68477 12.9737 4.56621 15.3333 8 15.3333C10.7016 15.3333 13.0611 13.8726 14.3333 11.699V12.8333C14.3333 13.1095 14.5572 13.3333 14.8333 13.3333C15.1095 13.3333 15.3333 13.1095 15.3333 12.8333V10.3333C15.3333 9.96513 15.0348 9.66666 14.6667 9.66666H12.1667C11.8905 9.66666 11.6667 9.89051 11.6667 10.1667C11.6667 10.4428 11.8905 10.6667 12.1667 10.6667H13.7464C12.7395 12.8327 10.5444 14.3333 8 14.3333C5.03571 14.3333 2.54593 12.2963 1.85636 9.5451Z" fill="black"/>
</svg>
