<svg width="32" height="33" viewBox="0 0 32 33" fill="none" xmlns="http://www.w3.org/2000/svg">
<path fill-rule="evenodd" clip-rule="evenodd" d="M11.9997 16.5001C11.9997 17.2365 11.4027 17.8334 10.6663 17.8334C9.92996 17.8334 9.33301 17.2365 9.33301 16.5001C9.33301 15.7637 9.92996 15.1667 10.6663 15.1667C11.4027 15.1667 11.9997 15.7637 11.9997 16.5001ZM17.333 16.5001C17.333 17.2365 16.7361 17.8334 15.9997 17.8334C15.2633 17.8334 14.6663 17.2365 14.6663 16.5001C14.6663 15.7637 15.2633 15.1667 15.9997 15.1667C16.7361 15.1667 17.333 15.7637 17.333 16.5001ZM21.333 17.8334C22.0694 17.8334 22.6663 17.2365 22.6663 16.5001C22.6663 15.7637 22.0694 15.1667 21.333 15.1667C20.5966 15.1667 19.9997 15.7637 19.9997 16.5001C19.9997 17.2365 20.5966 17.8334 21.333 17.8334Z" fill="black"/>
</svg>
