<svg width="16" height="16" viewBox="0 0 16 16" fill="none" xmlns="http://www.w3.org/2000/svg">
<path fill-rule="evenodd" clip-rule="evenodd" d="M10.6668 1.16667V2H14.1668C14.443 2 14.6668 2.22386 14.6668 2.5C14.6668 2.77614 14.443 3 14.1668 3H1.8335C1.55735 3 1.3335 2.77614 1.3335 2.5C1.3335 2.22386 1.55735 2 1.8335 2H5.3335V1.16667C5.3335 0.522334 5.85583 0 6.50016 0H9.50016C10.1445 0 10.6668 0.522335 10.6668 1.16667ZM6.3335 1.16667C6.3335 1.07462 6.40812 1 6.50016 1H9.50016C9.59221 1 9.66683 1.07462 9.66683 1.16667V2H6.3335V1.16667Z" fill="#646669"/>
<path d="M3.33121 4.1185C3.30461 3.84364 3.06023 3.64239 2.78537 3.66899C2.51051 3.69559 2.30926 3.93997 2.33586 4.21482L3.27755 13.9457C3.33543 14.5437 3.83799 15 4.4388 15H11.5616C12.1624 15 12.665 14.5437 12.7228 13.9457L13.6645 4.21482C13.6911 3.93997 13.4899 3.69559 13.215 3.66899C12.9402 3.64239 12.6958 3.84364 12.6692 4.1185L11.7275 13.8494C11.7192 13.9348 11.6474 14 11.5616 14H4.4388C4.35297 14 4.28117 13.9348 4.2729 13.8494L3.33121 4.1185Z" fill="#646669"/>
<path d="M6.13748 5.00086C6.41315 4.98464 6.64977 5.19497 6.66598 5.47063L6.99932 11.1373C7.01553 11.413 6.80521 11.6496 6.52954 11.6658C6.25387 11.682 6.01726 11.4717 6.00104 11.196L5.66771 5.52936C5.65149 5.25369 5.86182 5.01707 6.13748 5.00086Z" fill="#646669"/>
<path d="M10.3326 5.52936C10.3489 5.25369 10.1385 5.01707 9.86287 5.00086C9.58721 4.98464 9.35059 5.19497 9.33437 5.47063L9.00104 11.1373C8.98483 11.413 9.19515 11.6496 9.47082 11.6658C9.74648 11.682 9.9831 11.4717 9.99932 11.196L10.3326 5.52936Z" fill="#646669"/>
</svg>
