<svg width="16" height="16" viewBox="0 0 16 16" fill="none" xmlns="http://www.w3.org/2000/svg">
<path d="M11.3536 6.5202C11.5488 6.32494 11.5488 6.00835 11.3536 5.81309C11.1583 5.61783 10.8417 5.61783 10.6465 5.81309L7.00001 9.45954L5.35356 7.81309C5.1583 7.61783 4.84172 7.61783 4.64646 7.81309C4.45119 8.00836 4.45119 8.32494 4.64646 8.5202L6.64646 10.5202C6.84172 10.7155 7.1583 10.7155 7.35356 10.5202L11.3536 6.5202Z" fill="black"/>
<path fill-rule="evenodd" clip-rule="evenodd" d="M9.42402 0.7999C8.5766 0.177784 7.42342 0.177784 6.576 0.799899L5.65912 1.47301C5.47643 1.60713 5.26403 1.69511 5.04001 1.72946L3.91571 1.90183C2.87659 2.06114 2.06117 2.87656 1.90186 3.91568L1.72949 5.03998C1.69514 5.264 1.60716 5.4764 1.47305 5.65909L0.79993 6.57597C0.177815 7.42339 0.177814 8.57657 0.79993 9.42399L1.47304 10.3409C1.60716 10.5236 1.69514 10.736 1.72949 10.96L1.90186 12.0843C2.06117 13.1234 2.87659 13.9388 3.91571 14.0981L5.04001 14.2705C5.26403 14.3048 5.47643 14.3928 5.65912 14.5269L6.576 15.2001C7.42342 15.8222 8.5766 15.8222 9.42402 15.2001L10.3409 14.5269C10.5236 14.3928 10.736 14.3048 10.96 14.2705L12.0843 14.0981C13.1234 13.9388 13.9388 13.1234 14.0982 12.0843L14.2705 10.96C14.3049 10.736 14.3929 10.5236 14.527 10.3409L15.2001 9.42399C15.8222 8.57657 15.8222 7.42339 15.2001 6.57597L14.527 5.65909C14.3929 5.4764 14.3049 5.264 14.2705 5.03998L14.0982 3.91568C13.9388 2.87656 13.1234 2.06114 12.0843 1.90183L10.96 1.72946C10.736 1.69511 10.5236 1.60713 10.3409 1.47301L9.42402 0.7999ZM7.16779 1.606C7.66304 1.24242 8.33698 1.24242 8.83224 1.606L9.74912 2.27911C10.0617 2.5086 10.4252 2.65914 10.8085 2.71791L11.9328 2.89028C12.5401 2.98339 13.0166 3.45994 13.1097 4.06722L13.2821 5.19152C13.3409 5.57484 13.4914 5.93827 13.7209 6.25087L14.394 7.16776C14.7576 7.66301 14.7576 8.33695 14.394 8.83221L13.7209 9.74909C13.4914 10.0617 13.3408 10.4251 13.2821 10.8084L13.1097 11.9327C13.0166 12.54 12.5401 13.0166 11.9328 13.1097L10.8085 13.2821C10.4252 13.3408 10.0617 13.4914 9.74912 13.7208L8.83224 14.394C8.33698 14.7575 7.66304 14.7575 7.16779 14.394L6.2509 13.7208C5.9383 13.4914 5.57487 13.3408 5.19155 13.2821L4.06725 13.1097C3.45997 13.0166 2.98342 12.54 2.89031 11.9327L2.71794 10.8084C2.65917 10.4251 2.50863 10.0617 2.27914 9.74909L1.60603 8.83221C1.24245 8.33695 1.24245 7.66301 1.60603 7.16776L2.27914 6.25087C2.50863 5.93827 2.65917 5.57484 2.71794 5.19152L2.89031 4.06722C2.98342 3.45994 3.45997 2.98339 4.06725 2.89028L5.19156 2.71791C5.57487 2.65914 5.9383 2.5086 6.2509 2.27911L7.16779 1.606Z" fill="black"/>
</svg>
