<svg width="16" height="16" viewBox="0 0 16 16" fill="none" xmlns="http://www.w3.org/2000/svg">
<path d="M14.3536 1.64645C14.5488 1.84171 14.5488 2.15829 14.3536 2.35355L8.70711 8L8 8.70711L2.35355 14.3536C2.15829 14.5488 1.84171 14.5488 1.64645 14.3536C1.45118 14.1583 1.45118 13.8417 1.64645 13.6464L7.29289 8L8 7.29289L13.6464 1.64645C13.8417 1.45118 14.1583 1.45118 14.3536 1.64645Z" fill="black"/>
<path d="M7.29289 8L8 7.29289L2.35355 1.64645C2.15829 1.45118 1.84171 1.45118 1.64645 1.64645C1.45118 1.84171 1.45118 2.15829 1.64645 2.35355L7.29289 8Z" fill="black"/>
<path d="M8.70711 8L8 8.70711L13.6464 14.3536C13.8417 14.5488 14.1583 14.5488 14.3536 14.3536C14.5488 14.1583 14.5488 13.8417 14.3536 13.6464L8.70711 8Z" fill="black"/>
</svg>
