<svg width="24" height="24" viewBox="0 0 24 24" fill="none" xmlns="http://www.w3.org/2000/svg">
<path d="M21.5303 2.46967C21.8232 2.76256 21.8232 3.23744 21.5303 3.53033L13.0607 12L12 13.0607L3.53033 21.5303C3.23744 21.8232 2.76256 21.8232 2.46967 21.5303C2.17678 21.2374 2.17678 20.7626 2.46967 20.4697L10.9393 12L12 10.9393L20.4697 2.46967C20.7626 2.17678 21.2374 2.17678 21.5303 2.46967Z" fill="white"/>
<path d="M10.9393 12L12 10.9393L3.53033 2.46967C3.23744 2.17678 2.76256 2.17678 2.46967 2.46967C2.17678 2.76256 2.17678 3.23744 2.46967 3.53033L10.9393 12Z" fill="white"/>
<path d="M13.0607 12L12 13.0607L20.4697 21.5303C20.7626 21.8232 21.2374 21.8232 21.5303 21.5303C21.8232 21.2374 21.8232 20.7626 21.5303 20.4697L13.0607 12Z" fill="white"/>
</svg>
