<svg width="24" height="24" viewBox="0 0 24 24" fill="none" xmlns="http://www.w3.org/2000/svg">
<path d="M0 5.60001C0 2.4 2.4 0 5.6 1.46866e-05L17.6 0L24 6.4V18.4C24 21.6 21.6 24 18.4 24H5.6C2.4 24 0 21.6 0 18.4V5.60001Z" fill="url(#paint0_linear)"/>
<path d="M7.01898 20.8H7.72938V19.36H8.99178V18.7648H7.72938V17.8384H9.20778V17.248H7.01898V20.8Z" fill="#333333"/>
<path d="M10.0668 20.8H10.7772V17.248H10.0668V20.8Z" fill="#333333"/>
<path d="M11.8912 20.8H14.0416V20.2048H12.6016V17.248H11.8912V20.8Z" fill="#333333"/>
<path d="M14.9015 20.8H17.1335V20.2048H15.6119V19.2544H16.8599V18.6592H15.6119V17.8384H17.0807V17.248H14.9015V20.8Z" fill="#333333"/>
<path d="M17.6 0L24 6.4H20C18.4 6.4 17.6 5.6 17.6 4V0Z" fill="black" fill-opacity="0.1"/>
<path fill-rule="evenodd" clip-rule="evenodd" d="M12.7827 6.49004L12.7812 6.49159L8.96586 10.2227C8.85423 10.3318 8.64285 10.6619 8.59396 11.0922C8.54706 11.505 8.64918 12.0118 9.15675 12.5082C9.66273 13.003 10.157 13.0831 10.5509 13.0262C10.9655 12.9664 11.2912 12.7505 11.4118 12.6326L13.7979 10.2993C13.9105 10.1891 14.0954 10.187 14.2107 10.2947C14.326 10.4025 14.3281 10.5791 14.2154 10.6893L11.8292 13.0228C11.6317 13.216 11.1938 13.4979 10.638 13.5781C10.0616 13.6613 9.37869 13.5236 8.73932 12.8984C8.10154 12.2747 7.94914 11.5992 8.01359 11.0319C8.07605 10.4821 8.3419 10.0344 8.54842 9.83247L12.3661 6.09908C12.3661 6.09906 12.3663 6.09893 12.575 6.29402C12.3663 6.09893 12.3664 6.09883 12.3665 6.09872L12.3672 6.09797L12.3686 6.09668L12.3723 6.09309C12.3753 6.09026 12.3793 6.08658 12.3841 6.08213C12.3938 6.07324 12.4073 6.06126 12.4242 6.04691C12.458 6.01826 12.5062 5.97979 12.5668 5.93743C12.6869 5.85354 12.8623 5.74994 13.0773 5.67986C13.2936 5.60935 13.556 5.571 13.8415 5.62684C14.1291 5.68309 14.4184 5.83073 14.6926 6.09893C14.967 6.36723 15.1163 6.64854 15.173 6.92592C15.2293 7.20121 15.1908 7.45435 15.1193 7.66389C15.0483 7.87236 14.943 8.04292 14.8574 8.16014C14.8142 8.21928 14.775 8.26626 14.7457 8.29927C14.7311 8.3158 14.7189 8.32893 14.7098 8.33842C14.7052 8.34317 14.7015 8.34702 14.6986 8.34993L14.6949 8.35361L14.6936 8.35492L14.6931 8.35545C14.6929 8.35555 14.6926 8.35588 14.4839 8.16079L14.6926 8.35588L11.1929 11.7783L10.9842 11.5832C11.1929 11.7783 11.193 11.7782 11.1929 11.7783L11.1922 11.779L11.1912 11.7799L11.1886 11.7825L11.1805 11.7901C11.1739 11.7963 11.1648 11.8046 11.1534 11.8145C11.1308 11.8344 11.0988 11.8613 11.0591 11.8915C10.9808 11.9511 10.8665 12.0282 10.7295 12.0891C10.5937 12.1494 10.4198 12.2009 10.2285 12.1899C10.0287 12.1784 9.8315 12.0997 9.66196 11.9339C9.30374 11.5836 9.38154 11.1705 9.50451 10.906C9.56628 10.7731 9.64465 10.6619 9.70544 10.5854C9.73628 10.5467 9.76371 10.5154 9.78402 10.4933C9.79421 10.4822 9.80267 10.4734 9.80898 10.4669L9.81677 10.459L9.81937 10.4564L9.82032 10.4554L9.82071 10.4551C9.82079 10.455 9.82104 10.4547 10.0298 10.6498L9.82104 10.4547L13.3207 7.03231C13.4334 6.92211 13.6182 6.92011 13.7335 7.02786C13.8488 7.1356 13.8508 7.31229 13.7382 7.4225L10.2392 10.8442C10.2393 10.8441 10.2394 10.844 10.2392 10.8442L10.2365 10.847C10.2337 10.8498 10.2289 10.8548 10.2227 10.8616C10.21 10.8754 10.1915 10.8964 10.1701 10.9233C10.1265 10.9781 10.0757 11.0516 10.038 11.1326C9.96212 11.2958 9.96038 11.4273 10.0794 11.5437C10.1485 11.6112 10.2098 11.6297 10.2635 11.6328C10.3258 11.6364 10.4004 11.6198 10.4833 11.5829C10.5651 11.5466 10.6396 11.4973 10.6956 11.4548C10.723 11.4339 10.7444 11.4159 10.7584 11.4035C10.7654 11.3974 10.7705 11.3928 10.7734 11.3901L10.776 11.3876C10.7762 11.3875 10.7761 11.3875 10.776 11.3876L14.2743 7.96661C14.2742 7.96668 14.2744 7.96651 14.2745 7.96632C14.2746 7.96627 14.2745 7.96639 14.2745 7.96632L14.279 7.96174C14.2834 7.9571 14.2908 7.94927 14.3003 7.93846C14.3196 7.91677 14.3474 7.88354 14.3788 7.84059C14.4423 7.75363 14.516 7.6325 14.5643 7.49096C14.6122 7.35048 14.6333 7.19527 14.6001 7.03303C14.5673 6.87288 14.478 6.6875 14.2752 6.48911C14.0722 6.29062 13.8843 6.20491 13.7245 6.17365C13.5626 6.14199 13.4073 6.16197 13.2657 6.20814C13.1228 6.25473 12.9999 6.32614 12.9112 6.3881C12.8675 6.41866 12.8336 6.44581 12.8115 6.46457C12.8005 6.47391 12.7925 6.48107 12.7877 6.4854L12.7831 6.48965C12.7829 6.48988 12.7828 6.49001 12.7827 6.49004Z" fill="#333333"/>
<defs>
<linearGradient id="paint0_linear" x1="1.2" y1="1.6" x2="22.4" y2="22.4" gradientUnits="userSpaceOnUse">
<stop stop-color="#FBFBFB"/>
<stop offset="1" stop-color="#F1F1F1"/>
</linearGradient>
</defs>
</svg>
