<svg width="24" height="24" viewBox="0 0 24 24" fill="none" xmlns="http://www.w3.org/2000/svg">
<g clip-path="url(#clip0)">
<path d="M0 5.60002C0 2.4 2.4 0 5.6 1.46866e-05L17.6 0L24 6.4V18.4C24 21.6 21.6 24 18.4 24H5.6C2.4 24 0 21.6 0 18.4V5.60002Z" fill="url(#paint0_linear)"/>
<path d="M17.6 0L24 6.4H20C18.4 6.4 17.6 5.6 17.6 4V0Z" fill="white" fill-opacity="0.4"/>
<path d="M9.12503 16H10.6322L11.3906 14.4256C11.5634 14.0608 11.7266 13.6864 11.909 13.2544H11.9474C12.1586 13.6864 12.3218 14.0608 12.5042 14.4256L13.301 16H14.8754L12.8786 12.4L14.7506 8.896H13.253L12.581 10.3552C12.4274 10.6912 12.2834 11.0368 12.1106 11.4784H12.0626C11.8514 11.0368 11.6978 10.6912 11.5346 10.3552L10.8242 8.896H9.24983L11.1218 12.3328L9.12503 16Z" fill="white"/>
</g>
<defs>
<linearGradient id="paint0_linear" x1="1.2" y1="1.6" x2="22.4" y2="22.4" gradientUnits="userSpaceOnUse">
<stop stop-color="#44B47E"/>
<stop offset="1" stop-color="#29822C"/>
</linearGradient>
<clipPath id="clip0">
<rect width="24" height="24" fill="white"/>
</clipPath>
</defs>
</svg>
