<svg width="24" height="24" viewBox="0 0 24 24" fill="none" xmlns="http://www.w3.org/2000/svg">
<path d="M0 5.60001C0 2.4 2.4 0 5.6 1.46866e-05L17.6 0L24 6.4V18.4C24 21.6 21.6 24 18.4 24H5.6C2.4 24 0 21.6 0 18.4V5.60001Z" fill="url(#paint0_linear)"/>
<path d="M7.58142 16H9.00222V13.4752H9.95262C11.479 13.4752 12.6982 12.7456 12.6982 11.1232C12.6982 9.4432 11.4886 8.896 9.91422 8.896H7.58142V16ZM9.00222 12.352V10.0192H9.80862C10.7878 10.0192 11.3062 10.2976 11.3062 11.1232C11.3062 11.9392 10.8358 12.352 9.85662 12.352H9.00222Z" fill="#A36AFF"/>
<path d="M13.8693 16H15.2709V12.7936C15.5781 12.016 16.0869 11.7376 16.5093 11.7376C16.7301 11.7376 16.8837 11.7664 17.0661 11.824L17.3157 10.6048C17.1525 10.5376 16.9797 10.4896 16.6821 10.4896C16.1253 10.4896 15.5493 10.8736 15.1557 11.5744H15.1173L15.0213 10.624H13.8693V16Z" fill="#A36AFF"/>
<path d="M17.6 0L24 6.4H20C18.4 6.4 17.6 5.6 17.6 4V0Z" fill="white" fill-opacity="0.4"/>
<defs>
<linearGradient id="paint0_linear" x1="1.2" y1="1.6" x2="22.4" y2="22.4" gradientUnits="userSpaceOnUse">
<stop stop-color="#291E46"/>
<stop offset="1" stop-color="#131238"/>
</linearGradient>
</defs>
</svg>
