<svg width="24" height="24" viewBox="0 0 24 24" fill="none" xmlns="http://www.w3.org/2000/svg">
<path d="M0 5.60002C0 2.4 2.4 0 5.6 1.46866e-05L17.6 0L24 6.4V18.4C24 21.6 21.6 24 18.4 24H5.6C2.4 24 0 21.6 0 18.4V5.60002Z" fill="url(#paint0_linear)"/>
<path d="M17.6 0L24 6.4H20C18.4 6.4 17.6 5.6 17.6 4V0Z" fill="black" fill-opacity="0.1"/>
<path fill-rule="evenodd" clip-rule="evenodd" d="M15.4409 5.28062C15.5411 5.3562 15.6 5.47444 15.6 5.59995V12H14.8V6.13025L10 7.50168V13.6H9.2V7.19995C9.2 7.02136 9.31839 6.86441 9.49011 6.81534L15.0901 5.21535C15.2108 5.18086 15.3407 5.20503 15.4409 5.28062Z" fill="#32CF92"/>
<ellipse cx="8.80001" cy="13.5999" rx="1.2" ry="1.2" fill="#32CF92"/>
<ellipse cx="14.4" cy="12" rx="1.2" ry="1.2" fill="#32CF92"/>
<path d="M7.36015 20.8H8.22895L8.61775 19.0432C8.67535 18.7648 8.72335 18.4912 8.77135 18.2224H8.79055C8.83375 18.4912 8.88655 18.7648 8.94415 19.0432L9.34255 20.8H10.2258L10.8834 17.248H10.2066L9.92815 18.9808C9.87535 19.3504 9.82255 19.7296 9.76975 20.1136H9.74575C9.66895 19.7296 9.59695 19.3456 9.52015 18.9808L9.10735 17.248H8.50255L8.08975 18.9808C8.01295 19.3504 7.93615 19.7344 7.86415 20.1136H7.84495C7.79215 19.7344 7.73455 19.3552 7.68175 18.9808L7.39855 17.248H6.67375L7.36015 20.8Z" fill="#32CF92"/>
<path d="M12.3235 19.336L12.4291 18.9472C12.5347 18.5776 12.6403 18.1744 12.7315 17.7856H12.7507C12.8563 18.1696 12.9523 18.5776 13.0627 18.9472L13.1683 19.336H12.3235ZM13.5715 20.8H14.3155L13.1731 17.248H12.3379L11.2003 20.8H11.9203L12.1699 19.888H13.3219L13.5715 20.8Z" fill="#32CF92"/>
<path d="M15.5063 20.8H16.3511L17.4407 17.248H16.7207C16.5407 17.9229 16.4398 18.3012 16.2599 18.976C16.1495 19.3696 16.0679 19.7248 15.9575 20.1232H15.9335C15.8183 19.7248 15.7463 19.3696 15.6359 18.976L15.1655 17.248H14.4215L15.5063 20.8Z" fill="#32CF92"/>
<defs>
<linearGradient id="paint0_linear" x1="1.2" y1="1.6" x2="22.4" y2="22.4" gradientUnits="userSpaceOnUse">
<stop stop-color="#FBFBFB"/>
<stop offset="1" stop-color="#F1F1F1"/>
</linearGradient>
</defs>
</svg>
