<svg width="24" height="24" viewBox="0 0 24 24" fill="none" xmlns="http://www.w3.org/2000/svg">
<path d="M0 5.60002C0 2.4 2.4 0 5.6 1.46866e-05L17.6 0L24 6.4V18.4C24 21.6 21.6 24 18.4 24H5.6C2.4 24 0 21.6 0 18.4V5.60002Z" fill="url(#paint0_linear)"/>
<path fill-rule="evenodd" clip-rule="evenodd" d="M14.6 7.7999H9.4V12.9999H14.6V7.7999ZM9 7.3999V13.3999H15V7.3999H9Z" fill="#333333"/>
<rect x="8.39999" y="6.80005" width="1.6" height="1.6" fill="#333333"/>
<rect x="14" y="6.80005" width="1.6" height="1.6" fill="#333333"/>
<rect x="14" y="12.3999" width="1.6" height="1.6" fill="#333333"/>
<rect x="8.39999" y="12.3999" width="1.6" height="1.6" fill="#333333"/>
<path d="M17.6 0L24 6.4H20C18.4 6.4 17.6 5.6 17.6 4V0Z" fill="black" fill-opacity="0.1"/>
<path d="M8.98416 20.8673C9.80496 20.8673 10.2898 20.3729 10.2898 19.7921C10.2898 19.2785 10.0066 19.0049 9.57456 18.8273L9.10896 18.6305C8.80656 18.5105 8.55216 18.4193 8.55216 18.1649C8.55216 17.9297 8.75376 17.7905 9.06576 17.7905C9.35856 17.7905 9.59376 17.8961 9.81936 18.0833L10.1794 17.6369C9.89136 17.3441 9.47856 17.1809 9.06576 17.1809C8.34576 17.1809 7.83696 17.6273 7.83696 18.2081C7.83696 18.7265 8.19696 19.0145 8.55696 19.1633L9.03216 19.3649C9.34896 19.4993 9.56496 19.5809 9.56496 19.8449C9.56496 20.0945 9.36816 20.2529 8.99856 20.2529C8.68656 20.2529 8.35056 20.0945 8.09616 19.8593L7.68816 20.3489C8.03376 20.6801 8.50896 20.8673 8.98416 20.8673Z" fill="#333333"/>
<path d="M11.7827 20.8001H12.6275L13.7171 17.2481H12.9971L12.5363 18.9761C12.4259 19.3697 12.3443 19.7249 12.2339 20.1233H12.2099C12.0947 19.7249 12.0227 19.3697 11.9123 18.9761L11.4419 17.2481H10.6979L11.7827 20.8001Z" fill="#333333"/>
<path d="M15.836 20.8673C16.3304 20.8673 16.748 20.6753 16.988 20.4401V18.8369H15.7256V19.4177H16.3544V20.1185C16.2536 20.2049 16.0808 20.2529 15.908 20.2529C15.212 20.2529 14.8568 19.7873 14.8568 19.0145C14.8568 18.2513 15.2696 17.7905 15.86 17.7905C16.1816 17.7905 16.3832 17.9201 16.556 18.0881L16.9352 17.6369C16.7048 17.4017 16.3496 17.1809 15.836 17.1809C14.8904 17.1809 14.132 17.8673 14.132 19.0385C14.132 20.2241 14.8664 20.8673 15.836 20.8673Z" fill="#333333"/>
<defs>
<linearGradient id="paint0_linear" x1="1.2" y1="1.6" x2="22.4" y2="22.4" gradientUnits="userSpaceOnUse">
<stop stop-color="#FBFBFB"/>
<stop offset="1" stop-color="#F1F1F1"/>
</linearGradient>
</defs>
</svg>
