<svg width="24" height="24" viewBox="0 0 24 24" fill="none" xmlns="http://www.w3.org/2000/svg">
<path d="M0 5.60001C0 2.4 2.4 0 5.6 1.46866e-05L17.6 0L24 6.4V18.4C24 21.6 21.6 24 18.4 24H5.6C2.4 24 0 21.6 0 18.4V5.60001Z" fill="url(#paint0_linear)"/>
<path d="M17.6 0L24 6.4H20C18.4 6.4 17.6 5.6 17.6 4V0Z" fill="black" fill-opacity="0.1"/>
<path d="M7.28892 20.8H8.04252L8.42172 20.0128C8.50812 19.8304 8.58972 19.6432 8.68092 19.4272H8.70012C8.80572 19.6432 8.88732 19.8304 8.97852 20.0128L9.37692 20.8H10.1641L9.16572 19L10.1017 17.248H9.35292L9.01692 17.9776C8.94012 18.1456 8.86812 18.3184 8.78172 18.5392H8.75772C8.65212 18.3184 8.57532 18.1456 8.49372 17.9776L8.13852 17.248H7.35132L8.28732 18.9664L7.28892 20.8Z" fill="#A36AFF"/>
<path d="M10.9079 20.8H11.5463V19.3168C11.5463 18.9808 11.4887 18.4864 11.4551 18.1504H11.4743L11.7575 18.9856L12.3095 20.4784H12.7175L13.2647 18.9856L13.5527 18.1504H13.5719C13.5383 18.4864 13.4855 18.9808 13.4855 19.3168V20.8H14.1335V17.248H13.3463L12.7559 18.9088C12.6791 19.1296 12.6167 19.3648 12.5399 19.5952H12.5159C12.4439 19.3648 12.3767 19.1296 12.2999 18.9088L11.6951 17.248H10.9079V20.8Z" fill="#A36AFF"/>
<path d="M15.2448 20.8H17.3952V20.2048H15.9552V17.248H15.2448V20.8Z" fill="#A36AFF"/>
<path d="M6.87197 9.77241L9.97252 11.1448V10.263L7.87087 9.4144V9.3702L9.97252 8.51937V7.6376L6.87197 9.01219V9.77241Z" fill="#A36AFF"/>
<path d="M13.1291 6.46191H12.3313L10.8727 11.8807H11.6705L13.1291 6.46191Z" fill="#A36AFF"/>
<path d="M17.1313 9.77241V9.01219L14.0307 7.6376V8.51937L16.1368 9.37241V9.41219L14.0307 10.263V11.1448L17.1313 9.77241Z" fill="#A36AFF"/>
<defs>
<linearGradient id="paint0_linear" x1="1.2" y1="1.6" x2="22.4" y2="22.4" gradientUnits="userSpaceOnUse">
<stop stop-color="#FBFBFB"/>
<stop offset="1" stop-color="#F1F1F1"/>
</linearGradient>
</defs>
</svg>
