<svg width="24" height="24" viewBox="0 0 24 24" fill="none" xmlns="http://www.w3.org/2000/svg">
<path d="M0 5.60001C0 2.4 2.4 0 5.6 1.46866e-05L17.6 0L24 6.4V18.4C24 21.6 21.6 24 18.4 24H5.6C2.4 24 0 21.6 0 18.4V5.60001Z" fill="url(#paint0_linear)"/>
<path d="M7.35172 16H8.77252V13.4752H9.72292C11.2493 13.4752 12.4685 12.7456 12.4685 11.1232C12.4685 9.4432 11.2589 8.896 9.68452 8.896H7.35172V16ZM8.77252 12.352V10.0192H9.57892C10.5581 10.0192 11.0765 10.2976 11.0765 11.1232C11.0765 11.9392 10.6061 12.352 9.62692 12.352H8.77252Z" fill="#4FC0FF"/>
<path d="M15.0631 16.1344C16.4647 16.1344 17.2039 15.376 17.2039 14.4352C17.2039 13.4368 16.4167 13.0816 15.7063 12.8128C15.1399 12.6016 14.6119 12.4576 14.6119 12.064C14.6119 11.7568 14.8423 11.5456 15.3223 11.5456C15.7255 11.5456 16.0999 11.7376 16.4839 12.0064L17.1175 11.152C16.6663 10.816 16.0711 10.4896 15.2839 10.4896C14.0743 10.4896 13.2871 11.1712 13.2871 12.1408C13.2871 13.0336 14.0743 13.4464 14.7559 13.7056C15.3223 13.9264 15.8791 14.1088 15.8791 14.512C15.8791 14.848 15.6391 15.0784 15.1015 15.0784C14.6023 15.0784 14.1415 14.8672 13.6615 14.4928L13.0183 15.376C13.5463 15.8176 14.3431 16.1344 15.0631 16.1344Z" fill="#4FC0FF"/>
<path d="M17.6 0L24 6.4H20C18.4 6.4 17.6 5.6 17.6 4V0Z" fill="white" fill-opacity="0.4"/>
<defs>
<linearGradient id="paint0_linear" x1="1.2" y1="1.6" x2="22.4" y2="22.4" gradientUnits="userSpaceOnUse">
<stop stop-color="#134573"/>
<stop offset="1" stop-color="#062E5E"/>
</linearGradient>
</defs>
</svg>
