<svg width="24" height="24" viewBox="0 0 24 24" fill="none" xmlns="http://www.w3.org/2000/svg">
<path d="M0 5.60002C0 2.4 2.4 0 5.6 1.46866e-05L17.6 0L24 6.4V18.4C24 21.6 21.6 24 18.4 24H5.6C2.4 24 0 21.6 0 18.4V5.60002Z" fill="url(#paint0_linear)"/>
<path d="M17.6 0L24 6.4H20C18.4 6.4 17.6 5.6 17.6 4V0Z" fill="black" fill-opacity="0.1"/>
<path fill-rule="evenodd" clip-rule="evenodd" d="M11.2174 11.5526C11.2174 12.4973 10.4582 13.2632 9.52174 13.2632C8.58526 13.2632 7.82609 12.4973 7.82609 11.5526C7.82609 10.6079 8.58526 9.84211 9.52174 9.84211C10.4582 9.84211 11.2174 10.6079 11.2174 11.5526ZM10.4348 11.5526C10.4348 12.0613 10.026 12.4737 9.52174 12.4737C9.01748 12.4737 8.6087 12.0613 8.6087 11.5526C8.6087 11.0439 9.01748 10.6316 9.52174 10.6316C10.026 10.6316 10.4348 11.0439 10.4348 11.5526Z" fill="#414141"/>
<path fill-rule="evenodd" clip-rule="evenodd" d="M17.087 18C17.5912 18 18 17.5876 18 17.0789V8.92105C18 8.41237 17.5912 8 17.087 8H6.91304C6.40878 8 6 8.41237 6 8.92105V17.0789C6 17.5876 6.40878 18 6.91304 18H17.087ZM6.91304 8.78947C6.84101 8.78947 6.78261 8.84838 6.78261 8.92105V17.0789C6.78261 17.1516 6.84101 17.2105 6.91304 17.2105H8.57114L13.0433 12.4617C13.3969 12.0862 13.9878 12.0786 14.3509 12.4448L17.2174 15.3365V8.92105C17.2174 8.84838 17.159 8.78947 17.087 8.78947H6.91304ZM17.2174 17.0789V16.453L13.7975 13.0031C13.7456 12.9507 13.6612 12.9518 13.6107 13.0055L9.65061 17.2105H17.087C17.159 17.2105 17.2174 17.1516 17.2174 17.0789Z" fill="#414141"/>
<defs>
<linearGradient id="paint0_linear" x1="1.2" y1="1.6" x2="22.4" y2="22.4" gradientUnits="userSpaceOnUse">
<stop stop-color="#FBFBFB"/>
<stop offset="1" stop-color="#F1F1F1"/>
</linearGradient>
</defs>
</svg>
