<svg width="24" height="24" viewBox="0 0 24 24" fill="none" xmlns="http://www.w3.org/2000/svg">
<path d="M0 5.60002C0 2.4 2.4 0 5.6 1.46866e-05L17.6 0L24 6.4V18.4C24 21.6 21.6 24 18.4 24H5.6C2.4 24 0 21.6 0 18.4V5.60002Z" fill="url(#paint0_linear)"/>
<path d="M9.15341 16H10.891L11.6686 12.4864C11.7838 11.9296 11.8798 11.3824 11.9758 10.8448H12.0142C12.1006 11.3824 12.2062 11.9296 12.3214 12.4864L13.1182 16H14.8846L16.1998 8.896H14.8462L14.2894 12.3616C14.1838 13.1008 14.0782 13.8592 13.9726 14.6272H13.9246C13.771 13.8592 13.627 13.0912 13.4734 12.3616L12.6478 8.896H11.4382L10.6126 12.3616C10.459 13.1008 10.3054 13.8688 10.1614 14.6272H10.123C10.0174 13.8688 9.90221 13.1104 9.79661 12.3616L9.23021 8.896H7.78061L9.15341 16Z" fill="white"/>
<path d="M17.6 0L24 6.4H20C18.4 6.4 17.6 5.6 17.6 4V0Z" fill="white" fill-opacity="0.4"/>
<defs>
<linearGradient id="paint0_linear" x1="1.2" y1="1.6" x2="22.4" y2="22.4" gradientUnits="userSpaceOnUse">
<stop stop-color="#4B91D1"/>
<stop offset="1" stop-color="#2F70BC"/>
</linearGradient>
</defs>
</svg>
