<svg width="24" height="24" viewBox="0 0 24 24" fill="none" xmlns="http://www.w3.org/2000/svg">
<path d="M0 5.60002C0 2.4 2.4 0 5.6 1.46866e-05L17.6 0L24 6.4V18.4C24 21.6 21.6 24 18.4 24H5.6C2.4 24 0 21.6 0 18.4V5.60002Z" fill="url(#paint0_linear)"/>
<path d="M17.6 0L24 6.4H20C18.4 6.4 17.6 5.6 17.6 4V0Z" fill="black" fill-opacity="0.1"/>
<path d="M6.75079 20.8H7.61959L8.00839 19.0432C8.06599 18.7648 8.11399 18.4912 8.16199 18.2224H8.18119C8.22439 18.4912 8.27719 18.7648 8.33479 19.0432L8.73319 20.8H9.61639L10.274 17.248H9.59719L9.31879 18.9808C9.26599 19.3504 9.21319 19.7296 9.16039 20.1136H9.13639C9.05959 19.7296 8.98759 19.3456 8.91079 18.9808L8.49799 17.248H7.89319L7.48039 18.9808C7.40359 19.3504 7.32679 19.7344 7.25479 20.1136H7.23559C7.18279 19.7344 7.12519 19.3552 7.07239 18.9808L6.78919 17.248H6.06439L6.75079 20.8Z" fill="#FA679C"/>
<path d="M11.047 20.8H11.6854V19.3168C11.6854 18.9808 11.6278 18.4864 11.5942 18.1504H11.6134L11.8966 18.9856L12.4486 20.4784H12.8566L13.4038 18.9856L13.6918 18.1504H13.711C13.6774 18.4864 13.6246 18.9808 13.6246 19.3168V20.8H14.2726V17.248H13.4854L12.895 18.9088C12.8182 19.1296 12.7558 19.3648 12.679 19.5952H12.655C12.583 19.3648 12.5158 19.1296 12.439 18.9088L11.8342 17.248H11.047V20.8Z" fill="#FA679C"/>
<path d="M16.0511 19.336L16.1567 18.9472C16.2623 18.5776 16.3679 18.1744 16.4591 17.7856H16.4783C16.5839 18.1696 16.6799 18.5776 16.7903 18.9472L16.8959 19.336H16.0511ZM17.2991 20.8H18.0431L16.9007 17.248H16.0655L14.9279 20.8H15.6479L15.8975 19.888H17.0495L17.2991 20.8Z" fill="#FA679C"/>
<path d="M15.1077 9.09148C15.7641 9.47046 15.7641 10.4179 15.1077 10.7969L10.6769 13.355C10.0205 13.734 9.20001 13.2602 9.20001 12.5023L9.20001 7.38608C9.20001 6.62812 10.0205 6.1544 10.6769 6.53338L15.1077 9.09148Z" fill="#FA679C"/>
<defs>
<linearGradient id="paint0_linear" x1="1.2" y1="1.6" x2="22.4" y2="22.4" gradientUnits="userSpaceOnUse">
<stop stop-color="#FBFBFB"/>
<stop offset="1" stop-color="#F1F1F1"/>
</linearGradient>
</defs>
</svg>
