<svg width="24" height="24" viewBox="0 0 24 24" fill="none" xmlns="http://www.w3.org/2000/svg">
<path d="M0 5.60002C0 2.4 2.4 0 5.6 1.46866e-05L17.6 0L24 6.4V18.4C24 21.6 21.6 24 18.4 24H5.6C2.4 24 0 21.6 0 18.4V5.60002Z" fill="url(#paint0_linear)"/>
<path d="M17.6 0L24 6.4H20C18.4 6.4 17.6 5.6 17.6 4V0Z" fill="black" fill-opacity="0.1"/>
<path fill-rule="evenodd" clip-rule="evenodd" d="M15.4409 5.28062C15.5411 5.3562 15.6 5.47444 15.6 5.59995V12H14.8V6.13025L10 7.50168V13.6H9.2V7.19995C9.2 7.02136 9.31839 6.86441 9.49011 6.81534L15.0901 5.21535C15.2108 5.18086 15.3407 5.20503 15.4409 5.28062Z" fill="#2484F3"/>
<ellipse cx="8.8" cy="13.5999" rx="1.2" ry="1.2" fill="#2484F3"/>
<ellipse cx="14.4" cy="12" rx="1.2" ry="1.2" fill="#2484F3"/>
<path d="M7.6429 20.8H8.2813V19.3168C8.2813 18.9808 8.2237 18.4864 8.1901 18.1504H8.2093L8.4925 18.9856L9.0445 20.4784H9.4525L9.9997 18.9856L10.2877 18.1504H10.3069C10.2733 18.4864 10.2205 18.9808 10.2205 19.3168V20.8H10.8685V17.248H10.0813L9.4909 18.9088C9.4141 19.1296 9.3517 19.3648 9.2749 19.5952H9.2509C9.1789 19.3648 9.1117 19.1296 9.0349 18.9088L8.4301 17.248H7.6429V20.8Z" fill="#2484F3"/>
<path d="M11.9798 20.8H12.6902V17.248H11.9798V20.8Z" fill="#2484F3"/>
<path d="M13.8041 20.8H14.8169C15.8633 20.8 16.5353 20.2048 16.5353 19.0096C16.5353 17.8096 15.8633 17.248 14.7785 17.248H13.8041V20.8ZM14.5145 20.2288V17.8144H14.7353C15.3977 17.8144 15.8105 18.1408 15.8105 19.0096C15.8105 19.8736 15.3977 20.2288 14.7353 20.2288H14.5145Z" fill="#2484F3"/>
<defs>
<linearGradient id="paint0_linear" x1="1.2" y1="1.6" x2="22.4" y2="22.4" gradientUnits="userSpaceOnUse">
<stop stop-color="#FBFBFB"/>
<stop offset="1" stop-color="#F1F1F1"/>
</linearGradient>
</defs>
</svg>
