<svg width="24" height="24" viewBox="0 0 24 24" fill="none" xmlns="http://www.w3.org/2000/svg">
<path d="M0 5.60001C0 2.4 2.4 0 5.6 1.46866e-05L17.6 0L24 6.4V18.4C24 21.6 21.6 24 18.4 24H5.6C2.4 24 0 21.6 0 18.4V5.60001Z" fill="url(#paint0_linear)"/>
<path d="M17.6 0L24 6.4H20C18.4 6.4 17.6 5.6 17.6 4V0Z" fill="black" fill-opacity="0.1"/>
<path d="M8.62805 19.3361L8.73365 18.9473C8.83925 18.5777 8.94485 18.1745 9.03605 17.7857H9.05525C9.16085 18.1697 9.25685 18.5777 9.36725 18.9473L9.47285 19.3361H8.62805ZM9.87605 20.8001H10.6201L9.47765 17.2481H8.64245L7.50485 20.8001H8.22485L8.47445 19.8881H9.62645L9.87605 20.8001Z" fill="#FA679C"/>
<path d="M12.3367 20.8673C13.1575 20.8673 13.6423 20.3729 13.6423 19.7921C13.6423 19.2785 13.3591 19.0049 12.9271 18.8273L12.4615 18.6305C12.1591 18.5105 11.9047 18.4193 11.9047 18.1649C11.9047 17.9297 12.1063 17.7905 12.4183 17.7905C12.7111 17.7905 12.9463 17.8961 13.1719 18.0833L13.5319 17.6369C13.2439 17.3441 12.8311 17.1809 12.4183 17.1809C11.6983 17.1809 11.1895 17.6273 11.1895 18.2081C11.1895 18.7265 11.5495 19.0145 11.9095 19.1633L12.3847 19.3649C12.7015 19.4993 12.9175 19.5809 12.9175 19.8449C12.9175 20.0945 12.7207 20.2529 12.3511 20.2529C12.0391 20.2529 11.7031 20.0945 11.4487 19.8593L11.0407 20.3489C11.3863 20.6801 11.8615 20.8673 12.3367 20.8673Z" fill="#FA679C"/>
<path d="M14.5112 20.8001H15.2216V19.5377H15.6968C16.46 19.5377 17.0696 19.1729 17.0696 18.3617C17.0696 17.5217 16.4648 17.2481 15.6776 17.2481H14.5112V20.8001ZM15.2216 18.9761V17.8097H15.6248C16.1144 17.8097 16.3736 17.9489 16.3736 18.3617C16.3736 18.7697 16.1384 18.9761 15.6488 18.9761H15.2216Z" fill="#FA679C"/>
<path d="M7.29944 9.811L9.62485 10.8403V10.179L8.04861 9.54249V9.50934L9.62485 8.87122V8.2099L7.29944 9.24083V9.811Z" fill="#FA679C"/>
<path d="M12.1302 10.3845V10.5635C12.1302 10.9679 12.3904 11.316 12.8744 11.316C13.3534 11.316 13.6186 10.9679 13.6186 10.5635V10.3845C13.6186 9.97509 13.36 9.63199 12.8744 9.63199C12.397 9.63199 12.1302 9.98006 12.1302 10.3845ZM10.3898 8.62095C10.3898 9.02536 10.65 9.36846 11.134 9.36846C11.613 9.36846 11.8766 9.03034 11.8766 8.62095V8.44194C11.8766 8.03255 11.6197 7.68945 11.134 7.68945C10.6616 7.68945 10.3898 8.03255 10.3898 8.44194V8.62095ZM10.6069 11.2H11.0379L13.3716 7.80548H12.9407L10.6069 11.2ZM10.8705 8.62095V8.44194C10.8705 8.28282 10.9351 8.10879 11.134 8.10879C11.3445 8.10879 11.3976 8.27951 11.3976 8.44194V8.62095C11.3976 8.78338 11.3379 8.94912 11.134 8.94912C10.9351 8.94912 10.8705 8.78338 10.8705 8.62095ZM12.6075 10.5635V10.3845C12.6075 10.2221 12.6738 10.0513 12.8744 10.0513C13.0832 10.0513 13.1379 10.2221 13.1379 10.3845V10.5635C13.1379 10.7259 13.0766 10.8917 12.8744 10.8917C12.6705 10.8917 12.6075 10.7226 12.6075 10.5635Z" fill="#FA679C"/>
<path d="M16.703 9.811V9.24083L14.3776 8.2099V8.87122L15.9571 9.511V9.54083L14.3776 10.179V10.8403L16.703 9.811Z" fill="#FA679C"/>
<defs>
<linearGradient id="paint0_linear" x1="1.2" y1="1.6" x2="22.4" y2="22.4" gradientUnits="userSpaceOnUse">
<stop stop-color="#FBFBFB"/>
<stop offset="1" stop-color="#F1F1F1"/>
</linearGradient>
</defs>
</svg>
