<svg width="24" height="24" viewBox="0 0 24 24" fill="none" xmlns="http://www.w3.org/2000/svg">
<path d="M0 5.60002C0 2.4 2.4 0 5.6 1.46866e-05L17.6 0L24 6.4V18.4C24 21.6 21.6 24 18.4 24H5.6C2.4 24 0 21.6 0 18.4V5.60002Z" fill="url(#paint0_linear)"/>
<path d="M17.6 0L24 6.4H20C18.4 6.4 17.6 5.6 17.6 4V0Z" fill="black" fill-opacity="0.1"/>
<path d="M7.13431 20.8H7.77271V19.3168C7.77271 18.9808 7.71511 18.4864 7.68151 18.1504H7.70071L7.98391 18.9856L8.53591 20.4784H8.94391L9.49111 18.9856L9.77911 18.1504H9.79831C9.76471 18.4864 9.71191 18.9808 9.71191 19.3168V20.8H10.3599V17.248H9.57271L8.98231 18.9088C8.90551 19.1296 8.84311 19.3648 8.76631 19.5952H8.74231C8.67031 19.3648 8.60311 19.1296 8.52631 18.9088L7.92151 17.248H7.13431V20.8Z" fill="#32CF92"/>
<path d="M11.4712 20.8H12.1816V19.5376H12.6568C13.42 19.5376 14.0296 19.1728 14.0296 18.3616C14.0296 17.5216 13.4248 17.248 12.6376 17.248H11.4712V20.8ZM12.1816 18.976V17.8096H12.5848C13.0744 17.8096 13.3336 17.9488 13.3336 18.3616C13.3336 18.7696 13.0984 18.976 12.6088 18.976H12.1816Z" fill="#32CF92"/>
<path d="M15.2631 19.3408L15.8151 18.4576C15.9159 18.2656 16.0119 18.0688 16.0983 17.8816H16.1175C16.1079 18.088 16.0887 18.4096 16.0887 18.616V19.3408H15.2631ZM17.1687 19.3408H16.7463V17.248H15.9015L14.5767 19.3984V19.8784H16.0887V20.8H16.7463V19.8784H17.1687V19.3408Z" fill="#32CF92"/>
<path d="M15.1077 9.09139C15.7641 9.47037 15.7641 10.4178 15.1077 10.7968L10.6769 13.3549C10.0205 13.7339 9.2 13.2602 9.2 12.5022L9.2 7.38599C9.2 6.62803 10.0205 6.15431 10.6769 6.53328L15.1077 9.09139Z" fill="#32CF92"/>
<defs>
<linearGradient id="paint0_linear" x1="1.2" y1="1.6" x2="22.4" y2="22.4" gradientUnits="userSpaceOnUse">
<stop stop-color="#FBFBFB"/>
<stop offset="1" stop-color="#F1F1F1"/>
</linearGradient>
</defs>
</svg>
