<svg width="24" height="24" viewBox="0 0 24 24" fill="none" xmlns="http://www.w3.org/2000/svg">
<path d="M0 5.60001C0 2.4 2.4 0 5.6 1.46866e-05L17.6 0L24 6.4V18.4C24 21.6 21.6 24 18.4 24H5.6C2.4 24 0 21.6 0 18.4V5.60001Z" fill="url(#paint0_linear)"/>
<path d="M6.11095 15.9999H7.61815L8.37655 14.4255C8.54935 14.0607 8.71255 13.6863 8.89495 13.2543H8.93335C9.14455 13.6863 9.30775 14.0607 9.49015 14.4255L10.287 15.9999H11.8614L9.86455 12.3999L11.7366 8.89591H10.239L9.56695 10.3551C9.41335 10.6911 9.26935 11.0367 9.09655 11.4783H9.04855C8.83735 11.0367 8.68375 10.6911 8.52055 10.3551L7.81015 8.89591H6.23575L8.10775 12.3327L6.11095 15.9999Z" fill="#D857CB"/>
<path d="M14.4949 16.1343C15.0517 16.1343 15.5893 15.8271 15.9829 15.4431H16.0117L16.1269 15.9999H17.2693V8.33911H15.8581V10.2303L15.9157 11.0751C15.5317 10.7199 15.1573 10.4895 14.5525 10.4895C13.3909 10.4895 12.2965 11.5647 12.2965 13.3215C12.2965 15.0783 13.1605 16.1343 14.4949 16.1343ZM14.8597 14.9727C14.1493 14.9727 13.7461 14.4159 13.7461 13.3023C13.7461 12.2271 14.2549 11.6511 14.8597 11.6511C15.1957 11.6511 15.5317 11.7567 15.8581 12.0543V14.4159C15.5509 14.8191 15.2341 14.9727 14.8597 14.9727Z" fill="#D857CB"/>
<path d="M17.6 0L24 6.4H20C18.4 6.4 17.6 5.6 17.6 4V0Z" fill="white" fill-opacity="0.4"/>
<defs>
<linearGradient id="paint0_linear" x1="1.2" y1="1.6" x2="22.4" y2="22.4" gradientUnits="userSpaceOnUse">
<stop stop-color="#431E46"/>
<stop offset="1" stop-color="#331238"/>
</linearGradient>
</defs>
</svg>
