<svg width="24" height="24" viewBox="0 0 24 24" fill="none" xmlns="http://www.w3.org/2000/svg">
<path d="M0 5.60002C0 2.4 2.4 0 5.6 1.46866e-05L17.6 0L24 6.4V18.4C24 21.6 21.6 24 18.4 24H5.6C2.4 24 0 21.6 0 18.4V5.60002Z" fill="url(#paint0_linear)"/>
<path d="M17.6 0L24 6.4H20C18.4 6.4 17.6 5.6 17.6 4V0Z" fill="black" fill-opacity="0.1"/>
<path d="M9.49525 19.336L9.60085 18.9472C9.70645 18.5776 9.81205 18.1744 9.90325 17.7856H9.92245C10.0281 18.1696 10.1241 18.5776 10.2345 18.9472L10.3401 19.336H9.49525ZM10.7433 20.8H11.4873L10.3449 17.248H9.50965L8.37205 20.8H9.09205L9.34165 19.888H10.4937L10.7433 20.8Z" fill="#A36AFF"/>
<path d="M12.678 20.8H13.5228L14.6124 17.248H13.8924L13.4316 18.976C13.3212 19.3696 13.2396 19.7248 13.1292 20.1232H13.1052C12.99 19.7248 12.918 19.3696 12.8076 18.976L12.3372 17.248H11.5932L12.678 20.8Z" fill="#A36AFF"/>
<path d="M15.2612 20.8H15.9716V17.248H15.2612V20.8Z" fill="#A36AFF"/>
<path d="M15.1077 9.09139C15.7641 9.47037 15.7641 10.4178 15.1077 10.7968L10.6769 13.3549C10.0205 13.7339 9.2 13.2602 9.2 12.5022L9.2 7.38599C9.2 6.62803 10.0205 6.15431 10.6769 6.53328L15.1077 9.09139Z" fill="#A36AFF"/>
<defs>
<linearGradient id="paint0_linear" x1="1.2" y1="1.6" x2="22.4" y2="22.4" gradientUnits="userSpaceOnUse">
<stop stop-color="#FBFBFB"/>
<stop offset="1" stop-color="#F1F1F1"/>
</linearGradient>
</defs>
</svg>
