<svg width="24" height="24" viewBox="0 0 24 24" fill="none" xmlns="http://www.w3.org/2000/svg">
<path d="M0 5.60001C0 2.4 2.4 0 5.6 1.46866e-05L17.6 0L24 6.4V18.4C24 21.6 21.6 24 18.4 24H5.6C2.4 24 0 21.6 0 18.4V5.60001Z" fill="url(#paint0_linear)"/>
<path d="M17.6 0L24 6.4H20C18.4 6.4 17.6 5.6 17.6 4V0Z" fill="black" fill-opacity="0.1"/>
<path d="M7.016 20.8672C7.7792 20.8672 8.1152 20.32 8.1152 19.6528V17.248H7.4048V19.5952C7.4048 20.0848 7.2416 20.2528 6.9296 20.2528C6.728 20.2528 6.5408 20.1424 6.4016 19.8832L5.912 20.2432C6.152 20.656 6.4976 20.8672 7.016 20.8672Z" fill="#F58F56"/>
<path d="M9.87853 19.336L9.98413 18.9472C10.0897 18.5776 10.1953 18.1744 10.2865 17.7856H10.3057C10.4113 18.1696 10.5073 18.5776 10.6177 18.9472L10.7233 19.336H9.87853ZM11.1265 20.8H11.8705L10.7281 17.248H9.89293L8.75533 20.8H9.47533L9.72493 19.888H10.8769L11.1265 20.8Z" fill="#F58F56"/>
<path d="M13.0613 20.8H13.9061L14.9957 17.248H14.2757L13.8149 18.976C13.7045 19.3696 13.6229 19.7248 13.5125 20.1232H13.4885C13.3733 19.7248 13.3013 19.3696 13.1909 18.976L12.7205 17.248H11.9765L13.0613 20.8Z" fill="#F58F56"/>
<path d="M16.2226 19.336L16.3282 18.9472C16.4338 18.5776 16.5394 18.1744 16.6306 17.7856H16.6498C16.7554 18.1696 16.8514 18.5776 16.9618 18.9472L17.0674 19.336H16.2226ZM17.4706 20.8H18.2146L17.0722 17.248H16.237L15.0994 20.8H15.8194L16.069 19.888H17.221L17.4706 20.8Z" fill="#F58F56"/>
<path d="M7.79791 8.96357V9.79893C8.30399 9.79893 8.47637 9.9934 8.47637 10.4464V10.9459C8.47637 12.0243 9.09957 12.1812 9.99239 12.1812V11.4873C9.46863 11.4873 9.36255 11.284 9.36255 10.8531V10.1989C9.36255 9.8586 9.2167 9.55583 8.57802 9.42766V9.33705C9.2167 9.20887 9.36255 8.90611 9.36255 8.56578V7.91163C9.36255 7.47849 9.46863 7.27738 9.99239 7.27738V6.58346C9.09957 6.58346 8.47637 6.74036 8.47637 7.82103V8.31826C8.47637 8.77351 8.30399 8.96357 7.79791 8.96357Z" fill="#F58F56"/>
<path d="M11.9358 11.2H12.8595V7.80556H11.9358V11.2ZM11.8938 6.89064C11.8938 7.15141 12.1214 7.36136 12.3998 7.36136C12.6761 7.36136 12.9037 7.15141 12.9037 6.89064C12.9037 6.63208 12.6761 6.41992 12.3998 6.41992C12.1214 6.41992 11.8938 6.63208 11.8938 6.89064Z" fill="#F58F56"/>
<path d="M17 9.80114V8.96578C16.4939 8.96578 16.3216 8.7713 16.3216 8.31826V7.81882C16.3216 6.74036 15.6984 6.58346 14.8055 6.58346V7.27738C15.3293 7.27738 15.4354 7.4807 15.4354 7.91163V8.56578C15.4354 8.90611 15.5812 9.20887 16.2199 9.33705V9.42766C15.5812 9.55583 15.4354 9.8586 15.4354 10.1989V10.8531C15.4354 11.2862 15.3293 11.4873 14.8055 11.4873V12.1812C15.6984 12.1812 16.3216 12.0243 16.3216 10.9437V10.4464C16.3216 9.99119 16.4939 9.80114 17 9.80114Z" fill="#F58F56"/>
<defs>
<linearGradient id="paint0_linear" x1="1.2" y1="1.6" x2="22.4" y2="22.4" gradientUnits="userSpaceOnUse">
<stop stop-color="#FBFBFB"/>
<stop offset="1" stop-color="#F1F1F1"/>
</linearGradient>
</defs>
</svg>
