<svg width="24" height="24" viewBox="0 0 24 24" fill="none" xmlns="http://www.w3.org/2000/svg">
<path d="M0 5.60002C0 2.4 2.4 0 5.6 1.46866e-05L17.6 0L24 6.4V18.4C24 21.6 21.6 24 18.4 24H5.6C2.4 24 0 21.6 0 18.4V5.60002Z" fill="url(#paint0_linear)"/>
<path d="M17.6 0L24 6.4H20C18.4 6.4 17.6 5.6 17.6 4V0Z" fill="black" fill-opacity="0.1"/>
<path d="M8.68444 20.8673C9.44764 20.8673 9.78364 20.3201 9.78364 19.6529V17.2481H9.07324V19.5953C9.07324 20.0849 8.91004 20.2529 8.59804 20.2529C8.39644 20.2529 8.20924 20.1425 8.07004 19.8833L7.58044 20.2433C7.82044 20.6561 8.16604 20.8673 8.68444 20.8673Z" fill="#A36AFF"/>
<path d="M10.8798 20.8001H11.5902V19.5377H12.0654C12.8286 19.5377 13.4382 19.1729 13.4382 18.3617C13.4382 17.5217 12.8334 17.2481 12.0462 17.2481H10.8798V20.8001ZM11.5902 18.9761V17.8097H11.9934C12.483 17.8097 12.7422 17.9489 12.7422 18.3617C12.7422 18.7697 12.507 18.9761 12.0174 18.9761H11.5902Z" fill="#A36AFF"/>
<path d="M15.8477 20.8673C16.3421 20.8673 16.7597 20.6753 16.9997 20.4401V18.8369H15.7373V19.4177H16.3661V20.1185C16.2653 20.2049 16.0925 20.2529 15.9197 20.2529C15.2237 20.2529 14.8685 19.7873 14.8685 19.0145C14.8685 18.2513 15.2813 17.7905 15.8717 17.7905C16.1933 17.7905 16.3949 17.9201 16.5677 18.0881L16.9469 17.6369C16.7165 17.4017 16.3613 17.1809 15.8477 17.1809C14.9021 17.1809 14.1437 17.8673 14.1437 19.0385C14.1437 20.2241 14.8781 20.8673 15.8477 20.8673Z" fill="#A36AFF"/>
<path fill-rule="evenodd" clip-rule="evenodd" d="M11.4783 9.14788C11.4783 9.7722 10.9721 10.2783 10.3478 10.2783C9.7235 10.2783 9.21739 9.7722 9.21739 9.14788C9.21739 8.52355 9.7235 8.01744 10.3478 8.01744C10.9721 8.01744 11.4783 8.52355 11.4783 9.14788ZM10.9565 9.14788C10.9565 9.48405 10.684 9.75657 10.3478 9.75657C10.0117 9.75657 9.73913 9.48405 9.73913 9.14788C9.73913 8.8117 10.0117 8.53918 10.3478 8.53918C10.684 8.53918 10.9565 8.8117 10.9565 9.14788Z" fill="#A36AFF"/>
<path fill-rule="evenodd" clip-rule="evenodd" d="M15.3913 13.4087C15.7275 13.4087 16 13.1362 16 12.8V7.40874C16 7.07257 15.7275 6.80005 15.3913 6.80005H8.6087C8.27252 6.80005 8 7.07257 8 7.40874V12.8C8 13.1362 8.27252 13.4087 8.6087 13.4087H15.3913ZM8.6087 7.32179C8.56067 7.32179 8.52174 7.36072 8.52174 7.40874V12.8C8.52174 12.8481 8.56067 12.887 8.6087 12.887H9.7141L12.6955 9.74867C12.9313 9.50051 13.3252 9.49546 13.5672 9.73749L15.4783 11.6485V7.40874C15.4783 7.36072 15.4393 7.32179 15.3913 7.32179H8.6087ZM15.4783 12.8V12.3864L13.1983 10.1064C13.1637 10.0718 13.1075 10.0726 13.0738 10.108L10.4337 12.887H15.3913C15.4393 12.887 15.4783 12.8481 15.4783 12.8Z" fill="#A36AFF"/>
<defs>
<linearGradient id="paint0_linear" x1="1.2" y1="1.6" x2="22.4" y2="22.4" gradientUnits="userSpaceOnUse">
<stop stop-color="#FBFBFB"/>
<stop offset="1" stop-color="#F1F1F1"/>
</linearGradient>
</defs>
</svg>
