<svg width="24" height="24" viewBox="0 0 24 24" fill="none" xmlns="http://www.w3.org/2000/svg">
<path d="M0 5.60002C0 2.4 2.4 0 5.6 1.46866e-05L17.6 0L24 6.4V18.4C24 21.6 21.6 24 18.4 24H5.6C2.4 24 0 21.6 0 18.4V5.60002Z" fill="url(#paint0_linear)"/>
<path d="M17.6 0L24 6.4H20C18.4 6.4 17.6 5.6 17.6 4V0Z" fill="black" fill-opacity="0.1"/>
<path d="M6.31352 20.8H6.95192V19.3168C6.95192 18.9808 6.89432 18.4864 6.86072 18.1504H6.87992L7.16312 18.9856L7.71512 20.4784H8.12312L8.67032 18.9856L8.95832 18.1504H8.97752C8.94392 18.4864 8.89112 18.9808 8.89112 19.3168V20.8H9.53912V17.248H8.75192L8.16152 18.9088C8.08472 19.1296 8.02232 19.3648 7.94552 19.5952H7.92152C7.84952 19.3648 7.78232 19.1296 7.70552 18.9088L7.10072 17.248H6.31352V20.8Z" fill="#2484F3"/>
<path d="M11.3176 19.336L11.4232 18.9472C11.5288 18.5776 11.6344 18.1744 11.7256 17.7856H11.7448C11.8504 18.1696 11.9464 18.5776 12.0568 18.9472L12.1624 19.336H11.3176ZM12.5656 20.8H13.3096L12.1672 17.248H11.332L10.1944 20.8H10.9144L11.164 19.888H12.316L12.5656 20.8Z" fill="#2484F3"/>
<path d="M13.9654 20.8H14.6758V17.248H13.9654V20.8Z" fill="#2484F3"/>
<path d="M15.7898 20.8H17.9402V20.2048H16.5002V17.248H15.7898V20.8Z" fill="#2484F3"/>
<path d="M10.9136 11.0018C11.6498 11.0018 11.973 10.499 12.1023 10.2476H12.1561C12.2279 10.7109 12.7235 11.0484 13.3771 11.0484C14.4616 11.052 15.2589 10.1471 15.2589 8.58849C15.2625 6.38352 13.6141 4.73877 11.2009 4.73877C8.82352 4.73877 7.13927 6.48767 7.14645 8.89733C7.14645 11.4506 8.65114 13.0559 11.1614 13.0559C11.8365 13.0559 12.447 12.9661 12.9857 12.8153V12.0037C12.3895 12.1653 11.8832 12.2156 11.1614 12.2227C9.08568 12.2407 7.99396 10.9084 7.99396 8.89733C8.00114 7.03711 9.25087 5.5791 11.2009 5.57192C13.1006 5.57192 14.415 6.77855 14.4078 8.61363C14.4042 9.6012 14.0235 10.2656 13.4453 10.2656C13.1473 10.2656 12.9964 10.086 12.9857 9.71612V6.87551H12.1023V7.48242H12.052C11.9263 7.22385 11.6103 6.79291 10.9172 6.78932C9.95474 6.79291 9.197 7.55783 9.197 8.89015C9.197 10.2225 9.93319 11.0018 10.9136 11.0018ZM10.1487 8.88656C10.1451 8.16474 10.497 7.62606 11.1326 7.62606C11.7862 7.62606 12.1166 8.12523 12.1202 8.88656C12.1166 9.65866 11.779 10.1686 11.1326 10.1686C10.5006 10.1686 10.1451 9.61916 10.1487 8.88656Z" fill="#2484F3"/>
<defs>
<linearGradient id="paint0_linear" x1="1.2" y1="1.6" x2="22.4" y2="22.4" gradientUnits="userSpaceOnUse">
<stop stop-color="#FBFBFB"/>
<stop offset="1" stop-color="#F1F1F1"/>
</linearGradient>
</defs>
</svg>
