<svg width="24" height="24" viewBox="0 0 24 24" fill="none" xmlns="http://www.w3.org/2000/svg">
<path d="M0 5.60002C0 2.4 2.4 0 5.6 1.46866e-05L17.6 0L24 6.4V18.4C24 21.6 21.6 24 18.4 24H5.6C2.4 24 0 21.6 0 18.4V5.60002Z" fill="url(#paint0_linear)"/>
<path d="M17.6 0L24 6.4H20C18.4 6.4 17.6 5.6 17.6 4V0Z" fill="black" fill-opacity="0.1"/>
<path d="M5.63071 20.8001H6.26911V19.3169C6.26911 18.9809 6.21151 18.4865 6.17791 18.1505H6.19711L6.48031 18.9857L7.03231 20.4785H7.44031L7.98751 18.9857L8.27551 18.1505H8.29471C8.26111 18.4865 8.20831 18.9809 8.20831 19.3169V20.8001H8.85631V17.2481H8.06911L7.47871 18.9089C7.40191 19.1297 7.33951 19.3649 7.26271 19.5953H7.23871C7.16671 19.3649 7.09951 19.1297 7.02271 18.9089L6.41791 17.2481H5.63071V20.8001Z" fill="#2484F3"/>
<path d="M9.96758 20.8001H10.678V19.5377H11.1532C11.9164 19.5377 12.526 19.1729 12.526 18.3617C12.526 17.5217 11.9212 17.2481 11.134 17.2481H9.96758V20.8001ZM10.678 18.9761V17.8097H11.0812C11.5708 17.8097 11.83 17.9489 11.83 18.3617C11.83 18.7697 11.5948 18.9761 11.1052 18.9761H10.678Z" fill="#2484F3"/>
<path d="M13.4091 20.8001H15.6411V20.2049H14.1195V19.2545H15.3675V18.6593H14.1195V17.8385H15.5883V17.2481H13.4091V20.8001Z" fill="#2484F3"/>
<path d="M18.1287 20.8673C18.6231 20.8673 19.0407 20.6753 19.2807 20.4401V18.8369H18.0183V19.4177H18.6471V20.1185C18.5463 20.2049 18.3735 20.2529 18.2007 20.2529C17.5047 20.2529 17.1495 19.7873 17.1495 19.0145C17.1495 18.2513 17.5623 17.7905 18.1527 17.7905C18.4743 17.7905 18.6759 17.9201 18.8487 18.0881L19.2279 17.6369C18.9975 17.4017 18.6423 17.1809 18.1287 17.1809C17.1831 17.1809 16.4247 17.8673 16.4247 19.0385C16.4247 20.2241 17.1591 20.8673 18.1287 20.8673Z" fill="#2484F3"/>
<path d="M15.1077 9.09139C15.7641 9.47037 15.7641 10.4178 15.1077 10.7968L10.6769 13.3549C10.0205 13.7339 9.2 13.2602 9.2 12.5022L9.2 7.38599C9.2 6.62803 10.0205 6.15431 10.6769 6.53328L15.1077 9.09139Z" fill="#2484F3"/>
<defs>
<linearGradient id="paint0_linear" x1="1.2" y1="1.6" x2="22.4" y2="22.4" gradientUnits="userSpaceOnUse">
<stop stop-color="#FBFBFB"/>
<stop offset="1" stop-color="#F1F1F1"/>
</linearGradient>
</defs>
</svg>
