<svg width="24" height="24" viewBox="0 0 24 24" fill="none" xmlns="http://www.w3.org/2000/svg">
<path d="M0 5.60001C0 2.4 2.4 0 5.6 1.46866e-05L17.6 0L24 6.4V18.4C24 21.6 21.6 24 18.4 24H5.6C2.4 24 0 21.6 0 18.4V5.60001Z" fill="url(#paint0_linear)"/>
<path d="M17.6 0L24 6.4H20C18.4 6.4 17.6 5.6 17.6 4V0Z" fill="white" fill-opacity="0.4"/>
<path d="M17.4895 11.414C17.2292 11.4872 16.8473 11.4954 16.4374 11.4388C15.9978 11.378 15.5493 11.2499 15.1086 11.0611C15.8946 10.9521 16.5044 10.9856 17.0259 11.1619C17.1496 11.2036 17.3525 11.3152 17.4895 11.414ZM13.1041 10.7267C13.072 10.735 13.0407 10.7428 13.0093 10.7511C12.7977 10.806 12.5919 10.8595 12.3937 10.9072L12.1263 10.9718C11.5883 11.1016 11.0384 11.2342 10.4953 11.3919C10.7018 10.9173 10.8935 10.4377 11.0813 9.96857C11.2204 9.62142 11.3623 9.26663 11.5091 8.91651C11.5837 9.03379 11.6613 9.15106 11.7423 9.26875C12.1107 9.80379 12.5739 10.2985 13.1041 10.7267ZM11.7358 5.37567C11.7708 5.96118 11.6382 6.52442 11.4437 7.06476C11.2043 6.39655 11.0927 5.65877 11.3921 5.06308C11.4689 4.9104 11.5318 4.82875 11.5725 4.78613C11.6355 4.87901 11.7185 5.08641 11.7358 5.37567ZM8.92774 12.7929C8.79314 13.0223 8.65587 13.2371 8.51504 13.4399C8.17532 13.9278 7.6198 14.4503 7.33436 14.4503C7.30633 14.4503 7.27229 14.4461 7.22268 14.3961C7.19064 14.364 7.18552 14.3411 7.18708 14.31C7.19665 14.1306 7.44604 13.811 7.80734 13.5147C8.13528 13.2458 8.50592 13.007 8.92774 12.7929ZM18.3986 11.4392C18.355 10.8416 17.2995 10.4582 17.2891 10.4546C16.8811 10.3168 16.4379 10.2498 15.9342 10.2498C15.3949 10.2498 14.8136 10.3242 14.067 10.4905C13.4026 10.0415 12.8286 9.47955 12.3999 8.85735C12.2106 8.58251 12.0404 8.3081 11.892 8.04005C12.2542 7.21448 12.5804 6.32678 12.5212 5.33262C12.4734 4.53546 12.0963 4 11.5834 4C11.2317 4 10.9287 4.24833 10.6824 4.73883C10.243 5.61297 10.3585 6.7314 11.0255 8.06592C10.7852 8.60372 10.5621 9.16124 10.346 9.70116C10.0773 10.3723 9.80029 11.0647 9.48816 11.7234C8.61271 12.0536 7.89367 12.454 7.29431 12.9455C6.90164 13.267 6.42843 13.7584 6.40129 14.2714C6.38816 14.5129 6.47493 14.7345 6.65158 14.912C6.83913 15.1005 7.07495 15.1998 7.33414 15.2C8.19023 15.2 9.01406 14.0788 9.17024 13.854C9.48482 13.4021 9.77916 12.898 10.0677 12.3166C10.7943 12.0663 11.5688 11.8795 12.3192 11.6988L12.5879 11.6337C12.7899 11.5847 13 11.5306 13.2153 11.4744C13.4434 11.4157 13.6778 11.3548 13.9161 11.2969C14.6868 11.7641 15.5155 12.0689 16.3238 12.1806C17.0045 12.275 17.6092 12.2203 18.0184 12.0169C18.3868 11.8341 18.4073 11.5521 18.3986 11.4392Z" fill="white" fill-opacity="0.5"/>
<path d="M7.87885 20.8H8.58925V19.5376H9.06445C9.82765 19.5376 10.4372 19.1728 10.4372 18.3616C10.4372 17.5216 9.83245 17.248 9.04525 17.248H7.87885V20.8ZM8.58925 18.976V17.8096H8.99245C9.48205 17.8096 9.74125 17.9488 9.74125 18.3616C9.74125 18.7696 9.50605 18.976 9.01645 18.976H8.58925Z" fill="white"/>
<path d="M11.3204 20.8H12.3332C13.3796 20.8 14.0516 20.2048 14.0516 19.0096C14.0516 17.8096 13.3796 17.248 12.2948 17.248H11.3204V20.8ZM12.0308 20.2288V17.8144H12.2516C12.914 17.8144 13.3268 18.1408 13.3268 19.0096C13.3268 19.8736 12.914 20.2288 12.2516 20.2288H12.0308Z" fill="white"/>
<path d="M14.987 20.8H15.6974V19.36H16.9598V18.7648H15.6974V17.8384H17.1758V17.248H14.987V20.8Z" fill="white"/>
<defs>
<linearGradient id="paint0_linear" x1="1.2" y1="1.6" x2="22.4" y2="22.4" gradientUnits="userSpaceOnUse">
<stop stop-color="#C81616"/>
<stop offset="1" stop-color="#C4131D"/>
</linearGradient>
</defs>
</svg>
