<svg width="24" height="24" viewBox="0 0 24 24" fill="none" xmlns="http://www.w3.org/2000/svg">
<path d="M0 5.60001C0 2.4 2.4 0 5.6 1.46866e-05L17.6 0L24 6.4V18.4C24 21.6 21.6 24 18.4 24H5.6C2.4 24 0 21.6 0 18.4V5.60001Z" fill="url(#paint0_linear)"/>
<path d="M17.6 0L24 6.4H20C18.4 6.4 17.6 5.6 17.6 4V0Z" fill="black" fill-opacity="0.1"/>
<path d="M7.17883 20.8H7.88923V19.5376H8.36443C9.12763 19.5376 9.73723 19.1728 9.73723 18.3616C9.73723 17.5216 9.13243 17.248 8.34523 17.248H7.17883V20.8ZM7.88923 18.976V17.8096H8.29243C8.78203 17.8096 9.04123 17.9488 9.04123 18.3616C9.04123 18.7696 8.80603 18.976 8.31643 18.976H7.88923Z" fill="#32CF92"/>
<path d="M10.6204 20.8H11.3308V19.264H12.6748V20.8H13.3804V17.248H12.6748V18.6448H11.3308V17.248H10.6204V20.8Z" fill="#32CF92"/>
<path d="M14.4932 20.8H15.2036V19.5376H15.6788C16.442 19.5376 17.0516 19.1728 17.0516 18.3616C17.0516 17.5216 16.4468 17.248 15.6596 17.248H14.4932V20.8ZM15.2036 18.976V17.8096H15.6068C16.0964 17.8096 16.3556 17.9488 16.3556 18.3616C16.3556 18.7696 16.1204 18.976 15.6308 18.976H15.2036Z" fill="#32CF92"/>
<path d="M5.82523 9.81113L8.15064 10.8404V10.1791L6.5744 9.54262V9.50947L8.15064 8.87135V8.21002L5.82523 9.24096V9.81113Z" fill="#32CF92"/>
<path d="M9.41119 10.131V10.1841H10.0311V10.131C10.0344 9.8045 10.1504 9.65201 10.414 9.49455C10.7239 9.30892 10.9228 9.06361 10.9228 8.67742C10.9228 8.09897 10.4604 7.75919 9.80401 7.75919C9.20732 7.75919 8.71671 8.07577 8.70345 8.73378H9.3681C9.3797 8.4603 9.58357 8.31444 9.80069 8.31444C10.0278 8.31444 10.2117 8.46693 10.2117 8.69897C10.2117 8.91776 10.0559 9.06361 9.85207 9.19289C9.57196 9.36858 9.4145 9.54759 9.41119 10.131ZM9.34158 10.8487C9.33826 11.0658 9.51727 11.2415 9.73439 11.2415C9.94489 11.2415 10.1272 11.0658 10.1289 10.8487C10.1272 10.6332 9.94489 10.4575 9.73439 10.4575C9.51727 10.4575 9.33826 10.6332 9.34158 10.8487Z" fill="#32CF92"/>
<path d="M12.8468 7.64648H12.2484L11.1545 11.7106H11.7529L12.8468 7.64648Z" fill="#32CF92"/>
<path d="M13.7471 10.131V10.1841H14.367V10.131C14.3703 9.8045 14.4864 9.65201 14.7499 9.49455C15.0598 9.30892 15.2587 9.06361 15.2587 8.67742C15.2587 8.09897 14.7963 7.75919 14.1399 7.75919C13.5433 7.75919 13.0527 8.07577 13.0394 8.73378H13.704C13.7156 8.4603 13.9195 8.31444 14.1366 8.31444C14.3637 8.31444 14.5477 8.46693 14.5477 8.69897C14.5477 8.91776 14.3919 9.06361 14.188 9.19289C13.9079 9.36858 13.7504 9.54759 13.7471 10.131ZM13.6775 10.8487C13.6742 11.0658 13.8532 11.2415 14.0703 11.2415C14.2808 11.2415 14.4632 11.0658 14.4648 10.8487C14.4632 10.6332 14.2808 10.4575 14.0703 10.4575C13.8532 10.4575 13.6742 10.6332 13.6775 10.8487Z" fill="#32CF92"/>
<path d="M18.1772 9.81113V9.24096L15.8518 8.21002V8.87135L17.4313 9.51113V9.54096L15.8518 10.1791V10.8404L18.1772 9.81113Z" fill="#32CF92"/>
<defs>
<linearGradient id="paint0_linear" x1="1.2" y1="1.6" x2="22.4" y2="22.4" gradientUnits="userSpaceOnUse">
<stop stop-color="#FBFBFB"/>
<stop offset="1" stop-color="#F1F1F1"/>
</linearGradient>
</defs>
</svg>
