<svg width="24" height="24" viewBox="0 0 24 24" fill="none" xmlns="http://www.w3.org/2000/svg">
<path d="M0 5.60001C0 2.4 2.4 0 5.6 1.46866e-05L17.6 0L24 6.4V18.4C24 21.6 21.6 24 18.4 24H5.6C2.4 24 0 21.6 0 18.4V5.60001Z" fill="url(#paint0_linear)"/>
<path d="M17.6 0L24 6.4H20C18.4 6.4 17.6 5.6 17.6 4V0Z" fill="black" fill-opacity="0.1"/>
<path d="M12.1429 11.9286C12.1429 11.5735 12.4307 11.2857 12.7857 11.2857H13.6429C13.9979 11.2857 14.2857 11.5735 14.2857 11.9286C14.2857 12.2836 13.9979 12.5714 13.6429 12.5714H12.7857C12.4307 12.5714 12.1429 12.2836 12.1429 11.9286Z" fill="#414141"/>
<path d="M12.7857 8.71429C12.4307 8.71429 12.1429 9.0021 12.1429 9.35714C12.1429 9.71218 12.4307 10 12.7857 10H13.6429C13.9979 10 14.2857 9.71218 14.2857 9.35714C14.2857 9.0021 13.9979 8.71429 13.6429 8.71429H12.7857Z" fill="#414141"/>
<path d="M12.1429 6.78571C12.1429 6.43068 12.4307 6.14286 12.7857 6.14286H13.6429C13.9979 6.14286 14.2857 6.43068 14.2857 6.78571C14.2857 7.14075 13.9979 7.42857 13.6429 7.42857H12.7857C12.4307 7.42857 12.1429 7.14075 12.1429 6.78571Z" fill="#414141"/>
<path d="M12.7857 3.57143C12.4307 3.57143 12.1429 3.85925 12.1429 4.21429C12.1429 4.56933 12.4307 4.85714 12.7857 4.85714H13.6429C13.9979 4.85714 14.2857 4.56933 14.2857 4.21429C14.2857 3.85925 13.9979 3.57143 13.6429 3.57143H12.7857Z" fill="#414141"/>
<path d="M10.6429 10C10.2878 10 10 10.2878 10 10.6429C10 10.9979 10.2878 11.2857 10.6429 11.2857H11.5C11.855 11.2857 12.1429 10.9979 12.1429 10.6429C12.1429 10.2878 11.855 10 11.5 10H10.6429Z" fill="#414141"/>
<path d="M10 8.07143C10 7.71639 10.2878 7.42857 10.6429 7.42857H11.5C11.855 7.42857 12.1429 7.71639 12.1429 8.07143C12.1429 8.42647 11.855 8.71429 11.5 8.71429H10.6429C10.2878 8.71429 10 8.42647 10 8.07143Z" fill="#414141"/>
<path d="M10.6429 4.85714C10.2878 4.85714 10 5.14496 10 5.5C10 5.85504 10.2878 6.14286 10.6429 6.14286H11.5C11.855 6.14286 12.1429 5.85504 12.1429 5.5C12.1429 5.14496 11.855 4.85714 11.5 4.85714H10.6429Z" fill="#414141"/>
<path fill-rule="evenodd" clip-rule="evenodd" d="M11.7143 13C10.7675 13 10 13.7675 10 14.7143V18.3571C10 18.7122 10.2878 19 10.6429 19H13.6429C13.9979 19 14.2857 18.7122 14.2857 18.3571V14.7143C14.2857 13.7675 13.5182 13 12.5714 13H11.7143ZM11.2857 14.7143C11.2857 14.4776 11.4776 14.2857 11.7143 14.2857H12.5714C12.8081 14.2857 13 14.4776 13 14.7143V17.7143H11.2857V14.7143Z" fill="#414141"/>
<path d="M12.7857 1C12.4307 1 12.1429 1.28782 12.1429 1.64286C12.1429 1.9979 12.4307 2.28571 12.7857 2.28571H13.6429C13.9979 2.28571 14.2857 1.9979 14.2857 1.64286C14.2857 1.28782 13.9979 1 13.6429 1H12.7857Z" fill="#414141"/>
<path d="M10.6429 2.28571C10.2878 2.28571 10 2.57353 10 2.92857C10 3.28361 10.2878 3.57143 10.6429 3.57143H11.5C11.855 3.57143 12.1429 3.28361 12.1429 2.92857C12.1429 2.57353 11.855 2.28571 11.5 2.28571H10.6429Z" fill="#414141"/>
<defs>
<linearGradient id="paint0_linear" x1="1.2" y1="1.6" x2="22.4" y2="22.4" gradientUnits="userSpaceOnUse">
<stop stop-color="#FBFBFB"/>
<stop offset="1" stop-color="#F1F1F1"/>
</linearGradient>
</defs>
</svg>
