<svg width="24" height="24" viewBox="0 0 24 24" fill="none" xmlns="http://www.w3.org/2000/svg">
<path d="M0 5.60001C0 2.4 2.4 0 5.6 1.46866e-05L17.6 0L24 6.4V18.4C24 21.6 21.6 24 18.4 24H5.6C2.4 24 0 21.6 0 18.4V5.60001Z" fill="url(#paint0_linear)"/>
<path d="M17.6 0L24 6.4H20C18.4 6.4 17.6 5.6 17.6 4V0Z" fill="black" fill-opacity="0.1"/>
<path d="M5.3268 20.8H6.0372V19.264H7.3812V20.8H8.0868V17.248H7.3812V18.6448H6.0372V17.248H5.3268V20.8Z" fill="#007EF2"/>
<path d="M9.90521 20.8H10.6156V17.8384H11.6236V17.248H8.90681V17.8384H9.90521V20.8Z" fill="#007EF2"/>
<path d="M12.4396 20.8H13.078V19.3168C13.078 18.9808 13.0204 18.4864 12.9868 18.1504H13.006L13.2892 18.9856L13.8412 20.4784H14.2492L14.7964 18.9856L15.0844 18.1504H15.1036C15.07 18.4864 15.0172 18.9808 15.0172 19.3168V20.8H15.6652V17.248H14.878L14.2876 18.9088C14.2108 19.1296 14.1484 19.3648 14.0716 19.5952H14.0476C13.9756 19.3648 13.9084 19.1296 13.8316 18.9088L13.2268 17.248H12.4396V20.8Z" fill="#007EF2"/>
<path d="M16.7765 20.8H18.9269V20.2048H17.4869V17.248H16.7765V20.8Z" fill="#007EF2"/>
<path d="M6.87197 9.77241L9.97252 11.1448V10.263L7.87087 9.4144V9.3702L9.97252 8.51937V7.6376L6.87197 9.01219V9.77241Z" fill="#007EF2"/>
<path d="M13.1291 6.46191H12.3313L10.8727 11.8807H11.6705L13.1291 6.46191Z" fill="#007EF2"/>
<path d="M17.1313 9.77241V9.01219L14.0307 7.6376V8.51937L16.1368 9.37241V9.41219L14.0307 10.263V11.1448L17.1313 9.77241Z" fill="#007EF2"/>
<defs>
<linearGradient id="paint0_linear" x1="1.2" y1="1.6" x2="22.4" y2="22.4" gradientUnits="userSpaceOnUse">
<stop stop-color="#FBFBFB"/>
<stop offset="1" stop-color="#F1F1F1"/>
</linearGradient>
</defs>
</svg>
