<svg width="24" height="24" viewBox="0 0 24 24" fill="none" xmlns="http://www.w3.org/2000/svg">
<path d="M0 5.60002C0 2.4 2.4 0 5.6 1.46866e-05L17.6 0L24 6.4V18.4C24 21.6 21.6 24 18.4 24H5.6C2.4 24 0 21.6 0 18.4V5.60002Z" fill="url(#paint0_linear)"/>
<path d="M17.6 0L24 6.4H20C18.4 6.4 17.6 5.6 17.6 4V0Z" fill="black" fill-opacity="0.1"/>
<path fill-rule="evenodd" clip-rule="evenodd" d="M15.4409 5.28062C15.5411 5.3562 15.6 5.47444 15.6 5.59995V12H14.8V6.13025L10 7.50168V13.6H9.2V7.19995C9.2 7.02136 9.31839 6.86441 9.49011 6.81534L15.0901 5.21535C15.2108 5.18086 15.3407 5.20503 15.4409 5.28062Z" fill="#F58F56"/>
<ellipse cx="8.8" cy="13.5999" rx="1.2" ry="1.2" fill="#F58F56"/>
<ellipse cx="14.4" cy="12" rx="1.2" ry="1.2" fill="#F58F56"/>
<path d="M6.75077 20.8H7.61957L8.00837 19.0432C8.06597 18.7648 8.11397 18.4912 8.16197 18.2224H8.18117C8.22437 18.4912 8.27717 18.7648 8.33477 19.0432L8.73317 20.8H9.61637L10.274 17.248H9.59717L9.31877 18.9808C9.26597 19.3504 9.21317 19.7296 9.16037 20.1136H9.13637C9.05957 19.7296 8.98757 19.3456 8.91077 18.9808L8.49797 17.248H7.89317L7.48037 18.9808C7.40357 19.3504 7.32677 19.7344 7.25477 20.1136H7.23557C7.18277 19.7344 7.12517 19.3552 7.07237 18.9808L6.78917 17.248H6.06437L6.75077 20.8Z" fill="#F58F56"/>
<path d="M11.047 20.8H11.6854V19.3168C11.6854 18.9808 11.6278 18.4864 11.5942 18.1504H11.6134L11.8966 18.9856L12.4486 20.4784H12.8566L13.4038 18.9856L13.6918 18.1504H13.711C13.6774 18.4864 13.6246 18.9808 13.6246 19.3168V20.8H14.2726V17.248H13.4854L12.895 18.9088C12.8182 19.1296 12.7558 19.3648 12.679 19.5952H12.655C12.583 19.3648 12.5158 19.1296 12.439 18.9088L11.8342 17.248H11.047V20.8Z" fill="#F58F56"/>
<path d="M16.051 19.336L16.1566 18.9472C16.2622 18.5776 16.3678 18.1744 16.459 17.7856H16.4782C16.5838 18.1696 16.6798 18.5776 16.7902 18.9472L16.8958 19.336H16.051ZM17.299 20.8H18.043L16.9006 17.248H16.0654L14.9278 20.8H15.6478L15.8974 19.888H17.0494L17.299 20.8Z" fill="#F58F56"/>
<defs>
<linearGradient id="paint0_linear" x1="1.2" y1="1.6" x2="22.4" y2="22.4" gradientUnits="userSpaceOnUse">
<stop stop-color="#FBFBFB"/>
<stop offset="1" stop-color="#F1F1F1"/>
</linearGradient>
</defs>
</svg>
