<svg width="24" height="24" viewBox="0 0 24 24" fill="none" xmlns="http://www.w3.org/2000/svg">
<path d="M0 5.60002C0 2.4 2.4 0 5.6 1.46866e-05L17.6 0L24 6.4V18.4C24 21.6 21.6 24 18.4 24H5.6C2.4 24 0 21.6 0 18.4V5.60002Z" fill="url(#paint0_linear)"/>
<path d="M17.6 0L24 6.4H20C18.4 6.4 17.6 5.6 17.6 4V0Z" fill="black" fill-opacity="0.1"/>
<rect x="11.6" y="6.3999" width="0.800001" height="8" fill="#C81717"/>
<rect x="16" y="10" width="0.799999" height="8" transform="rotate(90 16 10)" fill="#C81717"/>
<path d="M10.4 8.80005H13.6V12H10.4V8.80005Z" fill="#F6F6F6"/>
<path fill-rule="evenodd" clip-rule="evenodd" d="M12.8 9.60005H11.2V11.2H12.8V9.60005ZM10.4 8.80005V12H13.6V8.80005H10.4Z" fill="#C81717"/>
<path d="M6.98117 20.8001H7.99397C9.04037 20.8001 9.71237 20.2049 9.71237 19.0097C9.71237 17.8097 9.04037 17.2481 7.95557 17.2481H6.98117V20.8001ZM7.69157 20.2289V17.8145H7.91237C8.57477 17.8145 8.98757 18.1409 8.98757 19.0097C8.98757 19.8737 8.57477 20.2289 7.91237 20.2289H7.69157Z" fill="#C81717"/>
<path d="M10.9697 20.8001H11.8385L12.2273 19.0433C12.2849 18.7649 12.3329 18.4913 12.3809 18.2225H12.4001C12.4433 18.4913 12.4961 18.7649 12.5537 19.0433L12.9521 20.8001H13.8353L14.4929 17.2481H13.8161L13.5377 18.9809C13.4849 19.3505 13.4321 19.7297 13.3793 20.1137H13.3553C13.2785 19.7297 13.2065 19.3457 13.1297 18.9809L12.7169 17.2481H12.1121L11.6993 18.9809C11.6225 19.3505 11.5457 19.7345 11.4737 20.1137H11.4545C11.4017 19.7345 11.3441 19.3553 11.2913 18.9809L11.0081 17.2481H10.2833L10.9697 20.8001Z" fill="#C81717"/>
<path d="M16.7782 20.8673C17.2726 20.8673 17.6902 20.6753 17.9302 20.4401V18.8369H16.6678V19.4177H17.2966V20.1185C17.1958 20.2049 17.023 20.2529 16.8502 20.2529C16.1542 20.2529 15.799 19.7873 15.799 19.0145C15.799 18.2513 16.2118 17.7905 16.8022 17.7905C17.1238 17.7905 17.3254 17.9201 17.4982 18.0881L17.8774 17.6369C17.647 17.4017 17.2918 17.1809 16.7782 17.1809C15.8326 17.1809 15.0742 17.8673 15.0742 19.0385C15.0742 20.2241 15.8086 20.8673 16.7782 20.8673Z" fill="#C81717"/>
<defs>
<linearGradient id="paint0_linear" x1="1.2" y1="1.6" x2="22.4" y2="22.4" gradientUnits="userSpaceOnUse">
<stop stop-color="#FBFBFB"/>
<stop offset="1" stop-color="#F1F1F1"/>
</linearGradient>
</defs>
</svg>
