<svg width="24" height="24" viewBox="0 0 24 24" fill="none" xmlns="http://www.w3.org/2000/svg">
<path d="M0 5.60001C0 2.4 2.4 0 5.6 1.46866e-05L17.6 0L24 6.4V18.4C24 21.6 21.6 24 18.4 24H5.6C2.4 24 0 21.6 0 18.4V5.60001Z" fill="url(#paint0_linear)"/>
<path d="M17.6 0L24 6.4H20C18.4 6.4 17.6 5.6 17.6 4V0Z" fill="black" fill-opacity="0.1"/>
<path d="M9.19327 20.8673C9.65407 20.8673 10.0333 20.6849 10.3261 20.3441L9.95167 19.9025C9.75967 20.1089 9.51967 20.2529 9.21727 20.2529C8.65567 20.2529 8.29087 19.7873 8.29087 19.0145C8.29087 18.2513 8.69407 17.7905 9.23167 17.7905C9.50047 17.7905 9.70687 17.9153 9.88447 18.0881L10.2589 17.6369C10.0285 17.3969 9.66847 17.1809 9.21727 17.1809C8.31967 17.1809 7.56607 17.8673 7.56607 19.0385C7.56607 20.2241 8.29567 20.8673 9.19327 20.8673Z" fill="#32CF92"/>
<path d="M12.0492 20.8673C12.87 20.8673 13.3548 20.3729 13.3548 19.7921C13.3548 19.2785 13.0716 19.0049 12.6396 18.8273L12.174 18.6305C11.8716 18.5105 11.6172 18.4193 11.6172 18.1649C11.6172 17.9297 11.8188 17.7905 12.1308 17.7905C12.4236 17.7905 12.6588 17.8961 12.8844 18.0833L13.2444 17.6369C12.9564 17.3441 12.5436 17.1809 12.1308 17.1809C11.4108 17.1809 10.902 17.6273 10.902 18.2081C10.902 18.7265 11.262 19.0145 11.622 19.1633L12.0972 19.3649C12.414 19.4993 12.63 19.5809 12.63 19.8449C12.63 20.0945 12.4332 20.2529 12.0636 20.2529C11.7516 20.2529 11.4156 20.0945 11.1612 19.8593L10.7532 20.3489C11.0988 20.6801 11.574 20.8673 12.0492 20.8673Z" fill="#32CF92"/>
<path d="M15.1954 20.8673C16.0162 20.8673 16.501 20.3729 16.501 19.7921C16.501 19.2785 16.2178 19.0049 15.7858 18.8273L15.3202 18.6305C15.0178 18.5105 14.7634 18.4193 14.7634 18.1649C14.7634 17.9297 14.965 17.7905 15.277 17.7905C15.5698 17.7905 15.805 17.8961 16.0306 18.0833L16.3906 17.6369C16.1026 17.3441 15.6898 17.1809 15.277 17.1809C14.557 17.1809 14.0482 17.6273 14.0482 18.2081C14.0482 18.7265 14.4082 19.0145 14.7682 19.1633L15.2434 19.3649C15.5602 19.4993 15.7762 19.5809 15.7762 19.8449C15.7762 20.0945 15.5794 20.2529 15.2098 20.2529C14.8978 20.2529 14.5618 20.0945 14.3074 19.8593L13.8994 20.3489C14.245 20.6801 14.7202 20.8673 15.1954 20.8673Z" fill="#32CF92"/>
<path d="M7.26329 8.96361V9.79897C7.76937 9.79897 7.94174 9.99344 7.94174 10.4465V10.9459C7.94174 12.0244 8.56495 12.1813 9.45777 12.1813V11.4874C8.93401 11.4874 8.82793 11.284 8.82793 10.8531V10.199C8.82793 9.85863 8.68208 9.55587 8.0434 9.4277V9.33709C8.68208 9.20891 8.82793 8.90615 8.82793 8.56582V7.91167C8.82793 7.47852 8.93401 7.27742 9.45777 7.27742V6.5835C8.56495 6.5835 7.94174 6.7404 7.94174 7.82106V8.3183C7.94174 8.77355 7.76937 8.96361 7.26329 8.96361Z" fill="#32CF92"/>
<path d="M10.3396 11.2553C10.6202 11.2553 10.8633 11.0211 10.8655 10.7316C10.8633 10.4443 10.6202 10.21 10.3396 10.21C10.0501 10.21 9.8114 10.4443 9.81582 10.7316C9.8114 11.0211 10.0501 11.2553 10.3396 11.2553Z" fill="#32CF92"/>
<path d="M11.9991 11.2553C12.2797 11.2553 12.5228 11.0211 12.525 10.7316C12.5228 10.4443 12.2797 10.21 11.9991 10.21C11.7096 10.21 11.4709 10.4443 11.4753 10.7316C11.4709 11.0211 11.7096 11.2553 11.9991 11.2553Z" fill="#32CF92"/>
<path d="M13.6586 11.2553C13.9392 11.2553 14.1823 11.0211 14.1845 10.7316C14.1823 10.4443 13.9392 10.21 13.6586 10.21C13.3691 10.21 13.1304 10.4443 13.1348 10.7316C13.1304 11.0211 13.3691 11.2553 13.6586 11.2553Z" fill="#32CF92"/>
<path d="M16.7346 9.80118V8.96582C16.2286 8.96582 16.0562 8.77134 16.0562 8.3183V7.81886C16.0562 6.7404 15.433 6.5835 14.5402 6.5835V7.27742C15.0639 7.27742 15.17 7.48073 15.17 7.91167V8.56582C15.17 8.90615 15.3159 9.20891 15.9545 9.33709V9.4277C15.3159 9.55587 15.17 9.85863 15.17 10.199V10.8531C15.17 11.2863 15.0639 11.4874 14.5402 11.4874V12.1813C15.433 12.1813 16.0562 12.0244 16.0562 10.9437V10.4465C16.0562 9.99123 16.2286 9.80118 16.7346 9.80118Z" fill="#32CF92"/>
<defs>
<linearGradient id="paint0_linear" x1="1.2" y1="1.6" x2="22.4" y2="22.4" gradientUnits="userSpaceOnUse">
<stop stop-color="#FBFBFB"/>
<stop offset="1" stop-color="#F1F1F1"/>
</linearGradient>
</defs>
</svg>
