<svg width="24" height="24" viewBox="0 0 24 24" fill="none" xmlns="http://www.w3.org/2000/svg">
<path d="M0 5.60002C0 2.4 2.4 0 5.6 1.46866e-05L17.6 0L24 6.4V18.4C24 21.6 21.6 24 18.4 24H5.6C2.4 24 0 21.6 0 18.4V5.60002Z" fill="url(#paint0_linear)"/>
<path d="M17.6 0L24 6.4H20C18.4 6.4 17.6 5.6 17.6 4V0Z" fill="black" fill-opacity="0.1"/>
<path d="M9.6 7.2001L9.46264 6.71934C9.24799 6.78066 9.1 6.97686 9.1 7.2001H9.6ZM15.2 5.6001H15.7C15.7 5.4432 15.6264 5.29541 15.5011 5.20092C15.3758 5.10644 15.2135 5.07623 15.0626 5.11934L15.2 5.6001ZM10.1 13.6001V7.2001H9.1V13.6001H10.1ZM9.73736 7.68086L15.3374 6.08086L15.0626 5.11934L9.46264 6.71934L9.73736 7.68086ZM14.7 5.6001V12.0001H15.7V5.6001H14.7Z" fill="#A36AFF"/>
<ellipse cx="8.8" cy="13.5999" rx="1.2" ry="1.2" fill="#A36AFF"/>
<ellipse cx="14.4" cy="12" rx="1.2" ry="1.2" fill="#A36AFF"/>
<path d="M7.1343 20.8001H7.7727V19.3169C7.7727 18.9809 7.7151 18.4865 7.6815 18.1505H7.7007L7.9839 18.9857L8.5359 20.4785H8.9439L9.4911 18.9857L9.7791 18.1505H9.7983C9.7647 18.4865 9.7119 18.9809 9.7119 19.3169V20.8001H10.3599V17.2481H9.5727L8.9823 18.9089C8.9055 19.1297 8.8431 19.3649 8.7663 19.5953H8.7423C8.6703 19.3649 8.6031 19.1297 8.5263 18.9089L7.9215 17.2481H7.1343V20.8001Z" fill="#A36AFF"/>
<path d="M11.4712 20.8001H12.1816V19.5377H12.6568C13.42 19.5377 14.0296 19.1729 14.0296 18.3617C14.0296 17.5217 13.4248 17.2481 12.6376 17.2481H11.4712V20.8001ZM12.1816 18.9761V17.8097H12.5848C13.0744 17.8097 13.3336 17.9489 13.3336 18.3617C13.3336 18.7697 13.0984 18.9761 12.6088 18.9761H12.1816Z" fill="#A36AFF"/>
<path d="M15.7911 20.8673C16.4679 20.8673 17.0391 20.4881 17.0391 19.8353C17.0391 19.3697 16.7319 19.0721 16.3287 18.9617V18.9377C16.7079 18.7889 16.9239 18.5105 16.9239 18.1265C16.9239 17.5169 16.4583 17.1809 15.7719 17.1809C15.3543 17.1809 15.0135 17.3489 14.7063 17.6177L15.0663 18.0497C15.2775 17.8577 15.4839 17.7377 15.7383 17.7329C16.0407 17.7377 16.2135 17.9009 16.2135 18.1793C16.2135 18.4961 16.0023 18.7217 15.3495 18.7217V19.2305C16.1223 19.2305 16.3287 19.4465 16.3287 19.7969C16.3287 20.1137 16.0839 20.2913 15.7239 20.2913C15.4023 20.2913 15.1431 20.1329 14.9319 19.9265L14.6007 20.3729C14.8503 20.6561 15.2295 20.8673 15.7911 20.8673Z" fill="#A36AFF"/>
<defs>
<linearGradient id="paint0_linear" x1="1.2" y1="1.6" x2="22.4" y2="22.4" gradientUnits="userSpaceOnUse">
<stop stop-color="#FBFBFB"/>
<stop offset="1" stop-color="#F1F1F1"/>
</linearGradient>
</defs>
</svg>
