<svg width="24" height="24" viewBox="0 0 24 24" fill="none" xmlns="http://www.w3.org/2000/svg">
<path d="M0 5.60002C0 2.4 2.4 0 5.6 1.46866e-05L17.6 0L24 6.4V18.4C24 21.6 21.6 24 18.4 24H5.6C2.4 24 0 21.6 0 18.4V5.60002Z" fill="url(#paint0_linear)"/>
<path d="M17.6 0L24 6.4H20C18.4 6.4 17.6 5.6 17.6 4V0Z" fill="black" fill-opacity="0.1"/>
<path d="M7.07805 20.8001H7.78845V19.5377H8.26365C9.02685 19.5377 9.63645 19.1729 9.63645 18.3617C9.63645 17.5217 9.03165 17.2481 8.24445 17.2481H7.07805V20.8001ZM7.78845 18.9761V17.8097H8.19165C8.68125 17.8097 8.94045 17.9489 8.94045 18.3617C8.94045 18.7697 8.70525 18.9761 8.21565 18.9761H7.78845Z" fill="#F58F56"/>
<path d="M10.5196 20.8001H11.1916V19.3745C11.1916 18.9665 11.1388 18.5201 11.1052 18.1361H11.1292L11.4892 18.8993L12.5164 20.8001H13.2364V17.2481H12.5644V18.6641C12.5644 19.0673 12.6172 19.5377 12.6556 19.9073H12.6316L12.2764 19.1393L11.2444 17.2481H10.5196V20.8001Z" fill="#F58F56"/>
<path d="M15.8813 20.8673C16.3757 20.8673 16.7933 20.6753 17.0333 20.4401V18.8369H15.7709V19.4177H16.3997V20.1185C16.2989 20.2049 16.1261 20.2529 15.9533 20.2529C15.2573 20.2529 14.9021 19.7873 14.9021 19.0145C14.9021 18.2513 15.3149 17.7905 15.9053 17.7905C16.2269 17.7905 16.4285 17.9201 16.6013 18.0881L16.9805 17.6369C16.7501 17.4017 16.3949 17.1809 15.8813 17.1809C14.9357 17.1809 14.1773 17.8673 14.1773 19.0385C14.1773 20.2241 14.9117 20.8673 15.8813 20.8673Z" fill="#F58F56"/>
<path fill-rule="evenodd" clip-rule="evenodd" d="M11.4783 9.14788C11.4783 9.7722 10.9721 10.2783 10.3478 10.2783C9.7235 10.2783 9.21739 9.7722 9.21739 9.14788C9.21739 8.52355 9.7235 8.01744 10.3478 8.01744C10.9721 8.01744 11.4783 8.52355 11.4783 9.14788ZM10.9565 9.14788C10.9565 9.48405 10.684 9.75657 10.3478 9.75657C10.0117 9.75657 9.73913 9.48405 9.73913 9.14788C9.73913 8.8117 10.0117 8.53918 10.3478 8.53918C10.684 8.53918 10.9565 8.8117 10.9565 9.14788Z" fill="#F58F56"/>
<path fill-rule="evenodd" clip-rule="evenodd" d="M15.3913 13.4087C15.7275 13.4087 16 13.1362 16 12.8V7.40874C16 7.07257 15.7275 6.80005 15.3913 6.80005H8.6087C8.27252 6.80005 8 7.07257 8 7.40874V12.8C8 13.1362 8.27252 13.4087 8.6087 13.4087H15.3913ZM8.6087 7.32179C8.56067 7.32179 8.52174 7.36072 8.52174 7.40874V12.8C8.52174 12.8481 8.56067 12.887 8.6087 12.887H9.7141L12.6955 9.74867C12.9313 9.50051 13.3252 9.49546 13.5672 9.73749L15.4783 11.6485V7.40874C15.4783 7.36072 15.4393 7.32179 15.3913 7.32179H8.6087ZM15.4783 12.8V12.3864L13.1983 10.1064C13.1637 10.0718 13.1075 10.0726 13.0738 10.108L10.4337 12.887H15.3913C15.4393 12.887 15.4783 12.8481 15.4783 12.8Z" fill="#F58F56"/>
<defs>
<linearGradient id="paint0_linear" x1="1.2" y1="1.6" x2="22.4" y2="22.4" gradientUnits="userSpaceOnUse">
<stop stop-color="#FBFBFB"/>
<stop offset="1" stop-color="#F1F1F1"/>
</linearGradient>
</defs>
</svg>
