<svg width="24" height="24" viewBox="0 0 24 24" fill="none" xmlns="http://www.w3.org/2000/svg">
<path d="M0 5.60001C0 2.4 2.4 0 5.6 1.46866e-05L17.6 0L24 6.4V18.4C24 21.6 21.6 24 18.4 24H5.6C2.4 24 0 21.6 0 18.4V5.60001Z" fill="url(#paint0_linear)"/>
<path d="M17.6 0L24 6.4H20C18.4 6.4 17.6 5.6 17.6 4V0Z" fill="white" fill-opacity="0.4"/>
<path d="M8.50156 20.8H11.0456V20.2048H9.37516L11.0264 17.6704V17.248H8.65996V17.8384H10.1576L8.50156 20.3728V20.8Z" fill="#343434"/>
<path d="M11.9157 20.8H12.6261V17.248H11.9157V20.8Z" fill="#343434"/>
<path d="M13.7401 20.8H14.4505V19.5376H14.9257C15.6889 19.5376 16.2985 19.1728 16.2985 18.3616C16.2985 17.5216 15.6937 17.248 14.9065 17.248H13.7401V20.8ZM14.4505 18.976V17.8096H14.8537C15.3433 17.8096 15.6025 17.9488 15.6025 18.3616C15.6025 18.7696 15.3673 18.976 14.8777 18.976H14.4505Z" fill="#343434"/>
<path d="M11.6 8.60005C11.6 8.26868 11.8686 8.00005 12.2 8.00005H13C13.3314 8.00005 13.6 8.26868 13.6 8.60005C13.6 8.93142 13.3314 9.20005 13 9.20005H12.2C11.8686 9.20005 11.6 8.93142 11.6 8.60005Z" fill="#414141"/>
<path d="M12.2 5.60005C11.8686 5.60005 11.6 5.86868 11.6 6.20005C11.6 6.53142 11.8686 6.80005 12.2 6.80005H13C13.3314 6.80005 13.6 6.53142 13.6 6.20005C13.6 5.86868 13.3314 5.60005 13 5.60005H12.2Z" fill="#414141"/>
<path d="M11.6 3.80005C11.6 3.46868 11.8686 3.20005 12.2 3.20005H13C13.3314 3.20005 13.6 3.46868 13.6 3.80005C13.6 4.13142 13.3314 4.40005 13 4.40005H12.2C11.8686 4.40005 11.6 4.13142 11.6 3.80005Z" fill="#414141"/>
<path d="M12.2 0.800049C11.8686 0.800049 11.6 1.06868 11.6 1.40005C11.6 1.73142 11.8686 2.00005 12.2 2.00005H13C13.3314 2.00005 13.6 1.73142 13.6 1.40005C13.6 1.06868 13.3314 0.800049 13 0.800049H12.2Z" fill="#414141"/>
<path d="M10.2 6.80005C9.86864 6.80005 9.60001 7.06868 9.60001 7.40005C9.60001 7.73142 9.86864 8.00005 10.2 8.00005H11C11.3314 8.00005 11.6 7.73142 11.6 7.40005C11.6 7.06868 11.3314 6.80005 11 6.80005H10.2Z" fill="#414141"/>
<path d="M9.60001 5.00005C9.60001 4.66868 9.86864 4.40005 10.2 4.40005H11C11.3314 4.40005 11.6 4.66868 11.6 5.00005C11.6 5.33142 11.3314 5.60005 11 5.60005H10.2C9.86864 5.60005 9.60001 5.33142 9.60001 5.00005Z" fill="#414141"/>
<path d="M10.2 2.00005C9.86864 2.00005 9.60001 2.26868 9.60001 2.60005C9.60001 2.93142 9.86864 3.20005 10.2 3.20005H11C11.3314 3.20005 11.6 2.93142 11.6 2.60005C11.6 2.26868 11.3314 2.00005 11 2.00005H10.2Z" fill="#414141"/>
<path fill-rule="evenodd" clip-rule="evenodd" d="M11.2 9.60005C10.3164 9.60005 9.60001 10.3164 9.60001 11.2V14.6C9.60001 14.9314 9.86864 15.2 10.2 15.2H13C13.3314 15.2 13.6 14.9314 13.6 14.6V11.2C13.6 10.3164 12.8837 9.60005 12 9.60005H11.2ZM10.8 11.2C10.8 10.9791 10.9791 10.8 11.2 10.8H12C12.2209 10.8 12.4 10.9791 12.4 11.2V14H10.8V11.2Z" fill="#414141"/>
<defs>
<linearGradient id="paint0_linear" x1="1.2" y1="1.6" x2="22.4" y2="22.4" gradientUnits="userSpaceOnUse">
<stop stop-color="#FCEAAB"/>
<stop offset="1" stop-color="#EEDE89"/>
</linearGradient>
</defs>
</svg>
