<svg width="24" height="24" viewBox="0 0 24 24" fill="none" xmlns="http://www.w3.org/2000/svg">
<path d="M0 5.60001C0 2.4 2.4 0 5.6 1.46866e-05L17.6 0L24 6.4V18.4C24 21.6 21.6 24 18.4 24H5.6C2.4 24 0 21.6 0 18.4V5.60001Z" fill="url(#paint0_linear)"/>
<path d="M17.6 0L24 6.4H20C18.4 6.4 17.6 5.6 17.6 4V0Z" fill="black" fill-opacity="0.1"/>
<path d="M6 11.6728V12.9619C6.78094 12.9619 7.04694 13.262 7.04694 13.9611V14.7318C7.04694 16.396 8.00862 16.6381 9.38635 16.6381V15.5673C8.57813 15.5673 8.41444 15.2535 8.41444 14.5885V13.5791C8.41444 13.0539 8.18936 12.5867 7.20381 12.389V12.2491C8.18936 12.0513 8.41444 11.5841 8.41444 11.059V10.0495C8.41444 9.38114 8.57813 9.07081 9.38635 9.07081V8C8.00862 8 7.04694 8.24213 7.04694 9.90972V10.677C7.04694 11.3795 6.78094 11.6728 6 11.6728Z" fill="#414141"/>
<path d="M18.2 12.9653V11.6762C17.4191 11.6762 17.1531 11.3761 17.1531 10.677V9.90631C17.1531 8.24213 16.1914 8 14.8137 8V9.07081C15.6219 9.07081 15.7856 9.38455 15.7856 10.0495V11.059C15.7856 11.5841 16.0106 12.0513 16.9962 12.2491V12.389C16.0106 12.5867 15.7856 13.0539 15.7856 13.5791V14.5885C15.7856 15.257 15.6219 15.5673 14.8137 15.5673V16.6381C16.1914 16.6381 17.1531 16.396 17.1531 14.7284V13.9611C17.1531 13.2586 17.4191 12.9653 18.2 12.9653Z" fill="#414141"/>
<defs>
<linearGradient id="paint0_linear" x1="1.2" y1="1.6" x2="22.4" y2="22.4" gradientUnits="userSpaceOnUse">
<stop stop-color="#FBFBFB"/>
<stop offset="1" stop-color="#F1F1F1"/>
</linearGradient>
</defs>
</svg>
