<svg width="24" height="24" viewBox="0 0 24 24" fill="none" xmlns="http://www.w3.org/2000/svg">
<path d="M0 5.60002C0 2.4 2.4 0 5.6 1.46866e-05L17.6 0L24 6.4V18.4C24 21.6 21.6 24 18.4 24H5.6C2.4 24 0 21.6 0 18.4V5.60002Z" fill="url(#paint0_linear)"/>
<path d="M17.6 0L24 6.4H20C18.4 6.4 17.6 5.6 17.6 4V0Z" fill="black" fill-opacity="0.1"/>
<path d="M6.75078 20.8H7.61958L8.00838 19.0432C8.06598 18.7648 8.11398 18.4912 8.16198 18.2224H8.18118C8.22438 18.4912 8.27718 18.7648 8.33478 19.0432L8.73318 20.8H9.61638L10.274 17.248H9.59718L9.31878 18.9808C9.26598 19.3504 9.21318 19.7296 9.16038 20.1136H9.13638C9.05958 19.7296 8.98758 19.3456 8.91078 18.9808L8.49798 17.248H7.89318L7.48038 18.9808C7.40358 19.3504 7.32678 19.7344 7.25478 20.1136H7.23558C7.18278 19.7344 7.12518 19.3552 7.07238 18.9808L6.78918 17.248H6.06438L6.75078 20.8Z" fill="#FA679C"/>
<path d="M11.047 20.8H11.6854V19.3168C11.6854 18.9808 11.6278 18.4864 11.5942 18.1504H11.6134L11.8966 18.9856L12.4486 20.4784H12.8566L13.4038 18.9856L13.6918 18.1504H13.711C13.6774 18.4864 13.6246 18.9808 13.6246 19.3168V20.8H14.2726V17.248H13.4854L12.895 18.9088C12.8182 19.1296 12.7558 19.3648 12.679 19.5952H12.655C12.583 19.3648 12.5158 19.1296 12.439 18.9088L11.8342 17.248H11.047V20.8Z" fill="#FA679C"/>
<path d="M16.0848 20.8H16.9296L18.0192 17.248H17.2992C17.1192 17.9229 17.0184 18.3012 16.8384 18.976C16.728 19.3696 16.6464 19.7248 16.536 20.1232H16.512C16.3968 19.7248 16.3248 19.3696 16.2144 18.976L15.744 17.248H15L16.0848 20.8Z" fill="#FA679C"/>
<path d="M15.1077 9.09139C15.7641 9.47037 15.7641 10.4178 15.1077 10.7968L10.6769 13.3549C10.0205 13.7339 9.2 13.2602 9.2 12.5022L9.2 7.38599C9.2 6.62803 10.0205 6.15431 10.6769 6.53328L15.1077 9.09139Z" fill="#FA679C"/>
<defs>
<linearGradient id="paint0_linear" x1="1.2" y1="1.6" x2="22.4" y2="22.4" gradientUnits="userSpaceOnUse">
<stop stop-color="#FBFBFB"/>
<stop offset="1" stop-color="#F1F1F1"/>
</linearGradient>
</defs>
</svg>
