<svg width="24" height="24" viewBox="0 0 24 24" fill="none" xmlns="http://www.w3.org/2000/svg">
<path d="M0 5.60001C0 2.4 2.4 0 5.6 1.46866e-05L17.6 0L24 6.4V18.4C24 21.6 21.6 24 18.4 24H5.6C2.4 24 0 21.6 0 18.4V5.60001Z" fill="url(#paint0_linear)"/>
<path d="M17.6 0L24 6.4H20C18.4 6.4 17.6 5.6 17.6 4V0Z" fill="black" fill-opacity="0.1"/>
<path d="M10.2279 20.8673C10.9911 20.8673 11.3271 20.3201 11.3271 19.6529V17.2481H10.6167V19.5953C10.6167 20.0849 10.4535 20.2529 10.1415 20.2529C9.93987 20.2529 9.75267 20.1425 9.61347 19.8833L9.12387 20.2433C9.36387 20.6561 9.70947 20.8673 10.2279 20.8673Z" fill="#F58F56"/>
<path d="M13.484 20.8673C14.3048 20.8673 14.7896 20.3729 14.7896 19.7921C14.7896 19.2785 14.5064 19.0049 14.0744 18.8273L13.6088 18.6305C13.3064 18.5105 13.052 18.4193 13.052 18.1649C13.052 17.9297 13.2536 17.7905 13.5656 17.7905C13.8584 17.7905 14.0936 17.8961 14.3192 18.0833L14.6792 17.6369C14.3912 17.3441 13.9784 17.1809 13.5656 17.1809C12.8456 17.1809 12.3368 17.6273 12.3368 18.2081C12.3368 18.7265 12.6968 19.0145 13.0568 19.1633L13.532 19.3649C13.8488 19.4993 14.0648 19.5809 14.0648 19.8449C14.0648 20.0945 13.868 20.2529 13.4984 20.2529C13.1864 20.2529 12.8504 20.0945 12.596 19.8593L12.188 20.3489C12.5336 20.6801 13.0088 20.8673 13.484 20.8673Z" fill="#F58F56"/>
<path d="M7.79791 8.96357V9.79893C8.30399 9.79893 8.47637 9.9934 8.47637 10.4464V10.9459C8.47637 12.0243 9.09957 12.1812 9.99239 12.1812V11.4873C9.46863 11.4873 9.36255 11.284 9.36255 10.8531V10.1989C9.36255 9.8586 9.2167 9.55583 8.57802 9.42766V9.33705C9.2167 9.20887 9.36255 8.90611 9.36255 8.56578V7.91163C9.36255 7.47849 9.46863 7.27738 9.99239 7.27738V6.58346C9.09957 6.58346 8.47637 6.74036 8.47637 7.82103V8.31826C8.47637 8.77351 8.30399 8.96357 7.79791 8.96357Z" fill="#F58F56"/>
<path d="M11.9358 11.2H12.8595V7.80556H11.9358V11.2ZM11.8938 6.89064C11.8938 7.15141 12.1214 7.36136 12.3998 7.36136C12.6761 7.36136 12.9037 7.15141 12.9037 6.89064C12.9037 6.63208 12.6761 6.41992 12.3998 6.41992C12.1214 6.41992 11.8938 6.63208 11.8938 6.89064Z" fill="#F58F56"/>
<path d="M17 9.80114V8.96578C16.4939 8.96578 16.3216 8.7713 16.3216 8.31826V7.81882C16.3216 6.74036 15.6984 6.58346 14.8055 6.58346V7.27738C15.3293 7.27738 15.4354 7.4807 15.4354 7.91163V8.56578C15.4354 8.90611 15.5812 9.20887 16.2199 9.33705V9.42766C15.5812 9.55583 15.4354 9.8586 15.4354 10.1989V10.8531C15.4354 11.2862 15.3293 11.4873 14.8055 11.4873V12.1812C15.6984 12.1812 16.3216 12.0243 16.3216 10.9437V10.4464C16.3216 9.99119 16.4939 9.80114 17 9.80114Z" fill="#F58F56"/>
<defs>
<linearGradient id="paint0_linear" x1="1.2" y1="1.6" x2="22.4" y2="22.4" gradientUnits="userSpaceOnUse">
<stop stop-color="#FBFBFB"/>
<stop offset="1" stop-color="#F1F1F1"/>
</linearGradient>
</defs>
</svg>
