<svg width="24" height="24" viewBox="0 0 24 24" fill="none" xmlns="http://www.w3.org/2000/svg">
<path d="M0 5.60001C0 2.4 2.4 0 5.6 1.46866e-05L17.6 0L24 6.4V18.4C24 21.6 21.6 24 18.4 24H5.6C2.4 24 0 21.6 0 18.4V5.60001Z" fill="url(#paint0_linear)"/>
<path d="M12.2407 19.2H13.4247V14.264H15.1047V13.28H10.5767V14.264H12.2407V19.2Z" fill="#314EB5"/>
<path d="M17.5671 19.312C18.9351 19.312 19.7431 18.488 19.7431 17.52C19.7431 16.664 19.2711 16.208 18.5511 15.912L17.7751 15.584C17.2711 15.384 16.8471 15.232 16.8471 14.808C16.8471 14.416 17.1831 14.184 17.7031 14.184C18.1911 14.184 18.5831 14.36 18.9591 14.672L19.5591 13.928C19.0791 13.44 18.3911 13.168 17.7031 13.168C16.5031 13.168 15.6551 13.912 15.6551 14.88C15.6551 15.744 16.2551 16.224 16.8551 16.472L17.6471 16.808C18.1751 17.032 18.5351 17.168 18.5351 17.608C18.5351 18.024 18.2071 18.288 17.5911 18.288C17.0711 18.288 16.5111 18.024 16.0871 17.632L15.4071 18.448C15.9831 19 16.7751 19.312 17.5671 19.312Z" fill="#314EB5"/>
<path d="M17.6 0L24 6.4H20C18.4 6.4 17.6 5.6 17.6 4V0Z" fill="black" fill-opacity="0.1"/>
<defs>
<linearGradient id="paint0_linear" x1="1.2" y1="1.6" x2="22.4" y2="22.4" gradientUnits="userSpaceOnUse">
<stop stop-color="#FBFBFB"/>
<stop offset="1" stop-color="#F1F1F1"/>
</linearGradient>
</defs>
</svg>
