<svg width="24" height="24" viewBox="0 0 24 24" fill="none" xmlns="http://www.w3.org/2000/svg">
<path d="M0 5.60002C0 2.4 2.4 0 5.6 1.46866e-05L17.6 0L24 6.4V18.4C24 21.6 21.6 24 18.4 24H5.6C2.4 24 0 21.6 0 18.4V5.60002Z" fill="url(#paint0_linear)"/>
<path d="M17.6 0L24 6.4H20C18.4 6.4 17.6 5.6 17.6 4V0Z" fill="black" fill-opacity="0.1"/>
<path d="M6.84602 20.8001H7.48442V19.3169C7.48442 18.9809 7.42682 18.4865 7.39322 18.1505H7.41242L7.69562 18.9857L8.24762 20.4785H8.65562L9.20282 18.9857L9.49082 18.1505H9.51002C9.47642 18.4865 9.42362 18.9809 9.42362 19.3169V20.8001H10.0716V17.2481H9.28442L8.69402 18.9089C8.61722 19.1297 8.55482 19.3649 8.47802 19.5953H8.45402C8.38202 19.3649 8.31482 19.1297 8.23802 18.9089L7.63322 17.2481H6.84602V20.8001Z" fill="#F58F56"/>
<path d="M12.5941 20.8673C13.5349 20.8673 14.1829 20.1617 14.1829 19.0097C14.1829 17.8577 13.5349 17.1809 12.5941 17.1809C11.6533 17.1809 11.0053 17.8529 11.0053 19.0097C11.0053 20.1617 11.6533 20.8673 12.5941 20.8673ZM12.5941 20.2529C12.0661 20.2529 11.7301 19.7681 11.7301 19.0097C11.7301 18.2465 12.0661 17.7905 12.5941 17.7905C13.1221 17.7905 13.4581 18.2465 13.4581 19.0097C13.4581 19.7681 13.1221 20.2529 12.5941 20.2529Z" fill="#F58F56"/>
<path d="M15.6844 20.8001H16.5292L17.6188 17.2481H16.8988L16.438 18.9761C16.3276 19.3697 16.246 19.7249 16.1356 20.1233H16.1116C15.9964 19.7249 15.9244 19.3697 15.814 18.9761L15.3436 17.2481H14.5996L15.6844 20.8001Z" fill="#F58F56"/>
<path d="M15.1077 9.09139C15.7641 9.47037 15.7641 10.4178 15.1077 10.7968L10.6769 13.3549C10.0205 13.7339 9.2 13.2602 9.2 12.5022L9.2 7.38599C9.2 6.62803 10.0205 6.15431 10.6769 6.53328L15.1077 9.09139Z" fill="#F58F56"/>
<defs>
<linearGradient id="paint0_linear" x1="1.2" y1="1.6" x2="22.4" y2="22.4" gradientUnits="userSpaceOnUse">
<stop stop-color="#FBFBFB"/>
<stop offset="1" stop-color="#F1F1F1"/>
</linearGradient>
</defs>
</svg>
