<svg width="24" height="24" viewBox="0 0 24 24" fill="none" xmlns="http://www.w3.org/2000/svg">
<path d="M0 5.60001C0 2.4 2.4 0 5.6 1.46866e-05L17.6 0L24 6.4V18.4C24 21.6 21.6 24 18.4 24H5.6C2.4 24 0 21.6 0 18.4V5.60001Z" fill="url(#paint0_linear)"/>
<path d="M8.74393 13.072L8.95513 12.2944C9.16633 11.5552 9.37753 10.7488 9.55993 9.9712H9.59833C9.80953 10.7392 10.0015 11.5552 10.2223 12.2944L10.4335 13.072H8.74393ZM11.2399 16H12.7279L10.4431 8.896H8.77273L6.49753 16H7.93753L8.43673 14.176H10.7407L11.2399 16Z" fill="#A36AFF"/>
<path d="M15.7771 16.1344C16.4491 16.1344 17.1307 15.904 17.6587 15.5392L17.1787 14.6752C16.7947 14.9152 16.4107 15.0496 15.9691 15.0496C15.1723 15.0496 14.5963 14.5888 14.4811 13.7056H17.7931C17.8315 13.5808 17.8603 13.3216 17.8603 13.0624C17.8603 11.5744 17.0923 10.4896 15.6139 10.4896C14.3275 10.4896 13.1083 11.5744 13.1083 13.3216C13.1083 15.088 14.2795 16.1344 15.7771 16.1344ZM14.4619 12.7744C14.5675 11.9872 15.0667 11.584 15.6331 11.584C16.3243 11.584 16.6507 12.0448 16.6507 12.7744H14.4619Z" fill="#A36AFF"/>
<path d="M17.6 0L24 6.4H20C18.4 6.4 17.6 5.6 17.6 4V0Z" fill="white" fill-opacity="0.4"/>
<defs>
<linearGradient id="paint0_linear" x1="1.2" y1="1.6" x2="22.4" y2="22.4" gradientUnits="userSpaceOnUse">
<stop stop-color="#291E46"/>
<stop offset="1" stop-color="#131238"/>
</linearGradient>
</defs>
</svg>
