<svg width="24" height="24" viewBox="0 0 24 24" fill="none" xmlns="http://www.w3.org/2000/svg">
<path d="M0 5.60002C0 2.4 2.4 0 5.6 1.46866e-05L17.6 0L24 6.4V18.4C24 21.6 21.6 24 18.4 24H5.6C2.4 24 0 21.6 0 18.4V5.60002Z" fill="url(#paint0_linear)"/>
<path d="M17.6 0L24 6.4H20C18.4 6.4 17.6 5.6 17.6 4V0Z" fill="black" fill-opacity="0.1"/>
<path d="M7.55642 17.8096H8.01722C8.47322 17.8096 8.72282 17.9392 8.72282 18.3232C8.72282 18.7024 8.47322 18.8944 8.01722 18.8944H7.55642V17.8096ZM9.57242 20.8L8.74202 19.3456C9.15002 19.1872 9.41882 18.856 9.41882 18.3232C9.41882 17.5072 8.82842 17.248 8.08442 17.248H6.84602V20.8H7.55642V19.456H8.05082L8.78042 20.8H9.57242Z" fill="#2484F3"/>
<path d="M10.9876 19.336L11.0932 18.9472C11.1988 18.5776 11.3044 18.1744 11.3956 17.7856H11.4148C11.5204 18.1696 11.6164 18.5776 11.7268 18.9472L11.8324 19.336H10.9876ZM12.2356 20.8H12.9796L11.8372 17.248H11.002L9.8644 20.8H10.5844L10.834 19.888H11.986L12.2356 20.8Z" fill="#2484F3"/>
<path d="M13.9714 20.8H14.8402L15.229 19.0432C15.2866 18.7648 15.3346 18.4912 15.3826 18.2224H15.4018C15.445 18.4912 15.4978 18.7648 15.5554 19.0432L15.9538 20.8H16.837L17.4946 17.248H16.8178L16.5394 18.9808C16.4866 19.3504 16.4338 19.7296 16.381 20.1136H16.357C16.2802 19.7296 16.2082 19.3456 16.1314 18.9808L15.7186 17.248H15.1138L14.701 18.9808C14.6242 19.3504 14.5474 19.7344 14.4754 20.1136H14.4562C14.4034 19.7344 14.3458 19.3552 14.293 18.9808L14.0098 17.248H13.285L13.9714 20.8Z" fill="#2484F3"/>
<path d="M12 6.6665C11.2089 6.6665 10.4355 6.9011 9.77772 7.34063C9.11992 7.78015 8.60723 8.40487 8.30448 9.13577C8.00173 9.86667 7.92252 10.6709 8.07686 11.4469C8.2312 12.2228 8.61216 12.9355 9.17157 13.4949C9.73098 14.0543 10.4437 14.4353 11.2196 14.5896C11.9956 14.744 12.7998 14.6648 13.5307 14.362C14.2616 14.0593 14.8864 13.5466 15.3259 12.8888C15.7654 12.231 16 11.4576 16 10.6665C16 10.1412 15.8965 9.62107 15.6955 9.13577C15.4945 8.65047 15.1999 8.20951 14.8284 7.83808C14.457 7.46664 14.016 7.172 13.5307 6.97099C13.0454 6.76997 12.5253 6.6665 12 6.6665ZM15.22 9.0665H11.4V7.1225C12.1615 6.98733 12.9463 7.10396 13.6356 7.45474C14.3249 7.80551 14.8811 8.37132 15.22 9.0665ZM12.692 11.8665H11.308L10.614 10.6665L11.308 9.4665H12.692L13.386 10.6665L12.692 11.8665ZM11 7.2125V9.2125L10.34 10.3405L8.88 8.8785C9.34561 8.07076 10.1051 7.47394 11 7.2125ZM8.69 9.2545L10.224 10.7885L10.846 11.8665H8.61C8.30459 11.0172 8.33319 10.0835 8.69 9.2545ZM8.78 12.2665H12.6V14.2105C11.8385 14.3457 11.0537 14.229 10.3644 13.8783C9.67515 13.5275 9.11893 12.9617 8.78 12.2665ZM13 14.1205V12.1205L13.652 10.9925L15.112 12.4545C14.6483 13.2606 13.892 13.8572 13 14.1205ZM15.31 12.0785L13.776 10.5445L13.154 9.4665H15.4C15.7054 10.3158 15.6768 11.2495 15.32 12.0785H15.31Z" fill="#2484F3"/>
<defs>
<linearGradient id="paint0_linear" x1="1.2" y1="1.6" x2="22.4" y2="22.4" gradientUnits="userSpaceOnUse">
<stop stop-color="#FBFBFB"/>
<stop offset="1" stop-color="#F1F1F1"/>
</linearGradient>
</defs>
</svg>
