<svg width="24" height="24" viewBox="0 0 24 24" fill="none" xmlns="http://www.w3.org/2000/svg">
<path d="M0 5.60002C0 2.4 2.4 0 5.6 1.46866e-05L17.6 0L24 6.4V18.4C24 21.6 21.6 24 18.4 24H5.6C2.4 24 0 21.6 0 18.4V5.60002Z" fill="url(#paint0_linear)"/>
<path d="M17.6 0L24 6.4H20C18.4 6.4 17.6 5.6 17.6 4V0Z" fill="black" fill-opacity="0.1"/>
<path fill-rule="evenodd" clip-rule="evenodd" d="M14.6 7.7999H9.4V12.9999H14.6V7.7999ZM9 7.3999V13.3999H15V7.3999H9Z" fill="#333333"/>
<rect x="8.39999" y="6.80005" width="1.6" height="1.6" fill="#333333"/>
<rect x="14" y="6.80005" width="1.6" height="1.6" fill="#333333"/>
<rect x="14" y="12.3999" width="1.6" height="1.6" fill="#333333"/>
<rect x="8.39999" y="12.3999" width="1.6" height="1.6" fill="#333333"/>
<path d="M7.64993 20.8001H9.88193V20.2049H8.36033V19.2545H9.60833V18.6593H8.36033V17.8385H9.82913V17.2481H7.64993V20.8001Z" fill="#333333"/>
<path d="M10.8431 20.8001H11.5535V19.5377H12.0287C12.7919 19.5377 13.4015 19.1729 13.4015 18.3617C13.4015 17.5217 12.7967 17.2481 12.0095 17.2481H10.8431V20.8001ZM11.5535 18.9761V17.8097H11.9567C12.4463 17.8097 12.7055 17.9489 12.7055 18.3617C12.7055 18.7697 12.4703 18.9761 11.9807 18.9761H11.5535Z" fill="#333333"/>
<path d="M15.2892 20.8673C16.11 20.8673 16.5948 20.3729 16.5948 19.7921C16.5948 19.2785 16.3116 19.0049 15.8796 18.8273L15.414 18.6305C15.1116 18.5105 14.8572 18.4193 14.8572 18.1649C14.8572 17.9297 15.0588 17.7905 15.3708 17.7905C15.6636 17.7905 15.8988 17.8961 16.1244 18.0833L16.4844 17.6369C16.1964 17.3441 15.7836 17.1809 15.3708 17.1809C14.6508 17.1809 14.142 17.6273 14.142 18.2081C14.142 18.7265 14.502 19.0145 14.862 19.1633L15.3372 19.3649C15.654 19.4993 15.87 19.5809 15.87 19.8449C15.87 20.0945 15.6732 20.2529 15.3036 20.2529C14.9916 20.2529 14.6556 20.0945 14.4012 19.8593L13.9932 20.3489C14.3388 20.6801 14.814 20.8673 15.2892 20.8673Z" fill="#333333"/>
<defs>
<linearGradient id="paint0_linear" x1="1.2" y1="1.6" x2="22.4" y2="22.4" gradientUnits="userSpaceOnUse">
<stop stop-color="#FBFBFB"/>
<stop offset="1" stop-color="#F1F1F1"/>
</linearGradient>
</defs>
</svg>
