<svg width="24" height="24" viewBox="0 0 24 24" fill="none" xmlns="http://www.w3.org/2000/svg">
<path d="M0 5.60001C0 2.4 2.4 0 5.6 1.46866e-05L17.6 0L24 6.4V18.4C24 21.6 21.6 24 18.4 24H5.6C2.4 24 0 21.6 0 18.4V5.60001Z" fill="url(#paint0_linear)"/>
<path d="M17.6 0L24 6.4H20C18.4 6.4 17.6 5.6 17.6 4V0Z" fill="black" fill-opacity="0.1"/>
<path d="M9.46541 21.07C9.98041 21.07 10.4154 20.87 10.6654 20.625V18.955H9.35041V19.56H10.0054V20.29C9.90041 20.38 9.72041 20.43 9.54541 20.43C8.81541 20.43 8.44541 19.945 8.44541 19.14C8.44541 18.345 8.87541 17.865 9.49041 17.865C9.82541 17.865 10.0354 18 10.2204 18.175L10.6104 17.705C10.3704 17.46 10.0004 17.23 9.46541 17.23C8.48041 17.23 7.69041 17.945 7.69041 19.165C7.69041 20.4 8.46041 21.07 9.46541 21.07Z" fill="#2484F3"/>
<path d="M11.9594 21H12.6994V17.295H11.9594V21Z" fill="#2484F3"/>
<path d="M14.1098 21H14.8498V19.5H16.1648V18.88H14.8498V17.915H16.3898V17.295H14.1098V21Z" fill="#2484F3"/>
<path fill-rule="evenodd" clip-rule="evenodd" d="M11.4783 9.14787C11.4783 9.7722 10.9721 10.2783 10.3478 10.2783C9.7235 10.2783 9.21739 9.7722 9.21739 9.14787C9.21739 8.52355 9.7235 8.01744 10.3478 8.01744C10.9721 8.01744 11.4783 8.52355 11.4783 9.14787ZM10.9565 9.14787C10.9565 9.48405 10.684 9.75657 10.3478 9.75657C10.0117 9.75657 9.73913 9.48405 9.73913 9.14787C9.73913 8.8117 10.0117 8.53918 10.3478 8.53918C10.684 8.53918 10.9565 8.8117 10.9565 9.14787Z" fill="#2484F3"/>
<path fill-rule="evenodd" clip-rule="evenodd" d="M15.3913 13.4087C15.7275 13.4087 16 13.1362 16 12.8V7.40874C16 7.07257 15.7275 6.80005 15.3913 6.80005H8.6087C8.27252 6.80005 8 7.07257 8 7.40874V12.8C8 13.1362 8.27252 13.4087 8.6087 13.4087H15.3913ZM8.6087 7.32179C8.56067 7.32179 8.52174 7.36072 8.52174 7.40874V12.8C8.52174 12.8481 8.56067 12.887 8.6087 12.887H9.7141L12.6955 9.74867C12.9313 9.50051 13.3252 9.49546 13.5672 9.73749L15.4783 11.6485V7.40874C15.4783 7.36072 15.4393 7.32179 15.3913 7.32179H8.6087ZM15.4783 12.8V12.3864L13.1983 10.1064C13.1637 10.0718 13.1075 10.0726 13.0738 10.108L10.4337 12.887H15.3913C15.4393 12.887 15.4783 12.8481 15.4783 12.8Z" fill="#2484F3"/>
<defs>
<linearGradient id="paint0_linear" x1="1.2" y1="1.6" x2="22.4" y2="22.4" gradientUnits="userSpaceOnUse">
<stop stop-color="#FBFBFB"/>
<stop offset="1" stop-color="#F1F1F1"/>
</linearGradient>
</defs>
</svg>
