<svg width="24" height="24" viewBox="0 0 24 24" fill="none" xmlns="http://www.w3.org/2000/svg">
<path d="M0 5.60001C0 2.4 2.4 0 5.6 1.46866e-05L17.6 0L24 6.4V18.4C24 21.6 21.6 24 18.4 24H5.6C2.4 24 0 21.6 0 18.4V5.60001Z" fill="url(#paint0_linear)"/>
<path d="M9.67519 13.0721L9.88639 12.2945C10.0976 11.5553 10.3088 10.7489 10.4912 9.97132H10.5296C10.7408 10.7393 10.9328 11.5553 11.1536 12.2945L11.3648 13.0721H9.67519ZM12.1712 16.0001H13.6592L11.3744 8.89612H9.70399L7.42879 16.0001H8.86879L9.36799 14.1761H11.672L12.1712 16.0001Z" fill="#FFA34F"/>
<path d="M14.3756 16.0001H15.7772V10.6241H14.3756V16.0001ZM15.086 9.76012C15.566 9.76012 15.9212 9.43372 15.9212 8.99212C15.9212 8.53132 15.566 8.22412 15.086 8.22412C14.5964 8.22412 14.2412 8.53132 14.2412 8.99212C14.2412 9.43372 14.5964 9.76012 15.086 9.76012Z" fill="#FFA34F"/>
<path d="M17.6 0L24 6.4H20C18.4 6.4 17.6 5.6 17.6 4V0Z" fill="white" fill-opacity="0.4"/>
<defs>
<linearGradient id="paint0_linear" x1="1.2" y1="1.6" x2="22.4" y2="22.4" gradientUnits="userSpaceOnUse">
<stop stop-color="#46341E"/>
<stop offset="1" stop-color="#3C2417"/>
</linearGradient>
</defs>
</svg>
